<svg width="107" height="108" viewBox="0 0 107 108" fill="none" xmlns="http://www.w3.org/2000/svg">
<path fill-rule="evenodd" clip-rule="evenodd" d="M18.7394 0.765381H87.9784C98.2312 0.765381 106.62 9.15383 106.62 19.4066V88.6457C106.62 98.8985 98.2312 107.287 87.9784 107.287H18.7394C8.48659 107.287 0.0981445 98.8985 0.0981445 88.6457V19.4066C0.0981445 9.15383 8.48659 0.765381 18.7394 0.765381V0.765381Z" fill="#0FA5E1" stroke="#FEFEFE" stroke-width="0.03166" stroke-miterlimit="2.61313"/>
<path fill-rule="evenodd" clip-rule="evenodd" d="M55.9151 22.0642C74.9771 22.0642 90.4354 37.5233 90.4354 56.5861C90.4354 75.6496 74.9771 91.108 55.9151 91.108C36.8539 91.108 21.3955 75.6496 21.3955 56.5861C21.3955 37.5233 36.8539 22.0642 55.9151 22.0642Z" fill="#F58634"/>
<path d="M38.0965 71.6284L39.7007 70.0296H66.0032V73.2272H39.7007L38.0965 71.6284ZM39.7007 70.0296V73.2272L39.6189 73.2257L39.5378 73.2195L39.4575 73.2095L39.3788 73.1948L39.3016 73.177L39.2244 73.1554L39.151 73.1299L39.0777 73.1014L39.0075 73.0697L38.9387 73.0342L38.8716 72.9956L38.8075 72.9539L38.745 72.9099L38.6847 72.8621L38.6261 72.8119L38.5713 72.7586L38.518 72.7031L38.4678 72.6452L38.4207 72.5849L38.376 72.5224L38.3343 72.4575L38.2957 72.3904L38.2602 72.3217L38.2285 72.2507L38.2 72.1781L38.1745 72.104L38.1529 72.0276L38.1351 71.9504L38.1212 71.8716L38.1112 71.7921L38.105 71.7103L38.1035 71.6284L38.105 71.5458L38.1112 71.4648L38.1212 71.3845L38.1351 71.3057L38.1529 71.2285L38.1745 71.1521L38.2 71.078L38.2285 71.0054L38.2602 70.9344L38.2957 70.8657L38.3343 70.7985L38.376 70.7337L38.4207 70.6712L38.4678 70.611L38.518 70.5531L38.5713 70.4975L38.6261 70.4442L38.6847 70.394L38.745 70.3469L38.8075 70.3022L38.8716 70.2605L38.9387 70.2226L39.0075 70.1871L39.0777 70.1555L39.151 70.1269L39.2244 70.1014L39.3016 70.0798L39.3788 70.0621L39.4575 70.0474L39.5378 70.0374L39.6189 70.0304L39.7007 70.0289V70.0296ZM39.6822 59.58L41.3057 61.1788V71.6284H38.0965V61.1788L39.6822 59.58ZM41.3057 61.1788H38.0965L38.098 61.0962L38.105 61.0151L38.115 60.9348L38.1289 60.8553L38.1467 60.7781L38.1691 60.7017L38.1938 60.6276L38.2231 60.555L38.2548 60.4832L38.2895 60.4137L38.3281 60.3466L38.3698 60.2809L38.4145 60.2184L38.4624 60.1582L38.5126 60.1003L38.5651 60.0447L38.6207 59.9914L38.6786 59.9405L38.7396 59.8934L38.8021 59.8478L38.8669 59.8062L38.9341 59.7676L39.0036 59.7328L39.0754 59.7004L39.1479 59.6718L39.2228 59.6464L39.2985 59.6247L39.3757 59.607L39.4552 59.5923L39.5347 59.5823L39.6165 59.5753L39.6992 59.5738L39.7825 59.5753L39.8636 59.5823L39.9439 59.5923L40.0226 59.607L40.1006 59.6247L40.1762 59.6464L40.2503 59.6718L40.3229 59.7004L40.3947 59.7328L40.4642 59.7676L40.5314 59.8062L40.597 59.8478L40.6595 59.8934L40.7197 59.9405L40.7768 59.9914L40.8332 60.0447L40.8857 60.1003L40.9367 60.1582L40.9837 60.2184L41.0285 60.2809L41.0702 60.3466L41.1088 60.4137L41.1443 60.4832L41.1767 60.555L41.2053 60.6276L41.2308 60.7017L41.2524 60.7781L41.2702 60.8553L41.2848 60.9348L41.2949 61.0151L41.3003 61.0962L41.3034 61.1788H41.3057ZM28.4343 49.2268L31.6318 49.3642L31.6133 50.3747L31.6527 51.3035L31.7353 52.1588L31.8696 52.9501L32.0387 53.6735L32.2386 54.3297L32.4733 54.9349L32.7373 55.4846L33.0268 55.9809L33.3318 56.4326L33.6552 56.8417L33.9995 57.2169L34.3547 57.5543L34.7237 57.8561L35.1004 58.124L35.4833 58.3672L35.8739 58.5818L36.2615 58.7748L36.6444 58.9384L37.0227 59.0797L37.394 59.194L37.7537 59.2966L38.0919 59.3785L38.4038 59.441L38.694 59.4858L38.958 59.5213L39.185 59.5514L39.378 59.5638L39.5255 59.5753L39.632 59.5807L39.6853 59.5823H39.6837L39.7208 62.7806H39.6606L39.5432 62.7791L39.3757 62.7745L39.1526 62.7629L38.8839 62.7374L38.5697 62.7073L38.2185 62.6587L37.8286 62.5884L37.4033 62.5012L36.9516 62.3939L36.4792 62.2657L35.9836 62.1013L35.4671 61.9106L34.9344 61.6844L34.3956 61.4273L33.8544 61.1255L33.3086 60.782L32.7682 60.389L32.2371 59.9498L31.7183 59.4626L31.2227 58.9238L30.7487 58.327L30.3056 57.6747L29.9033 56.9652L29.5397 56.2025L29.2178 55.3842L28.9422 54.5026L28.723 53.5662L28.564 52.5749L28.4559 51.5181L28.4165 50.4018L28.435 49.2291L28.4343 49.2268ZM45.8589 41.659L48.8303 42.837L46.0912 43.2446L45.9145 43.0462L45.6659 42.827L45.3625 42.6077L44.995 42.3839L44.5766 42.17L44.1103 41.9739L43.607 41.7925L43.0589 41.6327L42.4876 41.4968L41.887 41.3942L41.2663 41.3123L40.6379 41.2676L39.9917 41.2544L39.3463 41.2815L38.7056 41.3448L38.0733 41.4389L37.448 41.5794L36.8412 41.7562L36.2491 41.9693L35.6856 42.2295L35.146 42.5305L34.6403 42.8687L34.164 43.2593L33.7193 43.6901L33.304 44.1772L32.9288 44.7153L32.593 45.3066L32.3004 45.9728L32.0495 46.7016L31.8496 47.5091L31.7137 48.3969L31.6311 49.3658L28.4335 49.2283L28.5284 48.0209L28.7145 46.883L28.9762 45.8123L29.3159 44.8071L29.7335 43.8784L30.2199 43.0107L30.7703 42.2217L31.3732 41.5084L32.0325 40.8638L32.7343 40.2979L33.4769 39.7969L34.2427 39.37L35.0325 39.0103L35.8369 38.7084L36.6575 38.4691L37.4828 38.2908L38.3158 38.158L39.1449 38.0823L39.9655 38.0553L40.7745 38.0684L41.5782 38.1256L42.3625 38.2197L43.126 38.3602L43.8725 38.5339L44.5843 38.7439L45.276 38.9886L45.9307 39.272L46.549 39.5862L47.1296 39.9359L47.6707 40.3304L48.1579 40.7627L48.5979 41.249L45.8573 41.6566L45.8589 41.659ZM46.0912 43.2446L48.5994 41.2506L48.6481 41.3162L48.6952 41.3834L48.7369 41.4521L48.7739 41.5231L48.8086 41.5949L48.8387 41.6675L48.8658 41.7408L48.8882 41.8157L48.9075 41.8906L48.9229 41.967L48.9352 42.0434L48.9422 42.1206L48.9468 42.1978V42.275L48.9437 42.3522L48.936 42.4294L48.926 42.5051L48.9113 42.5807L48.8936 42.6556L48.872 42.7297L48.848 42.8023L48.8187 42.8741L48.787 42.9451L48.7515 43.0146L48.7121 43.0825L48.6697 43.1481L48.6234 43.2122L48.5747 43.274L48.5215 43.3342L48.4643 43.3921L48.4049 43.4477L48.3416 43.5009L48.276 43.5503L48.2088 43.5967L48.1401 43.6383L48.0691 43.6762L47.9973 43.7101L47.9247 43.7402L47.8506 43.7673L47.7757 43.7904L47.7008 43.809L47.6236 43.8244L47.548 43.836L47.4708 43.8429L47.3944 43.8476L47.3172 43.8483L47.24 43.8445L47.1635 43.8375L47.0871 43.8267L47.0114 43.812L46.9366 43.7943L46.8625 43.7727L46.7899 43.748L46.7181 43.7194L46.6471 43.687L46.5776 43.6522L46.5104 43.6129L46.4448 43.5696L46.38 43.5241L46.3182 43.4747L46.258 43.4214L46.2001 43.3651L46.1453 43.3056L46.092 43.2423L46.0912 43.2446ZM57.2473 41.3448L59.5162 43.6021L57.14 43.4824L56.7192 43.0007L56.3093 42.5838L55.9125 42.2295L55.5211 41.9346L55.1374 41.6829L54.7769 41.4853L54.4179 41.3309L54.0705 41.212L53.7355 41.1248L53.402 41.0661L53.0816 41.0406L52.7512 41.0375L52.437 41.0607L52.1213 41.107L51.8179 41.1672L51.5083 41.2506L51.2142 41.3556L50.9285 41.4714L50.646 41.5957L50.3812 41.7377L50.1218 41.8821L49.8825 42.0396L49.6571 42.1924L49.454 42.3453L49.2672 42.495L49.1043 42.6386L48.9708 42.7675L48.8588 42.8833L48.7785 42.9721L48.7392 43.0177L48.7477 43.0045L48.8295 42.8355L45.8573 41.6574L46.0264 41.3247L46.1808 41.1L46.3452 40.8924L46.5251 40.6909L46.7258 40.4863L46.959 40.2702L47.2106 40.0509L47.4847 39.8255L47.7896 39.597L48.1146 39.3685L48.4667 39.1492L48.838 38.9292L49.241 38.7239L49.6609 38.5239L50.1095 38.3456L50.5788 38.1912L51.0636 38.0568L51.5809 37.9457L52.1089 37.8739L52.6609 37.8384L53.2182 37.8415L53.8019 37.8932L54.3863 37.9889L54.9853 38.1387L55.5829 38.3456L56.1788 38.6127L56.7795 38.9361L57.3631 39.3129L57.9428 39.7591L58.5157 40.264L59.0761 40.8314L59.6219 41.4644L57.2465 41.3448H57.2473ZM57.14 43.4824L59.6227 41.4636L59.6729 41.5293L59.7184 41.5964L59.7616 41.6651L59.8002 41.7354L59.8358 41.8072L59.8666 41.8798L59.8937 41.9539L59.9176 42.028L59.9377 42.1036L59.9539 42.1793L59.9655 42.2557L59.9739 42.3321L59.9794 42.4093L59.9809 42.4865L59.9786 42.5637L59.9724 42.6402L59.9624 42.7158L59.9493 42.7915L59.9323 42.8664L59.9114 42.9405L59.8875 43.0138L59.8597 43.0864L59.8288 43.1574L59.7933 43.2269L59.7547 43.2956L59.713 43.362L59.6682 43.4261L59.6188 43.4886L59.5671 43.5488L59.5115 43.6075L59.4521 43.663L59.3896 43.7163L59.3247 43.7673L59.2576 43.8128L59.1888 43.8553L59.1186 43.8946L59.0476 43.9294L58.975 43.961L58.9017 43.9881L58.8275 44.012L58.7519 44.0321L58.6755 44.0483L58.5998 44.0599L58.5226 44.0683L58.4462 44.0738L58.369 44.0753L58.2926 44.0722L58.2154 44.066L58.1397 44.0568L58.0633 44.0436L57.9884 44.0267L57.9143 44.0058L57.8409 43.9819L57.7691 43.9541L57.6973 43.9224L57.6279 43.8877L57.5592 43.8491L57.4928 43.8074L57.4287 43.7626L57.3654 43.7132L57.3044 43.6615L57.2465 43.6059L57.1902 43.5465L57.1369 43.484L57.14 43.4824ZM64.5503 38.1101L64.5634 41.3085L64.3241 41.3185L64.0825 41.337L63.8409 41.3702L63.5969 41.4096L63.3653 41.4613L63.1283 41.5177L62.8967 41.5887L62.6651 41.6636L62.442 41.7462L62.2189 41.8358L62.0043 41.9315L61.7982 42.0318L61.5943 42.1361L61.3921 42.2434L61.1999 42.3522L61.0184 42.4618L60.8463 42.5722L60.678 42.6873L60.5205 42.7946L60.3677 42.8988L60.2333 43.0045L60.1044 43.0995L59.9879 43.1937L59.8836 43.2755L59.7871 43.3558L59.7092 43.4322L59.6389 43.4863L59.5895 43.5357L59.5478 43.5735L59.5223 43.5974L59.5046 43.6144L59.5146 43.6036L57.2457 41.3463L57.2727 41.3193L57.3021 41.2907L57.353 41.2405L57.4187 41.178L57.5059 41.1039L57.6008 41.012L57.7159 40.9225L57.8386 40.8183L57.9791 40.6986L58.1335 40.5789L58.2995 40.4469L58.4848 40.3157L58.6747 40.1744L58.8824 40.0308L59.1001 39.8903L59.3355 39.7429L59.5802 39.5954L59.835 39.4488L60.0998 39.3044L60.3792 39.1623L60.6734 39.0249L60.976 38.8914L61.2863 38.7655L61.6106 38.6451L61.9417 38.5324L62.2861 38.4351L62.6365 38.3417L63.0063 38.2653L63.3753 38.2012L63.7552 38.1557L64.1466 38.124L64.548 38.114L64.5503 38.1101ZM76.8721 50.479H73.6737L73.6513 49.6722L73.5942 48.9203L73.5046 48.2217L73.3796 47.5701L73.2321 46.9687L73.0607 46.4167L72.8631 45.9011L72.6439 45.4255L72.4053 44.9901L72.149 44.5918L71.8765 44.2243L71.5909 43.8854L71.2921 43.5735L70.9787 43.2886L70.6568 43.0277L70.3155 42.7915L69.9651 42.5761L69.6076 42.3761L69.2425 42.2017L68.8681 42.0388L68.4921 41.906L68.1092 41.7817L67.7286 41.6713L67.3457 41.5864L66.9682 41.5069L66.5938 41.449L66.2278 41.4003L65.8689 41.3587L65.5176 41.3355L65.1887 41.317L64.8715 41.3077L64.5627 41.3069L64.5495 38.1086L64.9101 38.1101L65.3022 38.1194L65.7183 38.1379L66.1453 38.1734L66.593 38.2151L67.0585 38.2769L67.5333 38.3595L68.0235 38.4521L68.5191 38.5749L69.0255 38.71L69.5343 38.8713L70.0484 39.0674L70.561 39.2805L71.0752 39.5306L71.5839 39.8054L72.0849 40.1204L72.5759 40.4693L73.0607 40.8546L73.5255 41.2776L73.974 41.74L74.3971 42.2418L74.7954 42.7853L75.1644 43.372L75.5026 43.9958L75.809 44.6589L76.0808 45.363L76.317 46.1157L76.5131 46.9046L76.6644 47.7322L76.7787 48.6061L76.8481 49.5209L76.8713 50.4782L76.8721 50.479ZM67.5796 61.1155H64.382L66.0688 59.5167L66.058 59.5174L66.1043 59.5205H66.1993L66.3375 59.5174L66.505 59.5089L66.7157 59.492L66.9489 59.4719L67.2106 59.4387L67.4955 59.3901L67.8035 59.3314L68.1254 59.2596L68.4651 59.1662L68.8109 59.0488L69.1614 58.9184L69.5188 58.7593L69.8724 58.5826L70.2275 58.3726L70.5718 58.141L70.9146 57.8847L71.2489 57.5944L71.5677 57.2694L71.8703 56.9066L72.1645 56.5036L72.4416 56.0651L72.6964 55.5695L72.9334 55.0268L73.1426 54.4292L73.3201 53.7746L73.4699 53.0543L73.5811 52.2715L73.6505 51.4123L73.6745 50.4805H76.8728L76.8489 51.5752L76.7663 52.6104L76.6304 53.5932L76.4428 54.5149L76.2028 55.3827L75.9179 56.1932L75.5936 56.949L75.2254 57.6454L74.8224 58.2969L74.3909 58.8883L73.9261 59.4271L73.4429 59.9158L72.9465 60.3558L72.4393 60.7503L71.9205 61.0954L71.4033 61.3926L70.886 61.6582L70.3788 61.8797L69.8786 62.0727L69.3938 62.2279L68.9298 62.3591L68.4828 62.4688L68.0613 62.5529L67.6653 62.6131L67.3025 62.6587L66.9697 62.6919L66.6833 62.7088L66.4286 62.7173L66.2278 62.7204L66.0704 62.7197L65.9615 62.7173L65.8974 62.7166L67.5835 61.1178L67.5796 61.1155ZM66.0688 59.5167L65.8936 62.715L65.811 62.7081L65.7299 62.6973L65.6512 62.6826L65.5732 62.6641L65.496 62.6417L65.4211 62.6162L65.3486 62.5869L65.2768 62.5545L65.208 62.5182L65.1409 62.4788L65.076 62.4363L65.0135 62.3916L64.9533 62.3437L64.8962 62.2927L64.8414 62.2395L64.7881 62.1839L64.7379 62.1252L64.6916 62.0642L64.6476 62.0017L64.6059 61.9369L64.5681 61.8697L64.5333 61.801L64.5017 61.73L64.4739 61.6574L64.4492 61.5833L64.4283 61.5076L64.4113 61.4304L64.3967 61.3517L64.3874 61.2722L64.3812 61.1919L64.3797 61.11L64.382 61.0275L64.3882 60.9456L64.399 60.8646L64.4137 60.785L64.4322 60.7071L64.4538 60.6306L64.4793 60.5558L64.5086 60.4832L64.5411 60.4122L64.5773 60.3435L64.6167 60.2763L64.6592 60.2122L64.7039 60.1497L64.7518 60.0895L64.802 60.0316L64.8552 59.9768L64.9108 59.9235L64.9695 59.8741L65.0297 59.827L65.0922 59.783L65.1579 59.7421L65.225 59.7035L65.2937 59.668L65.3648 59.6371L65.4373 59.6085L65.5122 59.5838L65.5871 59.563L65.6651 59.546L65.743 59.5321L65.8233 59.5221L65.9028 59.5167L65.9854 59.5143L66.0673 59.5167H66.0688ZM66.004 73.2264V70.0289L64.406 71.6277V71.3142L64.4044 70.9985L64.4036 70.6796V70.3585L64.4029 70.0343L64.4013 69.7085V69.3804L64.4005 69.0508L64.3998 68.7196L64.3982 68.3868V68.0533L64.3975 67.7183L64.3967 67.3825V67.0459L64.3951 66.7093L64.3944 66.372V66.0354L64.3936 65.6988L64.3928 65.3622L64.392 65.0264V64.6913L64.3913 64.3578L64.3897 64.0251L64.389 63.6931V63.3635L64.3882 63.0354L64.3867 62.7096V62.3854L64.3859 62.0635L64.3851 61.7446L64.3836 61.4289V61.1155H67.5811L67.5819 61.4289L67.5827 61.7446V62.0635L67.5842 62.3854L67.585 62.7096L67.5858 63.0354V63.3635L67.5866 63.6931L67.5881 64.0251L67.5889 64.3578V64.6913V65.0264L67.5904 65.3622L67.5912 65.6988L67.592 66.0354V66.372L67.5927 66.7093L67.5943 67.0459V67.3825L67.5951 67.7183L67.5958 68.0533L67.5966 68.3868L67.5974 68.7196V69.0508L67.5981 69.3804L67.5997 69.7085L67.6004 70.0343V70.3585L67.6012 70.6796L67.602 70.9985L67.6035 71.3142V71.6277L66.0047 73.2264H66.004ZM64.406 71.6277H67.6035L67.6012 71.7095L67.5951 71.7913L67.5858 71.8708L67.5711 71.9496L67.5534 72.0268L67.5317 72.1032L67.507 72.1773L67.4777 72.2499L67.446 72.3209L67.4113 72.3896L67.3727 72.4568L67.331 72.5216L67.2863 72.5842L67.2384 72.6444L67.1882 72.7023L67.1357 72.7579L67.0801 72.8111L67.023 72.8613L66.9628 72.9092L66.9003 72.9532L66.8346 72.9949L66.7682 73.0334L66.6995 73.069L66.6285 73.1006L66.5559 73.1292L66.4818 73.1547L66.4062 73.1763L66.329 73.194L66.2502 73.2087L66.1699 73.2187L66.0889 73.2249L66.0063 73.2264L65.9245 73.2249L65.8434 73.2187L65.7631 73.2087L65.6844 73.194L65.6064 73.1763L65.5307 73.1547L65.4566 73.1292L65.3848 73.1006L65.313 73.069L65.2443 73.0334L65.1779 72.9949L65.1123 72.9532L65.049 72.9092L64.9888 72.8613L64.9309 72.8111L64.8753 72.7579L64.822 72.7023L64.7727 72.6444L64.7248 72.5842L64.6808 72.5216L64.6383 72.4568L64.6005 72.3896L64.565 72.3209L64.5341 72.2499L64.5048 72.1773L64.4801 72.1032L64.4584 72.0268L64.4407 71.9496L64.426 71.8708L64.416 71.7913L64.4098 71.7095L64.4075 71.6277H64.406Z" fill="white"/>
<path d="M70.4581 50.2974L67.3114 50.8988L67.2983 50.8177L67.2883 50.7367L67.2837 50.6556L67.2821 50.5761L67.2852 50.4958L67.2929 50.4171L67.303 50.3391L67.3176 50.2619L67.3361 50.1863L67.3585 50.1121L67.384 50.0388L67.4126 49.967L67.4442 49.8968L67.4797 49.828L67.5183 49.7617L67.56 49.6968L67.6048 49.6343L67.6519 49.5741L67.7021 49.5162L67.7553 49.4606L67.8117 49.4073L67.8696 49.3571L67.9313 49.3093L67.9954 49.2645L68.061 49.2228L68.1298 49.1842L68.2008 49.1487L68.2733 49.1163L68.3482 49.0877L68.4247 49.0622L68.5034 49.0406L68.5837 49.0236L68.6655 49.0105L68.7458 49.0012L68.8276 48.9966L68.9072 48.9958L68.9867 48.9989L69.0654 49.0059L69.1434 49.0167L69.2206 49.0314L69.2962 49.0499L69.3704 49.0715L69.4445 49.097L69.5155 49.1255L69.5865 49.158L69.6552 49.1935L69.7216 49.2321L69.7864 49.2738L69.8482 49.3185L69.9092 49.3656L69.9671 49.4166L70.0219 49.4698L70.0752 49.5254L70.1253 49.5841L70.174 49.6459L70.2188 49.7099L70.2604 49.7756L70.2998 49.8443L70.3346 49.9145L70.3662 49.9871L70.3955 50.062L70.4203 50.1384L70.4419 50.2171L70.4588 50.2974H70.4581ZM67.8457 57.3943L66.2407 54.6237L66.3735 54.5387L66.4808 54.46L66.5896 54.3689L66.6807 54.2685L66.7687 54.1643L66.8521 54.0578L66.927 53.9312L67.0003 53.8054L67.0598 53.6679L67.12 53.5267L67.1732 53.3769L67.2211 53.2194L67.2597 53.055L67.2937 52.8913L67.3192 52.7246L67.3423 52.5532L67.3578 52.3934L67.3724 52.2205L67.3817 52.0607L67.3855 51.9078L67.384 51.7457L67.3794 51.6067L67.3717 51.4724L67.3616 51.3512L67.3562 51.2369L67.3439 51.1381L67.3315 51.0547L67.3261 50.9884L67.3145 50.9343L67.3122 50.8988L67.313 50.8911L67.3107 50.898L70.4573 50.2967L70.4596 50.3268L70.4712 50.3839L70.4859 50.4565L70.4967 50.5483L70.5152 50.6657L70.5283 50.7984L70.5399 50.9482L70.5584 51.1134L70.5692 51.2972L70.5762 51.494L70.5808 51.7086L70.5816 51.9217L70.5785 52.1618L70.5692 52.4096L70.5546 52.6582L70.526 52.9307L70.4897 53.2017L70.4403 53.4819L70.3809 53.7706L70.3052 54.0609L70.2188 54.3558L70.1145 54.6561L69.9926 54.9595L69.8451 55.2606L69.6845 55.5616L69.497 55.8511L69.2877 56.146L69.0507 56.4263L68.7836 56.6903L68.5003 56.9443L68.1799 57.1859L67.8457 57.3959V57.3943ZM63.0655 57.4476H59.8563L61.486 55.8488H61.4814L61.4953 55.8434L61.5254 55.8488H61.5763L61.6296 55.8473L61.7045 55.845L61.7863 55.8411L61.882 55.8349L61.9893 55.8272L62.109 55.8172L62.2395 55.811L62.3815 55.7956L62.5328 55.777L62.6888 55.7616L62.8524 55.7361L63.0307 55.7114L63.2099 55.6774L63.3967 55.6442L63.5835 55.6064L63.7827 55.5632L63.9803 55.5145L64.1818 55.4659L64.3887 55.4049L64.5979 55.3439L64.8032 55.2698L65.0101 55.2011L65.2255 55.1193L65.4286 55.0297L65.6385 54.9379L65.8416 54.8383L66.0492 54.7364L66.243 54.626L67.848 57.3967L67.5539 57.558L67.2713 57.7101L66.9802 57.8475L66.6954 57.9764L66.4036 58.0907L66.1264 58.198L65.8439 58.3045L65.5629 58.391L65.2911 58.4767L65.0233 58.5508L64.7585 58.6241L64.4975 58.6859L64.249 58.7415L63.9988 58.7916L63.7626 58.838L63.5325 58.8719L63.3164 58.909L63.1025 58.9345L62.8972 58.963L62.7073 58.9816L62.5282 58.997L62.3599 59.0163L62.2024 59.0263L62.0565 59.0348L61.9237 59.0402L61.8041 59.0441L61.7045 59.0464L61.6126 59.048L61.5493 59.0487L61.4945 59.0549L61.4567 59.0487H61.435L63.0647 57.4499L63.0655 57.4476ZM59.8563 57.4476V55.8179L61.486 55.8488L59.8563 57.4476ZM59.8563 64.1817V57.4476H63.0655V64.1817H59.8563ZM59.8563 64.1817H63.0655L63.0632 64.2643L63.057 64.3454L63.0477 64.4256L63.0331 64.5052L63.0145 64.5824L62.9929 64.6588L62.9674 64.7329L62.9389 64.8055L62.9064 64.8765L62.8709 64.946L62.8323 65.0131L62.7906 65.0788L62.7459 65.1413L62.6988 65.2015L62.6486 65.2594L62.5953 65.315L62.539 65.3682L62.4818 65.4192L62.4217 65.4663L62.3591 65.5111L62.2935 65.5528L62.2263 65.5914L62.1561 65.6261L62.0851 65.6585L62.0117 65.6871L61.9376 65.7126L61.8604 65.7342L61.7832 65.7519L61.7045 65.7666L61.6234 65.7766L61.5423 65.7828L61.459 65.7851L61.3771 65.7828L61.2953 65.7766L61.215 65.7666L61.1355 65.7519L61.0583 65.7342L60.9819 65.7126L60.9078 65.6871L60.8352 65.6585L60.7634 65.6261L60.6939 65.5914L60.6275 65.5528L60.5619 65.5111L60.4994 65.4663L60.4392 65.4192L60.3805 65.3682L60.3249 65.315L60.2716 65.2594L60.2207 65.2015L60.1728 65.1413L60.128 65.0788L60.0864 65.0131L60.0478 64.946L60.013 64.8765L59.9806 64.8055L59.9513 64.7329L59.9266 64.6588L59.9049 64.5824L59.8872 64.5052L59.8725 64.4256L59.8625 64.3454L59.8555 64.2643L59.854 64.1817H59.8563Z" fill="white"/>
<path fill-rule="evenodd" clip-rule="evenodd" d="M25.8484 26.521C41.0419 11.3267 65.6762 11.3267 80.8689 26.521C96.0625 41.7145 96.0625 66.3503 80.8689 81.5438C65.6762 96.7382 41.0419 96.7382 25.8484 81.5438C10.6541 66.3503 10.6541 41.7145 25.8484 26.521ZM31.5681 32.2414C43.6026 20.2061 63.1139 20.2061 75.1485 32.2414C87.183 44.276 87.183 63.7888 75.1485 75.8234C63.1139 87.8587 43.6026 87.8587 31.5681 75.8234C19.5335 63.7881 19.5335 44.276 31.5681 32.2414Z" fill="white"/>
<path fill-rule="evenodd" clip-rule="evenodd" d="M82.0728 82.1056C83.853 80.3261 86.7626 80.3261 88.542 82.1056L96.0327 89.5962C97.8121 91.3757 97.8129 94.2861 96.0327 96.0655V96.0663C94.2532 97.8449 91.3428 97.8449 89.5634 96.0663L82.0728 88.5749C80.2941 86.7962 80.2941 83.885 82.0728 82.1056Z" fill="white"/>
</svg>
