<svg width="77" height="90" viewBox="0 0 77 90" fill="none" xmlns="http://www.w3.org/2000/svg">
<path d="M41.7043 1.87202C42.3538 0.448782 43.5654 0.0473558 44.5726 0.00356387C46.1054 -0.0694227 47.7111 0.988883 49.2219 2.23695C50.2948 3.44853 51.5794 4.38276 53.0683 5.03964C54.0974 5.40457 55.1192 5.47756 56.1556 5.42647C57.6153 5.35348 59.097 5.03234 60.564 4.95935L60.6443 4.95205L61.3085 4.89367C62.9872 4.81338 64.571 5.20751 66.0745 6.07605C67.4539 7.33142 68.0597 8.89333 67.87 10.7764C67.5488 12.331 67.8262 13.7542 68.6947 15.0461C70.1909 16.0971 71.7601 17.0167 73.4096 17.7977C75.1175 18.7319 76.1904 20.1406 76.6575 22.0163C76.8254 24.0016 75.9058 25.2715 73.9205 25.8189C71.3368 26.4685 67.8627 26.4685 64.9359 28.7311C60.6589 32.3001 59.3159 35.8984 57.4548 36.4458C56.5424 35.4094 50.8495 31.0083 41.3028 28.899C39.595 23.0089 38.5585 8.79115 41.7043 1.87202Z" fill="#FFDE6A"/>
<path d="M51.3384 27.6437C53.0171 24.2863 57.7977 18.3817 58.9436 19.5495C60.0749 20.8194 57.4693 27.4174 55.6373 30.6507C54.9877 29.9647 52.893 28.5268 51.9807 28.286" fill="#D19B15"/>
<path d="M59.7828 38.3944C58.7975 38.3944 57.8341 37.8908 57.2867 36.9858C52.2652 28.7237 40.8939 29.5923 40.7844 29.6069C39.1787 29.7382 37.7628 28.5559 37.6241 26.9575C37.5563 26.1886 37.7952 25.4241 38.2888 24.8307C38.7824 24.2373 39.4906 23.8631 40.2589 23.7898C40.872 23.7314 55.3453 22.5418 62.279 33.9642C63.1183 35.3436 62.6731 37.1391 61.301 37.9711C60.8192 38.2558 60.301 38.3944 59.7828 38.3944Z" fill="#8D6E63"/>
<path d="M61.8704 87.0401C49.3678 90.1201 31.9897 89.9011 19.5747 87.4488C7.95521 85.1497 -0.941852 78.2963 0.07996 64.8084C1.11637 51.1599 10.1594 38.3069 22.5963 32.6432C34.6318 27.1619 50.7837 24.4906 59.294 36.9275C61.4106 40.0221 65.454 46.8902 65.6438 50.2621C65.6584 50.5322 65.673 50.773 65.7314 51.0066C65.746 51.8532 66.089 52.7072 66.9211 53.3349C72.271 57.3856 76.1685 62.7574 76.8837 70.1218C77.7304 78.9021 69.4245 85.1789 61.8704 87.0401Z" fill="#FFDE6A"/>
<g clip-path="url(#clip0_29_566)">
<path d="M30.8296 47.2183H47.8198V47.261C46.8166 49.0112 46.2474 49.9504 46.1051 50.0784H41.5872C42.2133 50.9109 42.6331 51.914 42.8536 53.0951H47.6917C47.7486 53.1093 47.7771 53.1378 47.7771 53.1805C46.6956 55.0161 46.1335 55.941 46.1051 55.9553H42.9817C42.9105 56.8873 42.5192 58.0257 41.7935 59.3704C40.8046 60.7222 39.8796 61.5973 38.9974 61.9957C37.361 62.8851 35.7886 63.3333 34.2874 63.3333V63.376C34.2874 63.4969 34.6574 64.0448 35.3973 65.0195L43.7714 76.5028V77.0506C43.7714 77.1005 43.743 77.1289 43.6932 77.1289H40.0006C33.3554 68.3635 30.0399 63.9594 30.0399 63.9167V61.2487L30.0825 61.1419C30.666 61.2415 31.349 61.2914 32.1459 61.2914C35.8527 61.2914 38.165 59.9182 39.0828 57.1861C39.2251 56.7806 39.2891 56.3679 39.2891 55.9553H29.2074C29.1505 55.9553 29.1221 55.9197 29.1221 55.8485C30.232 54.0129 30.8012 53.0951 30.8296 53.0951H38.8551V53.0524C38.3855 51.9994 37.4962 51.1812 36.187 50.5978C35.2408 50.2492 34.3941 50.0784 33.6471 50.0784H29.1648V49.9717C30.2462 48.1361 30.8012 47.2183 30.8296 47.2183Z" fill="#1F1A17"/>
</g>
<defs>
<clipPath id="clip0_29_566">
<rect width="37.3691" height="37.3691" fill="white" transform="translate(19.7861 43.489)"/>
</clipPath>
</defs>
</svg>
