<svg width="208" height="26" viewBox="0 0 208 26" fill="none" xmlns="http://www.w3.org/2000/svg">
<path d="M3.81058 0.0716721V7.38331C5.04234 5.94792 6.51031 5.22554 8.21887 5.22554C9.09852 5.22554 9.88607 5.39218 10.5941 5.7161C11.2983 6.04002 11.8308 6.4573 12.1873 6.96166C12.5438 7.47103 12.7894 8.03114 12.9191 8.64703C13.0538 9.25852 13.1184 10.2171 13.1184 11.509V19.9603H9.30716V12.3473C9.30716 10.838 9.23322 9.87943 9.08975 9.47155C8.94126 9.06431 8.68689 8.74413 8.32099 8.50355C7.9551 8.26296 7.49648 8.14266 6.94575 8.14266C6.31107 8.14266 5.74656 8.29555 5.25098 8.60568C4.751 8.91143 4.38511 9.37443 4.1583 9.9947C3.92711 10.6156 3.8112 11.5322 3.8112 12.7408V19.9597H0V0.0710449H3.8112L3.81058 0.0716721ZM15.8688 12.5516C15.8688 11.2872 16.184 10.0605 16.8043 8.87446C17.4295 7.69345 18.3136 6.78623 19.4576 6.16534C20.6017 5.54005 21.8798 5.22554 23.292 5.22554C25.4686 5.22554 27.2561 5.93414 28.6495 7.35136C30.0435 8.76795 30.7377 10.5561 30.7377 12.7182C30.7377 14.8948 30.0341 16.7005 28.6307 18.1365C27.2229 19.5719 25.4542 20.2855 23.3196 20.2855C21.9951 20.2855 20.7401 19.9892 19.541 19.3914C18.3411 18.7937 17.4295 17.9191 16.8036 16.7656C16.1834 15.6122 15.8682 14.2094 15.8682 12.5516H15.8688ZM19.7772 12.7552C19.7772 14.1862 20.1149 15.2789 20.7959 16.0382C21.4719 16.7976 22.3102 17.1773 23.3058 17.1773C24.3014 17.1773 25.1346 16.7976 25.8063 16.0382C26.4823 15.2789 26.8207 14.1768 26.8207 12.727C26.8207 11.3192 26.4823 10.2315 25.8063 9.47155C25.1346 8.71219 24.3014 8.3325 23.3058 8.3325C22.3102 8.3325 21.4719 8.71219 20.7959 9.47155C20.1149 10.2309 19.7772 11.3286 19.7772 12.7546V12.7552ZM40.0969 5.55447V8.5919H37.4943V14.3986C37.4943 15.5752 37.5175 16.2607 37.5688 16.4549C37.6196 16.6491 37.7311 16.807 37.9065 16.9367C38.0826 17.0614 38.3 17.1265 38.5506 17.1265C38.9071 17.1265 39.4165 17.0012 40.0881 16.7606L40.412 19.7154C39.523 20.0951 38.5224 20.2849 37.3972 20.2849C36.7117 20.2849 36.0915 20.169 35.5401 19.9422C34.9888 19.711 34.5865 19.4096 34.3271 19.0437C34.0678 18.6778 33.8917 18.1822 33.7902 17.5576C33.7113 17.1178 33.6693 16.2193 33.6693 14.8716V8.59252H31.9188V5.55509H33.6693V2.6887L37.4943 0.465764V5.55509H40.0969V5.55447ZM50.8538 15.376L54.6556 16.0107C54.1651 17.4047 53.3963 18.4648 52.3406 19.1922C51.2893 19.924 49.9692 20.2849 48.3859 20.2849C45.8811 20.2849 44.0284 19.4698 42.8242 17.8308C41.875 16.52 41.3982 14.8622 41.3982 12.8667C41.3982 10.4771 42.0235 8.6063 43.274 7.25424C44.5196 5.90218 46.0985 5.22616 48.0069 5.22616C50.1509 5.22616 51.8413 5.93477 53.0818 7.35199C54.3186 8.76858 54.9113 10.9358 54.8599 13.8579H45.3065C45.3341 14.9882 45.6398 15.8678 46.2281 16.4931C46.8165 17.1228 47.5526 17.4379 48.4279 17.4379C49.0256 17.4379 49.5256 17.2756 49.9328 16.9517C50.3401 16.6228 50.6502 16.0996 50.8538 15.3773V15.376ZM51.0719 11.5228C51.0443 10.4157 50.7617 9.57805 50.2198 9.00415C49.6778 8.42962 49.0156 8.14266 48.2381 8.14266C47.4048 8.14266 46.7193 8.44841 46.1774 9.0549C45.6354 9.657 45.3673 10.4809 45.3767 11.5228H51.0725H51.0719ZM57.7351 19.9603V0.0716721H61.5463V19.9603H57.7351Z" fill="#F58634"/>
<path d="M65.1397 3.59967V0.0710449H68.9509V3.59967H65.1397ZM68.9509 5.55383V19.5111C68.9509 21.3493 68.8306 22.6463 68.5944 23.4006C68.3538 24.1556 67.8908 24.7433 67.2097 25.1699C66.5243 25.596 65.6541 25.809 64.5977 25.809C64.218 25.809 63.8058 25.772 63.3703 25.7069C62.9305 25.6373 62.4581 25.5358 61.9531 25.4011L62.6154 22.1457C62.7958 22.1782 62.9675 22.2108 63.1247 22.234C63.282 22.2572 63.4305 22.2666 63.5646 22.2666C63.9536 22.2666 64.2732 22.1833 64.5232 22.0166C64.7731 21.8499 64.9348 21.6463 65.0187 21.4095C65.0977 21.1783 65.139 20.4697 65.139 19.2931V5.55383H68.9502H68.9509ZM71.826 12.5509C71.826 11.2866 72.1412 10.0599 72.7615 8.87383C73.3867 7.69281 74.2708 6.7856 75.4148 6.1647C76.5589 5.53942 77.837 5.2249 79.2492 5.2249C81.4258 5.2249 83.2133 5.93351 84.6073 7.35072C86.0014 8.76731 86.6956 10.5554 86.6956 12.7176C86.6956 14.8942 85.9913 16.6998 84.5885 18.1358C83.1807 19.5712 81.412 20.2849 79.2768 20.2849C77.9523 20.2849 76.6973 19.9885 75.4981 19.3908C74.299 18.7931 73.3867 17.9184 72.7615 16.765C72.1406 15.6116 71.826 14.2087 71.826 12.5509ZM75.735 12.7546C75.735 14.1856 76.0727 15.2782 76.7537 16.0376C77.4298 16.7969 78.268 17.1766 79.2636 17.1766C80.2592 17.1766 81.0925 16.7969 81.7641 16.0376C82.4401 15.2782 82.7785 14.1762 82.7785 12.7264C82.7785 11.3186 82.4408 10.2309 81.7641 9.47091C81.0925 8.71156 80.2592 8.33187 79.2636 8.33187C78.268 8.33187 77.4298 8.71156 76.7537 9.47091C76.0733 10.2303 75.735 11.328 75.735 12.7539V12.7546ZM89.2888 19.9597V0.0710449H93.1V7.23481C94.2766 5.89653 95.6656 5.22553 97.2771 5.22553C99.032 5.22553 100.482 5.86459 101.635 7.13332C102.783 8.40205 103.358 10.2265 103.358 12.6067C103.358 15.0658 102.769 16.9642 101.598 18.2931C100.426 19.622 99.0044 20.2842 97.3328 20.2842C96.5083 20.2842 95.6982 20.0806 94.8969 19.6684C94.0955 19.2561 93.4057 18.6496 92.8268 17.8439V19.9603H89.2888V19.9597ZM93.0724 12.4438C93.0724 13.935 93.3086 15.037 93.776 15.755C94.4383 16.7694 95.3135 17.2737 96.4112 17.2737C97.2495 17.2737 97.9669 16.9122 98.5602 16.1949C99.1529 15.4768 99.4493 14.3422 99.4493 12.7959C99.4493 11.1519 99.1485 9.96212 98.5508 9.23534C97.9581 8.50793 97.1944 8.14265 96.2583 8.14265C95.3461 8.14265 94.5867 8.49915 93.9803 9.20776C93.3738 9.92075 93.073 10.9953 93.073 12.4444L93.0724 12.4438ZM106.029 19.9597V0.0710449H109.84V7.23481C111.016 5.89653 112.405 5.22553 114.017 5.22553C115.772 5.22553 117.222 5.86459 118.375 7.13332C119.523 8.40205 120.097 10.2265 120.097 12.6067C120.097 15.0658 119.509 16.9642 118.338 18.2931C117.166 19.622 115.745 20.2842 114.073 20.2842C113.249 20.2842 112.439 20.0806 111.638 19.6684C110.837 19.2561 110.147 18.6496 109.568 17.8439V19.9603H106.03L106.029 19.9597ZM109.813 12.4438C109.813 13.935 110.049 15.037 110.516 15.755C111.179 16.7694 112.054 17.2737 113.152 17.2737C113.99 17.2737 114.707 16.9122 115.301 16.1949C115.893 15.4768 116.19 14.3422 116.19 12.7959C116.19 11.1519 115.889 9.96212 115.291 9.23534C114.698 8.50793 113.934 8.14265 112.999 8.14265C112.086 8.14265 111.327 8.49915 110.72 9.20776C110.113 9.92075 109.813 10.9953 109.813 12.4444V12.4438ZM131.272 15.3754L135.073 16.01C134.583 17.4041 133.814 18.4642 132.758 19.1916C131.707 19.9234 130.387 20.2842 128.804 20.2842C126.299 20.2842 124.446 19.4691 123.242 17.8301C122.293 16.5194 121.816 14.8616 121.816 12.8661C121.816 10.4765 122.441 8.60567 123.692 7.25361C124.937 5.90155 126.516 5.22553 128.425 5.22553C130.569 5.22553 132.259 5.93413 133.499 7.35135C134.736 8.76794 135.329 10.9351 135.278 13.8573H125.724C125.752 14.9875 126.058 15.8672 126.646 16.4925C127.234 17.1221 127.97 17.4373 128.846 17.4373C129.443 17.4373 129.943 17.275 130.351 16.9511C130.758 16.6222 131.068 16.099 131.272 15.3766V15.3754ZM131.49 11.5222C131.462 10.4151 131.179 9.57741 130.637 9.00351C130.096 8.42898 129.433 8.14203 128.656 8.14203C127.822 8.14203 127.137 8.44778 126.595 9.05426C126.053 9.65636 125.785 10.4803 125.794 11.5222H131.49H131.49ZM141.802 19.9597H137.991V5.55383H141.529V7.60071C142.136 6.63272 142.682 5.99365 143.164 5.6879C143.65 5.38216 144.196 5.2249 144.812 5.2249C145.683 5.2249 146.516 5.46549 147.322 5.9473L146.141 9.26792C145.502 8.85566 144.905 8.64702 144.354 8.64702C143.817 8.64702 143.367 8.79049 142.997 9.08684C142.622 9.37818 142.335 9.91073 142.122 10.6801C141.909 11.4489 141.802 13.0603 141.802 15.5101V19.9603V19.9597ZM147.201 19.9597V16.1485H151.012V19.9597H147.201ZM167.253 9.81363L163.492 10.4897C163.367 9.7397 163.08 9.17456 162.631 8.79488C162.182 8.41521 161.603 8.22536 160.89 8.22536C159.936 8.22536 159.181 8.55429 158.616 9.20713C158.051 9.86499 157.769 10.9621 157.769 12.4996C157.769 14.2087 158.056 15.4173 158.63 16.1209C159.205 16.8251 159.973 17.1766 160.941 17.1766C161.668 17.1766 162.256 16.973 162.719 16.5608C163.182 16.1485 163.506 15.4399 163.696 14.4399L167.443 15.0746C167.053 16.7926 166.303 18.0939 165.201 18.9691C164.099 19.8488 162.621 20.2842 160.764 20.2842C158.657 20.2842 156.976 19.622 155.726 18.2931C154.471 16.9642 153.846 15.121 153.846 12.7683C153.846 10.3932 154.476 8.54051 155.731 7.21602C156.99 5.88715 158.69 5.2249 160.834 5.2249C162.589 5.2249 163.983 5.60457 165.02 6.35954C166.052 7.11452 166.798 8.26734 167.252 9.81425L167.253 9.81363ZM169.026 12.5503C169.026 11.286 169.341 10.0592 169.961 8.8732C170.587 7.69219 171.471 6.78497 172.615 6.16407C173.759 5.53879 175.037 5.22428 176.449 5.22428C178.626 5.22428 180.413 5.93288 181.807 7.3501C183.201 8.76669 183.895 10.5548 183.895 12.717C183.895 14.8935 183.191 16.6992 181.788 18.1352C180.38 19.5706 178.612 20.2842 176.477 20.2842C175.152 20.2842 173.897 19.9879 172.698 19.3902C171.498 18.7925 170.587 17.9178 169.961 16.7644C169.34 15.6109 169.026 14.2081 169.026 12.5503ZM172.934 12.7539C172.934 14.1849 173.272 15.2776 173.953 16.037C174.629 16.7963 175.467 17.176 176.463 17.176C177.458 17.176 178.292 16.7963 178.963 16.037C179.639 15.2776 179.978 14.1755 179.978 12.7257C179.978 11.3179 179.64 10.2303 178.963 9.47029C178.292 8.71093 177.458 8.33124 176.463 8.33124C175.467 8.33124 174.629 8.71093 173.953 9.47029C173.272 10.2296 172.934 11.3273 172.934 12.7533V12.7539ZM186.363 5.55321H189.878V7.51612C191.133 5.98801 192.634 5.22428 194.37 5.22428C195.291 5.22428 196.093 5.4141 196.768 5.79378C197.449 6.17346 198.005 6.74737 198.44 7.51612C199.07 6.74737 199.755 6.17346 200.487 5.79378C201.218 5.4141 202.001 5.22428 202.834 5.22428C203.89 5.22428 204.788 5.44167 205.52 5.87273C206.252 6.29877 206.798 6.93346 207.16 7.76236C207.424 8.37824 207.553 9.3738 207.553 10.749V19.9597H203.742V11.7264C203.742 10.2954 203.612 9.37442 203.349 8.95715C202.996 8.4152 202.455 8.14203 201.723 8.14203C201.186 8.14203 200.686 8.3043 200.214 8.63261C199.746 8.95652 199.408 9.43395 199.2 10.0636C198.991 10.6933 198.885 11.6845 198.885 13.0409V19.9591H195.073V12.0635C195.073 10.6607 195.004 9.75723 194.87 9.34998C194.736 8.94211 194.523 8.64138 194.24 8.44214C193.953 8.2429 193.568 8.1414 193.078 8.1414C192.489 8.1414 191.962 8.29867 191.494 8.6182C191.022 8.93334 190.683 9.39197 190.48 9.98906C190.276 10.5868 190.174 11.5729 190.174 12.9576V19.9591H186.363V5.55321H186.363Z" fill="#17A5E1"/>
</svg>
