<svg width="230" height="40" viewBox="0 0 230 40" fill="none" xmlns="http://www.w3.org/2000/svg">
<path fill-rule="evenodd" clip-rule="evenodd" d="M7.65004 1H32.35C36.0075 1 39 3.99248 39 7.65004V32.35C39 36.0075 36.0075 39 32.35 39H7.65004C3.99248 39 1 36.0075 1 32.35V7.65004C1 3.99248 3.99248 1 7.65004 1Z" fill="#00A3DC" stroke="white" stroke-width="0.8041"/>
<path fill-rule="evenodd" clip-rule="evenodd" d="M20.9119 8.59717C27.712 8.59717 33.2266 14.112 33.2266 20.9122C33.2266 27.7127 27.712 33.2273 20.9119 33.2273C14.1122 33.2273 8.59766 27.7127 8.59766 20.9122C8.59766 14.112 14.1122 8.59717 20.9119 8.59717Z" fill="#E77817"/>
<path d="M14.5554 26.2782L15.1278 25.7078H24.5109V26.8486H15.1278L14.5554 26.2782ZM15.1278 25.7078V26.8486L15.0986 26.8479L15.0697 26.8456L15.0412 26.8421L15.0131 26.837L14.9856 26.8306L14.9581 26.823L14.932 26.814L14.9058 26.8037L14.8807 26.7924L14.8561 26.7797L14.8321 26.766L14.8092 26.7512L14.7867 26.7354L14.7651 26.7183L14.7442 26.7005L14.7247 26.6816L14.7056 26.6617L14.6877 26.6411L14.6709 26.6196L14.655 26.5971L14.6401 26.5739L14.6264 26.5501L14.6137 26.5255L14.6025 26.5002L14.5922 26.4743L14.5831 26.4479L14.5755 26.4207L14.5691 26.3931L14.5641 26.365L14.5604 26.3366L14.5582 26.3075L14.5576 26.2782L14.5582 26.2489L14.5604 26.2199L14.5641 26.1914L14.5691 26.1633L14.5755 26.1358L14.5831 26.1086L14.5922 26.0822L14.6025 26.0562L14.6137 26.0309L14.6264 26.0063L14.6401 25.9825L14.655 25.9594L14.6709 25.9369L14.6877 25.9154L14.7056 25.8946L14.7247 25.8749L14.7442 25.8559L14.7651 25.8381L14.7867 25.8211L14.8092 25.8052L14.8321 25.7903L14.8561 25.7768L14.8807 25.764L14.9058 25.7527L14.932 25.7425L14.9581 25.7334L14.9856 25.7258L15.0131 25.7195L15.0412 25.7143L15.0697 25.7109L15.0986 25.7085L15.1278 25.7078ZM15.1213 21.98L15.7005 22.5504V26.2782H14.5554V22.5504L15.1213 21.98ZM15.7005 22.5504H14.5554L14.556 22.5209L14.5584 22.492L14.5621 22.4634L14.5669 22.4351L14.5733 22.4074L14.5812 22.3802L14.5901 22.3538L14.6005 22.3277L14.6119 22.3023L14.6244 22.2775L14.6382 22.2537L14.6532 22.2304L14.6692 22.2079L14.6863 22.1864L14.7043 22.1656L14.7231 22.1457L14.743 22.1268L14.7637 22.1087L14.7854 22.0918L14.8079 22.0757L14.8311 22.0609L14.8551 22.047L14.8798 22.0346L14.9052 22.0231L14.9311 22.0128L14.9578 22.0038L14.9848 21.996L15.0123 21.9897L15.0409 21.9845L15.0693 21.981L15.0983 21.9786L15.1278 21.978L15.1575 21.9786L15.1865 21.981L15.2151 21.9845L15.2432 21.9897L15.2709 21.996L15.298 22.0038L15.3245 22.0128L15.3505 22.0231L15.376 22.0346L15.4007 22.047L15.4248 22.0609L15.4481 22.0757L15.4705 22.0918L15.4921 22.1087L15.5126 22.1268L15.5328 22.1457L15.5514 22.1656L15.5695 22.1864L15.5864 22.2079L15.6025 22.2304L15.6173 22.2537L15.6312 22.2775L15.6439 22.3023L15.6554 22.3277L15.6655 22.3538L15.6747 22.3802L15.6824 22.4074L15.6888 22.4351L15.6939 22.4634L15.6975 22.492L15.6995 22.5209L15.7005 22.5504ZM11.1088 18.2868L12.2495 18.3359L12.2428 18.6963L12.2569 19.0275L12.2865 19.3327L12.3343 19.6149L12.3945 19.8728L12.4658 20.1068L12.5494 20.3227L12.6435 20.5187L12.7467 20.6957L12.8556 20.8569L12.9709 21.0028L13.0938 21.1366L13.2205 21.2568L13.3521 21.3644L13.4864 21.46L13.623 21.5467L13.7624 21.6232L13.9007 21.6922L14.0373 21.7505L14.1722 21.8008L14.3047 21.8417L14.433 21.8784L14.5537 21.9075L14.6651 21.9297L14.7686 21.9458L14.8627 21.9586L14.9436 21.9693L15.0123 21.9737L15.0649 21.9777L15.1029 21.9796L15.1217 21.98H15.1213L15.1345 23.1209H15.113L15.0712 23.1203L15.0114 23.1186L14.9318 23.1145L14.836 23.1055L14.7239 23.0947L14.5986 23.0774L14.4595 23.0524L14.3077 23.0213L14.1465 22.9832L13.9779 22.9375L13.8011 22.8787L13.6168 22.8107L13.4268 22.7301L13.2346 22.6385L13.0415 22.5308L12.8469 22.4082L12.6542 22.268L12.4647 22.1112L12.2799 21.9373L12.1031 21.7452L11.934 21.5323L11.776 21.2996L11.6325 21.0465L11.5027 20.7745L11.3879 20.4826L11.2895 20.1681L11.2114 19.8341L11.1547 19.4804L11.1161 19.1036L11.1021 18.7052L11.1088 18.2868ZM17.3248 15.5871L18.3848 16.0074L17.4076 16.1528L17.3445 16.0821L17.2558 16.0038L17.1476 15.9256L17.0167 15.8456L16.8675 15.7693L16.7011 15.6993L16.5216 15.6345L16.326 15.5775L16.1222 15.5291L15.9079 15.4923L15.6866 15.4631L15.4624 15.4472L15.2317 15.4424L15.0016 15.452L14.7729 15.4745L14.5474 15.5082L14.3243 15.5584L14.1078 15.6215L13.8966 15.6976L13.6954 15.7904L13.503 15.8978L13.3227 16.0185L13.1527 16.1578L12.9939 16.3115L12.8458 16.4853L12.712 16.6773L12.5923 16.8881L12.4879 17.1257L12.3985 17.3857L12.3272 17.6738L12.2789 17.9904L12.2495 18.3359L11.1088 18.2868L11.1427 17.856L11.2092 17.4501L11.3025 17.0682L11.4237 16.7097L11.5725 16.3783L11.746 16.0689L11.9424 15.7875L12.1574 15.5332L12.3925 15.3033L12.643 15.1015L12.9078 14.9227L13.1811 14.7704L13.4629 14.6421L13.7499 14.5345L14.0427 14.4492L14.3371 14.3855L14.6342 14.3382L14.93 14.3112L15.2229 14.3017L15.5115 14.3065L15.7982 14.327L16.078 14.3607L16.3504 14.4109L16.6166 14.4728L16.8703 14.5476L17.1171 14.6349L17.3507 14.7359L17.5713 14.848L17.7783 14.9728L17.9714 15.1137L18.1452 15.268L18.3023 15.4416L17.3248 15.5871ZM17.4076 16.1528L18.3023 15.4416L18.3198 15.4651L18.3365 15.4892L18.3513 15.5137L18.3647 15.5389L18.377 15.5646L18.3879 15.5906L18.3974 15.6169L18.4053 15.6437L18.4123 15.6704L18.4177 15.6976L18.422 15.7249L18.4245 15.7523L18.4263 15.7798L18.4264 15.8073L18.4252 15.8347L18.4225 15.8621L18.4188 15.8891L18.4137 15.9161L18.4073 15.9429L18.3997 15.9694L18.391 15.9954L18.3806 16.021L18.3693 16.0462L18.3568 16.0711L18.3428 16.0952L18.3276 16.1188L18.311 16.1418L18.2934 16.1638L18.2746 16.1852L18.2543 16.2058L18.2331 16.2257L18.2104 16.2445L18.187 16.2622L18.1631 16.2787L18.1385 16.2935L18.1132 16.3071L18.0876 16.3193L18.0616 16.3301L18.0351 16.3396L18.0084 16.3478L17.9817 16.3545L17.9543 16.36L17.9273 16.3642L17.8997 16.3668L17.8723 16.3685L17.8449 16.3687L17.8174 16.3674L17.7901 16.365L17.7629 16.3612L17.7358 16.3561L17.7092 16.3497L17.6827 16.3421L17.6567 16.3333L17.6311 16.323L17.6058 16.3115L17.581 16.2991L17.557 16.2851L17.5335 16.2698L17.5103 16.2534L17.4883 16.2358L17.4668 16.2168L17.4462 16.1967L17.4266 16.1755L17.4076 16.1528ZM21.3872 15.4752L22.1966 16.2804L21.349 16.2378L21.199 16.0659L21.0528 15.9172L20.9112 15.7908L20.7717 15.6855L20.6348 15.5957L20.5062 15.5251L20.3782 15.4701L20.2543 15.4277L20.1348 15.3966L20.0156 15.3756L19.9014 15.3664L19.7836 15.3654L19.6716 15.3736L19.559 15.3902L19.4506 15.4117L19.3402 15.4416L19.2352 15.4791L19.1332 15.5204L19.0325 15.5647L18.9381 15.6155L18.8456 15.6671L18.7602 15.7231L18.6799 15.7778L18.6074 15.8324L18.5408 15.886L18.4826 15.9372L18.435 15.9831L18.3951 16.0245L18.3665 16.0561L18.3525 16.0725L18.3557 16.0678L18.3848 16.0074L17.3247 15.5871L17.385 15.4682L17.4399 15.388L17.4987 15.3138L17.5628 15.2418L17.6343 15.169L17.7176 15.092L17.8073 15.0138L17.905 14.9334L18.0137 14.8519L18.1296 14.7704L18.2553 14.6921L18.3879 14.6136L18.5318 14.5403L18.6816 14.4691L18.8417 14.4055L19.0093 14.3503L19.1823 14.3023L19.3667 14.2628L19.5551 14.2373L19.752 14.2246L19.9506 14.2257L20.1589 14.2441L20.3675 14.2784L20.5811 14.3317L20.7942 14.4056L21.0068 14.5008L21.2211 14.6161L21.4292 14.7505L21.6359 14.9095L21.8402 15.0896L22.0401 15.292L22.2347 15.5178L21.3872 15.4752ZM21.349 16.2378L22.2347 15.5178L22.2527 15.5411L22.269 15.5649L22.2843 15.5893L22.2982 15.6143L22.3107 15.6398L22.3217 15.6656L22.3315 15.6919L22.3399 15.7184L22.347 15.7452L22.3528 15.7722L22.357 15.7995L22.3602 15.8267L22.362 15.8541L22.3627 15.8815L22.3618 15.909L22.3595 15.9363L22.356 15.9634L22.3514 15.9904L22.3452 16.0171L22.3377 16.0436L22.3293 16.0698L22.3194 16.0956L22.3085 16.1208L22.2959 16.1455L22.2822 16.1699L22.2673 16.1937L22.2512 16.2167L22.2337 16.2391L22.2153 16.2607L22.1954 16.2815L22.1741 16.3015L22.1518 16.3205L22.1287 16.3386L22.1046 16.355L22.0802 16.3702L22.0553 16.3842L22.0299 16.3965L22.0041 16.4077L21.9779 16.4175L21.9514 16.4259L21.9245 16.433L21.8973 16.4388L21.8703 16.4431L21.8429 16.4462L21.8157 16.448L21.7881 16.4486L21.7608 16.4476L21.7335 16.4453L21.7065 16.442L21.6792 16.4372L21.6525 16.4312L21.6262 16.4238L21.5999 16.4153L21.5742 16.4054L21.5487 16.3943L21.524 16.3819L21.4996 16.3682L21.476 16.3533L21.4531 16.3372L21.4307 16.3197L21.409 16.3011L21.3883 16.2813L21.3681 16.2601L21.349 16.2378ZM23.9925 14.3214L23.9973 15.4623L23.9118 15.4658L23.8256 15.4725L23.7393 15.4842L23.6524 15.4981L23.5699 15.5165L23.4852 15.5365L23.4027 15.5619L23.32 15.5887L23.2403 15.6182L23.1607 15.6502L23.0841 15.6843L23.0106 15.72L22.9379 15.7573L22.8658 15.7954L22.7971 15.8344L22.7323 15.8735L22.6709 15.9128L22.6109 15.9539L22.5546 15.992L22.5003 16.0291L22.4525 16.0667L22.4066 16.1006L22.365 16.1343L22.3279 16.1634L22.2934 16.192L22.2656 16.2193L22.2406 16.2386L22.223 16.2562L22.2082 16.2697L22.1992 16.2784L22.1929 16.2843L22.1966 16.2804L21.3872 15.4752L21.3967 15.4656L21.4074 15.4553L21.4256 15.4375L21.4491 15.4152L21.4802 15.3888L21.5142 15.356L21.5551 15.324L21.5988 15.2867L21.649 15.2441L21.704 15.2015L21.7633 15.1543L21.8295 15.1075L21.8971 15.057L21.9713 15.0057L22.049 14.9555L22.1329 14.9028L22.2202 14.8502L22.3111 14.7978L22.4055 14.7462L22.5052 14.6955L22.61 14.6464L22.718 14.5988L22.8288 14.5538L22.9444 14.5107L23.0624 14.4706L23.1853 14.436L23.3104 14.4026L23.4423 14.3754L23.574 14.3525L23.7095 14.3363L23.8492 14.325L23.9925 14.3214ZM28.3882 18.7338H27.2473L27.2393 18.4461L27.219 18.1777L27.187 17.9285L27.1424 17.6961L27.0899 17.4815L27.0286 17.2848L26.9583 17.1008L26.8801 16.9311L26.7951 16.7757L26.7037 16.6336L26.6066 16.5025L26.5048 16.3817L26.3982 16.2706L26.2863 16.169L26.1716 16.0759L26.0499 15.9917L25.925 15.9149L25.7974 15.8437L25.6672 15.7815L25.5337 15.7235L25.3995 15.676L25.2628 15.6317L25.127 15.5924L24.9904 15.5621L24.8558 15.5337L24.7221 15.513L24.5916 15.4957L24.4635 15.4808L24.3382 15.4727L24.2208 15.4659L24.1075 15.4626L23.9973 15.4623L23.9925 14.3214L24.1212 14.3219L24.2612 14.3252L24.4096 14.3319L24.5618 14.3446L24.7214 14.3595L24.8875 14.3814L25.0569 14.4109L25.2318 14.4439L25.4086 14.4876L25.5893 14.5359L25.7708 14.5935L25.9542 14.6633L26.1371 14.7393L26.3205 14.8284L26.502 14.9265L26.6806 15.039L26.8557 15.1636L27.0288 15.301L27.1945 15.4519L27.3545 15.6168L27.5055 15.7958L27.6476 15.9895L27.7793 16.1988L27.9 16.4214L28.0094 16.6578L28.1063 16.909L28.1905 17.1775L28.2606 17.4589L28.3145 17.7542L28.3551 18.066L28.3799 18.3923L28.3882 18.7338ZM25.0732 22.5282H23.9324L24.5341 21.9578L24.5302 21.9581L24.5468 21.9591L24.5807 21.9592L24.63 21.9581L24.6898 21.9552L24.7649 21.9491L24.848 21.9419L24.9414 21.93L25.0429 21.9127L25.1529 21.8919L25.2676 21.8663L25.3888 21.8329L25.5122 21.7909L25.6371 21.7444L25.7646 21.6877L25.8908 21.6246L26.0175 21.5497L26.1403 21.467L26.2626 21.3755L26.3817 21.272L26.4956 21.156L26.6036 21.0264L26.7085 20.8828L26.8074 20.7263L26.8984 20.5495L26.983 20.3558L27.0576 20.1427L27.1208 19.909L27.1743 19.6521L27.2139 19.3728L27.2386 19.0663L27.2473 18.7338H28.3882L28.3795 19.1243L28.3499 19.4937L28.3017 19.8443L28.2348 20.1731L28.149 20.4828L28.0474 20.772L27.9316 21.0415L27.8003 21.2898L27.6566 21.5223L27.5025 21.7331L27.3367 21.9253L27.1643 22.0996L26.9873 22.2567L26.8064 22.3973L26.6212 22.5204L26.4367 22.6264L26.252 22.7211L26.071 22.8L25.8925 22.8688L25.7195 22.9242L25.5539 22.971L25.3944 23.01L25.244 23.0401L25.1026 23.0617L24.9731 23.078L24.8543 23.09L24.7521 23.0959L24.6613 23.099L24.5896 23.1L24.5333 23.0998L24.4944 23.099L24.4716 23.0986L25.0732 22.5282ZM24.5341 21.9578L24.4716 23.0986L24.4421 23.0962L24.4133 23.0924L24.3852 23.0872L24.3573 23.0807L24.3299 23.0728L24.3032 23.0637L24.2774 23.0533L24.252 23.0417L24.2273 23.0288L24.2035 23.0148L24.1804 22.9997L24.158 22.9837L24.1366 22.9666L24.116 22.9485L24.0965 22.9294L24.0775 22.9094L24.0596 22.8886L24.043 22.8668L24.0273 22.8444L24.0125 22.8213L23.9989 22.7972L23.9865 22.7727L23.9752 22.7473L23.9653 22.7214L23.9564 22.6949L23.949 22.668L23.9428 22.6404L23.9377 22.6125L23.9344 22.5841L23.9322 22.5554L23.9316 22.5263L23.9324 22.4969L23.9347 22.4676L23.9386 22.4388L23.9439 22.4105L23.9504 22.3826L23.9582 22.3553L23.9673 22.3286L23.9779 22.3027L23.9894 22.2774L24.0024 22.2528L24.0164 22.2287L24.0314 22.2058L24.0475 22.1833L24.0646 22.162L24.0826 22.1412L24.1016 22.1216L24.1215 22.1028L24.1426 22.0851L24.1641 22.0683L24.1866 22.0526L24.2099 22.0379L24.2337 22.0243L24.2584 22.0117L24.2837 22.0006L24.3096 21.9905L24.3363 21.9817L24.363 21.9743L24.3907 21.9681L24.4186 21.9631L24.4471 21.9595L24.4755 21.9577L24.5049 21.9569L24.5341 21.9578ZM24.5109 26.8486V25.7078L23.9407 26.2782L23.9406 26.1665L23.94 26.0537L23.9398 25.9399L23.9397 25.8253L23.9395 25.7096L23.9389 25.5933L23.9387 25.4762L23.9386 25.3587L23.9384 25.2405L23.9379 25.1217L23.9377 25.0028L23.9375 24.8833L23.9373 24.7635L23.9372 24.6434L23.9367 24.5234L23.9364 24.4032V24.283L23.9361 24.163L23.9358 24.043L23.9355 23.9232V23.8037L23.9353 23.6847L23.9347 23.5659L23.9345 23.4476L23.9344 23.3301L23.9342 23.2131L23.9336 23.0968L23.9335 22.9812L23.9333 22.8665L23.9331 22.7526L23.9325 22.6399L23.9324 22.5282H25.0732L25.0735 22.6399L25.0738 22.7526V22.8665L25.0742 22.9812L25.0746 23.0968L25.0749 23.2131V23.3301L25.0752 23.4476L25.0757 23.5659L25.076 23.6847V23.8037L25.0761 23.9232L25.0766 24.043L25.0768 24.163L25.0771 24.283L25.0772 24.4032L25.0774 24.5234L25.0779 24.6434L25.078 24.7635L25.0783 24.8833L25.0785 25.0028L25.0788 25.1217L25.0791 25.2405V25.3587L25.0794 25.4762L25.0799 25.5933L25.0802 25.7096V25.8253L25.0805 25.9399L25.0809 26.0537L25.0813 26.1665V26.2782L24.5109 26.8486ZM23.9407 26.2782H25.0813L25.0805 26.3075L25.0783 26.3366L25.0749 26.365L25.0696 26.3931L25.0632 26.4207L25.0556 26.4479L25.0468 26.4743L25.0364 26.5002L25.025 26.5255L25.0125 26.5501L24.9989 26.5739L24.984 26.5971L24.968 26.6196L24.951 26.6411L24.9332 26.6617L24.9144 26.6816L24.8945 26.7005L24.874 26.7183L24.8524 26.7354L24.83 26.7512L24.8065 26.766L24.7829 26.7797L24.7583 26.7924L24.7329 26.8037L24.7071 26.814L24.6806 26.823L24.6536 26.8306L24.626 26.837L24.5978 26.8421L24.5692 26.8456L24.5404 26.8479L24.5109 26.8486L24.4817 26.8479L24.4528 26.8456L24.4241 26.8421L24.3962 26.837L24.3684 26.8306L24.3414 26.823L24.3148 26.814L24.289 26.8037L24.2637 26.7924L24.2391 26.7797L24.2154 26.766L24.1921 26.7512L24.1696 26.7354L24.1482 26.7183L24.1275 26.7005L24.1075 26.6816L24.0887 26.6617L24.071 26.6411L24.054 26.6196L24.0381 26.5971L24.0231 26.5739L24.0094 26.5501L23.9967 26.5255L23.9856 26.5002L23.9752 26.4743L23.9664 26.4479L23.9588 26.4207L23.9524 26.3931L23.9473 26.365L23.9437 26.3366L23.9414 26.3075L23.9407 26.2782Z" fill="white"/>
<path d="M26.1 18.6703L24.9775 18.8849L24.9727 18.8559L24.9693 18.827L24.9676 18.7982L24.9671 18.7697L24.9682 18.7412L24.9708 18.7132L24.9746 18.6854L24.9797 18.658L24.9862 18.631L24.9942 18.6044L25.0032 18.5783L25.0134 18.5528L25.0248 18.5277L25.0373 18.5034L25.0512 18.4796L25.0661 18.4565L25.082 18.4342L25.0989 18.4126L25.1168 18.392L25.1359 18.3722L25.1561 18.3531L25.1768 18.3352L25.1987 18.3181L25.2214 18.3021L25.245 18.2872L25.2694 18.2734L25.2946 18.2608L25.3207 18.2493L25.3473 18.2391L25.3747 18.23L25.4028 18.2224L25.4316 18.2162L25.4606 18.2115L25.4894 18.2081L25.5184 18.2064L25.5468 18.2061L25.5751 18.207L25.6032 18.2095L25.631 18.2134L25.6584 18.2185L25.6854 18.2251L25.712 18.2328L25.7383 18.2419L25.7636 18.2521L25.7888 18.2636L25.8132 18.2762L25.8369 18.29L25.8601 18.3048L25.8822 18.3208L25.9039 18.3377L25.9246 18.3558L25.9442 18.3749L25.9633 18.3948L25.9811 18.4156L25.9983 18.4375L26.0143 18.4604L26.0292 18.4838L26.0432 18.5082L26.0557 18.5334L26.067 18.5593L26.0775 18.5861L26.0862 18.6134L26.094 18.6416L26.1 18.6703ZM25.1681 21.202L24.5956 20.2136L24.643 20.1834L24.6813 20.1554L24.72 20.1229L24.7524 20.0871L24.7839 20.0498L24.8137 20.0117L24.8404 19.9665L24.8666 19.9216L24.8877 19.8726L24.9092 19.8222L24.9283 19.7689L24.9454 19.7127L24.9592 19.6542L24.9713 19.5958L24.9805 19.5363L24.9889 19.4753L24.9943 19.4183L24.9996 19.3568L25.003 19.2997L25.0043 19.2453L25.0038 19.1875L25.0021 19.1378L24.9993 19.0899L24.9956 19.0467L24.9937 19.0058L24.9892 18.9704L24.9848 18.9406L24.9828 18.9169L24.9788 18.8977L24.9779 18.8851L24.9783 18.8823L24.9775 18.8849L26.1 18.6703L26.101 18.6812L26.1052 18.7017L26.1105 18.7277L26.1143 18.7603L26.1209 18.8021L26.1255 18.8495L26.1297 18.903L26.1363 18.9619L26.1402 19.0274L26.1428 19.0976L26.1446 19.1741L26.1448 19.25L26.1437 19.3355L26.1403 19.4239L26.135 19.5124L26.1248 19.6096L26.1119 19.7063L26.0943 19.8062L26.073 19.9091L26.046 20.0125L26.0152 20.1178L25.9779 20.2249L25.9344 20.3332L25.8817 20.4406L25.8243 20.548L25.7575 20.6512L25.6828 20.7564L25.5981 20.8562L25.5027 20.9505L25.4015 21.041L25.2872 21.1272L25.1681 21.202ZM23.4628 21.2211H22.3179L22.8993 20.6507H22.8976L22.9025 20.6487L22.9131 20.6507L22.9313 20.6506L22.9504 20.65L22.9771 20.6492L23.0064 20.6477L23.0404 20.6456L23.0788 20.6428L23.1215 20.6392L23.168 20.6369L23.2188 20.6313L23.2726 20.6245L23.3282 20.6189L23.3866 20.6097L23.4501 20.6009L23.5141 20.5887L23.5807 20.5768L23.6474 20.5634L23.7184 20.5479L23.7887 20.5305L23.8605 20.5132L23.9342 20.4915L24.0088 20.4697L24.082 20.4434L24.1559 20.4188L24.2325 20.3895L24.3052 20.3575L24.38 20.3248L24.4523 20.2893L24.5265 20.253L24.5956 20.2136L25.1681 21.202L25.063 21.2595L24.9623 21.3137L24.8586 21.3627L24.757 21.4088L24.6529 21.4496L24.5541 21.4878L24.4534 21.5259L24.3531 21.5568L24.256 21.5873L24.1604 21.6137L24.0661 21.6398L23.9731 21.6617L23.8844 21.6816L23.7952 21.6996L23.711 21.716L23.6289 21.7282L23.5519 21.7413L23.4757 21.7505L23.4025 21.7607L23.3349 21.7674L23.2709 21.7731L23.2107 21.78L23.1548 21.7835L23.1027 21.7864L23.0555 21.7885L23.0129 21.7899L22.9773 21.7907L22.9446 21.7913L22.922 21.7915L22.9025 21.7938L22.8889 21.7915H22.8813L23.4628 21.2211ZM22.3179 21.2211V20.6396L22.8993 20.6507L22.3179 21.2211ZM22.3179 23.6234V21.2211H23.4628V23.6234H22.3179ZM22.3179 23.6234H23.4628L23.462 23.6529L23.4597 23.6819L23.4563 23.7105L23.4512 23.7388L23.4446 23.7664L23.437 23.7937L23.4278 23.8201L23.4177 23.8461L23.4062 23.8715L23.3935 23.8963L23.3798 23.9202L23.3649 23.9435L23.3489 23.9659L23.3321 23.9875L23.314 24.0082L23.2951 24.0282L23.2749 24.047L23.2544 24.0651L23.2329 24.0821L23.2104 24.0981L23.1871 24.113L23.1632 24.1268L23.1383 24.1393L23.113 24.1508L23.0869 24.1611L23.0606 24.1701L23.0331 24.1779L23.0056 24.1842L22.9775 24.1894L22.9487 24.1929L22.9198 24.1951L22.8901 24.1959L22.8609 24.1951L22.8318 24.1929L22.8032 24.1894L22.7748 24.1842L22.7473 24.1779L22.72 24.1701L22.6934 24.1611L22.6676 24.1508L22.6421 24.1393L22.6172 24.1268L22.5936 24.113L22.5703 24.0981L22.5478 24.0821L22.5263 24.0651L22.5054 24.047L22.4856 24.0282L22.4667 24.0082L22.4485 23.9875L22.4315 23.9659L22.4155 23.9435L22.4006 23.9202L22.3868 23.8963L22.3745 23.8715L22.363 23.8461L22.3525 23.8201L22.3437 23.7937L22.3359 23.7664L22.3295 23.7388L22.3244 23.7105L22.3209 23.6819L22.3184 23.6529L22.3179 23.6234Z" fill="white"/>
<path fill-rule="evenodd" clip-rule="evenodd" d="M10.1863 10.1859C15.6063 4.7655 24.3941 4.7655 29.814 10.1859C35.234 15.6061 35.234 24.3943 29.814 29.8144C24.3941 35.2349 15.6062 35.2349 10.1863 29.8144C4.76602 24.3943 4.76602 15.6061 10.1863 10.1859ZM12.2268 12.2265C16.5199 7.93309 23.4803 7.93309 27.7735 12.2265C32.0665 16.5197 32.0665 23.4805 27.7735 27.7738C23.4803 32.0672 16.5199 32.0672 12.2268 27.7738C7.93372 23.4805 7.93372 16.5197 12.2268 12.2265Z" fill="white"/>
<path fill-rule="evenodd" clip-rule="evenodd" d="M30.2434 30.0175H30.2436C30.8785 29.3828 31.9165 29.3828 32.5512 30.0175L35.2234 32.6897C35.8582 33.3244 35.8583 34.3627 35.2234 34.9974V34.9976C34.5887 35.6321 33.5504 35.6321 32.9156 34.9976L30.2434 32.3252C29.609 31.6907 29.609 30.6522 30.2434 30.0175Z" fill="white"/>
<path d="M49.3212 11.3994V17.8511C50.4081 16.5844 51.7033 15.947 53.211 15.947C53.9874 15.947 54.682 16.0941 55.3071 16.3802C55.9282 16.6662 56.398 17.034 56.7127 17.4793C57.0273 17.9288 57.2438 18.4231 57.3582 18.9666C57.4767 19.5059 57.534 20.3517 57.534 21.4917V28.9485H54.1712V22.2312C54.1712 20.8993 54.1059 20.0534 53.9792 19.6938C53.8485 19.3343 53.6237 19.0524 53.3009 18.8399C52.9781 18.6275 52.5736 18.5212 52.0874 18.5212C51.5277 18.5212 51.0291 18.656 50.592 18.9297C50.1507 19.1995 49.8279 19.608 49.6276 20.1556C49.4234 20.7031 49.3212 21.5121 49.3212 22.5785V28.9485H45.9585V11.3994H49.3212ZM59.9609 22.411C59.9609 21.2955 60.2388 20.2127 60.7864 19.1668C61.3379 18.1248 62.1183 17.324 63.1276 16.7765C64.1368 16.2249 65.2646 15.947 66.5107 15.947C68.4311 15.947 70.0083 16.5722 71.2382 17.8225C72.468 19.0728 73.0809 20.65 73.0809 22.5581C73.0809 24.4785 72.4599 26.072 71.2218 27.3386C69.9797 28.6052 68.4188 29.2345 66.5353 29.2345C65.3667 29.2345 64.2594 28.973 63.2012 28.446C62.1429 27.9188 61.3379 27.1466 60.7864 26.1292C60.2388 25.1118 59.9609 23.8737 59.9609 22.411ZM63.4096 22.5908C63.4096 23.8534 63.7078 24.8176 64.3084 25.4877C64.9049 26.1578 65.6445 26.4928 66.523 26.4928C67.4015 26.4928 68.1369 26.1578 68.7294 25.4877C69.3259 24.8176 69.6242 23.8451 69.6242 22.5663C69.6242 21.3242 69.3259 20.364 68.7294 19.6938C68.1369 19.0237 67.4015 18.6887 66.523 18.6887C65.6445 18.6887 64.9049 19.0237 64.3084 19.6938C63.7078 20.364 63.4096 21.3323 63.4096 22.5908ZM81.3386 16.2372V18.9175H79.0423V24.0413C79.0423 25.0791 79.0628 25.6839 79.1076 25.8554C79.1526 26.027 79.2506 26.166 79.4059 26.2804C79.5612 26.3907 79.7532 26.4479 79.9738 26.4479C80.2885 26.4479 80.7379 26.3376 81.3304 26.1251L81.6164 28.732C80.8319 29.067 79.9493 29.2345 78.9565 29.2345C78.3517 29.2345 77.8043 29.1324 77.318 28.9321C76.8317 28.7279 76.4763 28.4622 76.2475 28.1394C76.0187 27.8167 75.8634 27.3795 75.7735 26.8278C75.704 26.4397 75.6673 25.6471 75.6673 24.458V18.9175H74.1228V16.2372H75.6673V13.708L79.0423 11.7467V16.2372H81.3386ZM90.8302 24.9034L94.1847 25.4632C93.7516 26.6931 93.0733 27.6288 92.1418 28.2702C91.2142 28.9159 90.0497 29.2345 88.6524 29.2345C86.4418 29.2345 84.8075 28.5153 83.7451 27.069C82.9076 25.9126 82.4866 24.4499 82.4866 22.6889C82.4866 20.5805 83.0383 18.9297 84.1415 17.7367C85.2406 16.5436 86.6338 15.947 88.3173 15.947C90.2091 15.947 91.7005 16.5722 92.7954 17.8225C93.8864 19.0728 94.4094 20.985 94.3644 23.5632H85.9352C85.9597 24.5602 86.2294 25.3365 86.7483 25.8881C87.2673 26.4438 87.9169 26.7217 88.6891 26.7217C89.2162 26.7217 89.6574 26.5787 90.0171 26.2927C90.3766 26.0025 90.6504 25.5409 90.8302 24.9034ZM91.0222 21.5039C90.9977 20.5274 90.7484 19.7878 90.2704 19.2811C89.7923 18.7745 89.208 18.5212 88.5216 18.5212C87.7862 18.5212 87.1814 18.7909 86.7034 19.3261C86.2253 19.8573 85.9883 20.5846 85.9965 21.5039H91.0222ZM96.9018 28.9485V11.3994H100.265V28.9485H96.9018Z" fill="#E77817"/>
<path d="M103.435 14.5129V11.3994H106.798V14.5129H103.435ZM106.798 16.2372V28.5522C106.798 30.1743 106.692 31.3183 106.483 31.9843C106.271 32.6504 105.862 33.1693 105.262 33.5452C104.657 33.9211 103.889 34.109 102.957 34.109C102.622 34.109 102.258 34.0764 101.874 34.0191C101.486 33.9579 101.069 33.868 100.624 33.7495L101.208 30.877C101.368 30.9056 101.519 30.9343 101.658 30.9546C101.797 30.9751 101.927 30.9833 102.046 30.9833C102.389 30.9833 102.671 30.9098 102.892 30.7626C103.112 30.6155 103.255 30.4357 103.329 30.2273C103.398 30.0231 103.435 29.3979 103.435 28.3601V16.2372H106.798ZM109.335 22.411C109.335 21.2955 109.613 20.2127 110.161 19.1668C110.712 18.1248 111.492 17.324 112.502 16.7765C113.511 16.2249 114.639 15.947 115.885 15.947C117.805 15.947 119.382 16.5722 120.612 17.8225C121.842 19.0728 122.455 20.65 122.455 22.5581C122.455 24.4785 121.834 26.072 120.596 27.3386C119.354 28.6052 117.793 29.2345 115.909 29.2345C114.741 29.2345 113.634 28.973 112.575 28.446C111.517 27.9188 110.712 27.1466 110.161 26.1292C109.613 25.1118 109.335 23.8737 109.335 22.411ZM112.784 22.5908C112.784 23.8534 113.082 24.8176 113.683 25.4877C114.279 26.1578 115.019 26.4928 115.897 26.4928C116.776 26.4928 117.511 26.1578 118.103 25.4877C118.7 24.8176 118.998 23.8451 118.998 22.5663C118.998 21.3242 118.7 20.364 118.103 19.6938C117.511 19.0237 116.776 18.6887 115.897 18.6887C115.019 18.6887 114.279 19.0237 113.683 19.6938C113.082 20.364 112.784 21.3323 112.784 22.5908ZM124.743 28.9485V11.3994H128.106V17.7204C129.144 16.5395 130.37 15.947 131.791 15.947C133.34 15.947 134.619 16.5109 135.636 17.6305C136.65 18.75 137.156 20.3598 137.156 22.46C137.156 24.6297 136.637 26.3049 135.604 27.4775C134.57 28.6502 133.315 29.2345 131.84 29.2345C131.113 29.2345 130.398 29.0547 129.691 28.6911C128.984 28.3274 128.376 27.7922 127.865 27.0812V28.9485H124.743ZM128.081 22.317C128.081 23.6327 128.29 24.6052 128.702 25.2385C129.287 26.1333 130.059 26.5787 131.027 26.5787C131.767 26.5787 132.4 26.2599 132.923 25.6266C133.446 24.9933 133.708 23.9922 133.708 22.6275C133.708 21.177 133.442 20.127 132.915 19.4855C132.392 18.844 131.718 18.5212 130.892 18.5212C130.088 18.5212 129.417 18.8358 128.882 19.4609C128.347 20.0902 128.081 21.0381 128.081 22.317ZM139.514 28.9485V11.3994H142.877V17.7204C143.914 16.5395 145.14 15.947 146.562 15.947C148.111 15.947 149.389 16.5109 150.407 17.6305C151.42 18.75 151.927 20.3598 151.927 22.46C151.927 24.6297 151.408 26.3049 150.374 27.4775C149.34 28.6502 148.086 29.2345 146.611 29.2345C145.884 29.2345 145.169 29.0547 144.462 28.6911C143.755 28.3274 143.146 27.7922 142.635 27.0812V28.9485H139.514ZM142.852 22.317C142.852 23.6327 143.06 24.6052 143.473 25.2385C144.057 26.1333 144.83 26.5787 145.798 26.5787C146.538 26.5787 147.171 26.2599 147.694 25.6266C148.217 24.9933 148.478 23.9922 148.478 22.6275C148.478 21.177 148.213 20.127 147.686 19.4855C147.163 18.844 146.489 18.5212 145.663 18.5212C144.858 18.5212 144.188 18.8358 143.653 19.4609C143.118 20.0902 142.852 21.0381 142.852 22.317ZM161.786 24.9034L165.141 25.4632C164.708 26.6931 164.029 27.6288 163.098 28.2702C162.17 28.9159 161.006 29.2345 159.608 29.2345C157.398 29.2345 155.763 28.5153 154.701 27.069C153.864 25.9126 153.443 24.4499 153.443 22.6889C153.443 20.5805 153.994 18.9297 155.098 17.7367C156.197 16.5436 157.59 15.947 159.273 15.947C161.165 15.947 162.657 16.5722 163.751 17.8225C164.842 19.0728 165.365 20.985 165.32 23.5632H156.891C156.916 24.5602 157.185 25.3365 157.704 25.8881C158.223 26.4438 158.873 26.7217 159.645 26.7217C160.172 26.7217 160.613 26.5787 160.973 26.2927C161.333 26.0025 161.606 25.5409 161.786 24.9034ZM161.978 21.5039C161.954 20.5274 161.704 19.7878 161.226 19.2811C160.748 18.7745 160.164 18.5212 159.478 18.5212C158.742 18.5212 158.137 18.7909 157.659 19.3261C157.181 19.8573 156.944 20.5846 156.953 21.5039H161.978ZM171.078 28.9485H167.715V16.2372H170.836V18.0432C171.372 17.1892 171.854 16.6253 172.279 16.3557C172.708 16.086 173.19 15.947 173.733 15.947C174.502 15.947 175.237 16.1595 175.948 16.5844L174.906 19.514C174.342 19.1504 173.815 18.9666 173.329 18.9666C172.855 18.9666 172.459 19.0932 172.132 19.3548C171.801 19.6122 171.547 20.0821 171.359 20.7603C171.172 21.4385 171.078 22.8604 171.078 25.0219V28.9485ZM175.842 28.9485V25.5857H179.204V28.9485H175.842ZM193.534 19.9962L190.216 20.5927C190.105 19.9308 189.852 19.4324 189.456 19.0973C189.06 18.7622 188.549 18.5947 187.919 18.5947C187.078 18.5947 186.412 18.8849 185.913 19.4609C185.415 20.0412 185.166 21.0095 185.166 22.366C185.166 23.8737 185.419 24.9402 185.926 25.5612C186.432 26.1823 187.111 26.4928 187.964 26.4928C188.606 26.4928 189.125 26.313 189.533 25.9494C189.942 25.5857 190.228 24.9606 190.396 24.078L193.701 24.6378C193.358 26.1537 192.696 27.3019 191.723 28.0741C190.751 28.8505 189.448 29.2345 187.809 29.2345C185.95 29.2345 184.467 28.6502 183.364 27.4775C182.256 26.3049 181.705 24.6787 181.705 22.603C181.705 20.507 182.261 18.8726 183.368 17.704C184.479 16.5313 185.979 15.947 187.87 15.947C189.419 15.947 190.649 16.282 191.564 16.9481C192.475 17.6141 193.133 18.6315 193.534 19.9962ZM195.098 22.411C195.098 21.2955 195.376 20.2127 195.924 19.1668C196.475 18.1248 197.256 17.324 198.265 16.7765C199.274 16.2249 200.402 15.947 201.648 15.947C203.569 15.947 205.146 16.5722 206.376 17.8225C207.605 19.0728 208.218 20.65 208.218 22.5581C208.218 24.4785 207.597 26.072 206.359 27.3386C205.117 28.6052 203.556 29.2345 201.673 29.2345C200.504 29.2345 199.397 28.973 198.339 28.446C197.28 27.9188 196.475 27.1466 195.924 26.1292C195.376 25.1118 195.098 23.8737 195.098 22.411ZM198.547 22.5908C198.547 23.8534 198.845 24.8176 199.446 25.4877C200.042 26.1578 200.782 26.4928 201.661 26.4928C202.539 26.4928 203.274 26.1578 203.867 25.4877C204.463 24.8176 204.762 23.8451 204.762 22.5663C204.762 21.3242 204.463 20.364 203.867 19.6938C203.274 19.0237 202.539 18.6887 201.661 18.6887C200.782 18.6887 200.042 19.0237 199.446 19.6938C198.845 20.364 198.547 21.3323 198.547 22.5908ZM210.396 16.2372H213.497V17.9695C214.605 16.6212 215.928 15.947 217.461 15.947C218.274 15.947 218.981 16.1145 219.577 16.4497C220.178 16.7847 220.668 17.2914 221.052 17.9695C221.608 17.2914 222.213 16.7847 222.858 16.4497C223.504 16.1145 224.194 15.947 224.93 15.947C225.861 15.947 226.654 16.1391 227.3 16.5191C227.945 16.895 228.427 17.4548 228.746 18.1862C228.979 18.7296 229.093 19.608 229.093 20.8216V28.9485H225.731V21.6837C225.731 20.4211 225.616 19.608 225.383 19.2403C225.073 18.7622 224.595 18.5212 223.949 18.5212C223.475 18.5212 223.034 18.6642 222.617 18.9542C222.204 19.2403 221.906 19.6612 221.722 20.2168C221.539 20.7725 221.445 21.6469 221.445 22.8441V28.9485H218.082V21.982C218.082 20.744 218.021 19.9472 217.902 19.5877C217.783 19.228 217.596 18.9625 217.346 18.7867C217.093 18.6111 216.754 18.5212 216.321 18.5212C215.802 18.5212 215.336 18.6601 214.923 18.942C214.507 19.2199 214.208 19.6244 214.029 20.1515C213.849 20.6786 213.759 21.5488 213.759 22.7705V28.9485H210.396V16.2372Z" fill="#00A4DB"/>
</svg>
