<svg width="50" height="54" viewBox="0 0 50 54" fill="none" xmlns="http://www.w3.org/2000/svg">
<path d="M50 18.5626C50 28.8144 42.3049 37.125 32.8125 37.125C31.7168 37.125 30.6455 37.013 29.6067 36.8013L27.2618 39.6505C27.0419 39.9176 26.7721 40.1315 26.4702 40.2779C26.1683 40.4243 25.841 40.5 25.5101 40.5H21.875V44.7188C21.875 46.1167 20.8257 47.25 19.5312 47.25H15.625V51.4688C15.625 52.8667 14.5757 54 13.2812 54H2.34375C1.04932 54 0 52.8667 0 51.4688V43.236C0 42.5647 0.246973 41.9208 0.686426 41.4461L16.4874 24.381C15.9285 22.5507 15.625 20.595 15.625 18.5625C15.625 8.31073 23.32 0.00010547 32.8124 1.0075e-09C42.3328 -0.000105468 50 8.28046 50 18.5626ZM32.8125 13.5C32.8125 16.296 34.9111 18.5625 37.5 18.5625C40.0889 18.5625 42.1875 16.296 42.1875 13.5C42.1875 10.704 40.0889 8.4375 37.5 8.4375C34.9111 8.4375 32.8125 10.704 32.8125 13.5Z" fill="#009FD7"/>
</svg>
