<svg width="49" height="61" viewBox="0 0 49 61" fill="none" xmlns="http://www.w3.org/2000/svg">
<path d="M24.3333 0C15.9687 0 9.125 6.84375 9.125 15.2083V21.2917H15.2083V15.2083C15.2083 10.1896 19.3146 6.08333 24.3333 6.08333C29.3521 6.08333 33.4583 10.1896 33.4583 15.2083V21.2917H39.5417V15.2083C39.5417 6.84375 32.6979 0 24.3333 0Z" fill="#424242"/>
<path d="M42.5833 60.8334H6.08333C2.7375 60.8334 0 58.0959 0 54.7501V27.3751C0 24.0292 2.7375 21.2917 6.08333 21.2917H42.5833C45.9292 21.2917 48.6667 24.0292 48.6667 27.3751V54.7501C48.6667 58.0959 45.9292 60.8334 42.5833 60.8334Z" fill="#FB8C00"/>
<path d="M24.3335 45.625C26.8533 45.625 28.896 43.5823 28.896 41.0625C28.896 38.5427 26.8533 36.5 24.3335 36.5C21.8137 36.5 19.771 38.5427 19.771 41.0625C19.771 43.5823 21.8137 45.625 24.3335 45.625Z" fill="#C76E00"/>
</svg>
