<svg width="64" height="60" viewBox="0 0 64 60" fill="none" xmlns="http://www.w3.org/2000/svg">
<path d="M32 0C14.325 0 0 12.4687 0 27.8571C0 34.5 2.675 40.5804 7.125 45.3616C5.5625 52.1116 0.3375 58.125 0.275 58.192C0 58.5 -0.075 58.9554 0.0875 59.3571C0.25 59.7589 0.6 60 1 60C9.2875 60 15.5 55.7411 18.575 53.1161C22.6625 54.7634 27.2 55.7143 32 55.7143C49.675 55.7143 64 43.2455 64 27.8571C64 12.4687 49.675 0 32 0ZM16.025 36.4286H14.5C13.95 36.4286 13.5 35.9464 13.5 35.3571V33.2143C13.5 32.625 13.95 32.1429 14.5 32.1429H16.0375C16.7875 32.1429 17.3375 31.6741 17.3375 31.2589C17.3375 31.0848 17.2375 30.8973 17.075 30.75L14.3375 28.2321C13.275 27.2679 12.675 25.8884 12.675 24.4687C12.675 21.6161 15.05 19.2991 17.975 19.2991H19.5C20.05 19.2991 20.5 19.7812 20.5 20.3705V22.5134C20.5 23.1027 20.05 23.5848 19.5 23.5848H17.9625C17.2125 23.5848 16.6625 24.0536 16.6625 24.4687C16.6625 24.6429 16.7625 24.8304 16.925 24.9777L19.6625 27.4955C20.725 28.4598 21.325 29.8393 21.325 31.2589C21.3375 34.1116 18.95 36.4286 16.025 36.4286ZM40 35.3571C40 35.9464 39.55 36.4286 39 36.4286H37C36.45 36.4286 36 35.9464 36 35.3571V26.2232L32.9 33.6964C32.5375 34.4866 31.475 34.4866 31.1125 33.6964L28 26.2232V35.3571C28 35.9464 27.55 36.4286 27 36.4286H25C24.45 36.4286 24 35.9464 24 35.3571V21.4286C24 20.25 24.9 19.2857 26 19.2857H28C28.7625 19.2857 29.45 19.7411 29.7875 20.4643L32 25.2054L34.2125 20.4643C34.55 19.7411 35.25 19.2857 36 19.2857H38C39.1 19.2857 40 20.25 40 21.4286V35.3571ZM46.0375 36.4286H44.5C43.95 36.4286 43.5 35.9464 43.5 35.3571V33.2143C43.5 32.625 43.95 32.1429 44.5 32.1429H46.0375C46.7875 32.1429 47.3375 31.6741 47.3375 31.2589C47.3375 31.0848 47.2375 30.8973 47.075 30.75L44.3375 28.2321C43.275 27.2679 42.675 25.8884 42.675 24.4687C42.675 21.6161 45.05 19.2991 47.975 19.2991H49.5C50.05 19.2991 50.5 19.7812 50.5 20.3705V22.5134C50.5 23.1027 50.05 23.5848 49.5 23.5848H47.9625C47.2125 23.5848 46.6625 24.0536 46.6625 24.4687C46.6625 24.6429 46.7625 24.8304 46.925 24.9777L49.6625 27.4955C50.725 28.4598 51.325 29.8393 51.325 31.2589C51.3375 34.1116 48.9625 36.4286 46.0375 36.4286Z" fill="#009FD7"/>
</svg>
