<svg width="188" height="33" viewBox="0 0 188 33" fill="none" xmlns="http://www.w3.org/2000/svg">
<path fill-rule="evenodd" clip-rule="evenodd" d="M6.42503 1H26.575C29.5588 1 32 3.44124 32 6.42503V26.575C32 29.5588 29.5588 32 26.575 32H6.42503C3.44124 32 1 29.5588 1 26.575V6.42503C1 3.44124 3.44124 1 6.42503 1Z" fill="#00A3DC" stroke="white" stroke-width="0.8041"/>
<path fill-rule="evenodd" clip-rule="evenodd" d="M17.2441 7.19775C22.7916 7.19775 27.2902 11.6967 27.2902 17.2442C27.2902 22.792 22.7916 27.2907 17.2441 27.2907C11.6969 27.2907 7.19824 22.792 7.19824 17.2442C7.19824 11.6967 11.6969 7.19775 17.2441 7.19775Z" fill="#E77817"/>
<path d="M12.0585 21.6218L12.5254 21.1565H20.18V22.0871H12.5254L12.0585 21.6218ZM12.5254 21.1565V22.0871L12.5016 22.0865L12.478 22.0847L12.4547 22.0818L12.4318 22.0776L12.4093 22.0724L12.387 22.0662L12.3656 22.0588L12.3442 22.0504L12.3238 22.0412L12.3037 22.0309L12.2842 22.0197L12.2654 22.0076L12.2471 21.9947L12.2295 21.9808L12.2124 21.9662L12.1965 21.9508L12.181 21.9347L12.1664 21.9179L12.1527 21.9003L12.1396 21.8819L12.1275 21.863L12.1163 21.8436L12.106 21.8235L12.0968 21.8029L12.0884 21.7817L12.081 21.7602L12.0748 21.738L12.0696 21.7155L12.0655 21.6926L12.0625 21.6694L12.0607 21.6457L12.0602 21.6218L12.0607 21.5978L12.0625 21.5742L12.0655 21.551L12.0696 21.5281L12.0748 21.5056L12.081 21.4834L12.0884 21.4619L12.0968 21.4407L12.106 21.4201L12.1163 21.4L12.1275 21.3805L12.1396 21.3617L12.1527 21.3434L12.1664 21.3258L12.181 21.3089L12.1965 21.2928L12.2124 21.2773L12.2295 21.2627L12.2471 21.2489L12.2654 21.2359L12.2842 21.2238L12.3037 21.2127L12.3238 21.2023L12.3442 21.1931L12.3656 21.1848L12.387 21.1773L12.4093 21.1712L12.4318 21.166L12.4547 21.1618L12.478 21.1589L12.5016 21.157L12.5254 21.1565ZM12.5201 18.1154L12.9926 18.5807V21.6218H12.0585V18.5807L12.5201 18.1154ZM12.9926 18.5807H12.0585L12.0589 18.5566L12.0608 18.533L12.0638 18.5097L12.0678 18.4866L12.073 18.464L12.0795 18.4418L12.0868 18.4202L12.0952 18.399L12.1045 18.3782L12.1147 18.3581L12.1259 18.3386L12.1382 18.3196L12.1512 18.3013L12.1652 18.2837L12.1799 18.2668L12.1952 18.2505L12.2115 18.2351L12.2284 18.2204L12.2461 18.2066L12.2644 18.1934L12.2833 18.1813L12.3029 18.17L12.3231 18.1599L12.3438 18.1505L12.3649 18.1421L12.3867 18.1347L12.4087 18.1284L12.4312 18.1232L12.4544 18.119L12.4776 18.1162L12.5013 18.1142L12.5254 18.1137L12.5496 18.1142L12.5732 18.1162L12.5966 18.119L12.6195 18.1232L12.6421 18.1284L12.6643 18.1347L12.6858 18.1421L12.7071 18.1505L12.7278 18.1599L12.748 18.17L12.7676 18.1813L12.7867 18.1934L12.805 18.2066L12.8226 18.2204L12.8393 18.2351L12.8557 18.2505L12.871 18.2668L12.8857 18.2837L12.8995 18.3013L12.9126 18.3196L12.9247 18.3386L12.9361 18.3581L12.9464 18.3782L12.9558 18.399L12.964 18.4202L12.9715 18.4418L12.9778 18.464L12.983 18.4866L12.9872 18.5097L12.9901 18.533L12.9918 18.5566L12.9926 18.5807ZM9.24669 15.1025L10.1773 15.1425L10.1718 15.4365L10.1833 15.7068L10.2074 15.9557L10.2465 16.1859L10.2955 16.3963L10.3537 16.5872L10.4219 16.7633L10.4987 16.9232L10.5829 17.0677L10.6717 17.1991L10.7658 17.3182L10.866 17.4273L10.9694 17.5254L11.0767 17.6131L11.1863 17.6912L11.2978 17.7618L11.4115 17.8243L11.5243 17.8805L11.6357 17.9281L11.7458 17.9692L11.8539 18.0025L11.9586 18.0325L12.057 18.0562L12.1479 18.0743L12.2323 18.0874L12.3091 18.0978L12.3751 18.1066L12.4312 18.1102L12.4741 18.1135L12.505 18.115L12.5204 18.1154H12.5201L12.5309 19.046H12.5133L12.4792 19.0456L12.4304 19.0442L12.3655 19.0408L12.2874 19.0335L12.1959 19.0247L12.0937 19.0106L11.9802 18.9902L11.8563 18.9648L11.7248 18.9337L11.5873 18.8965L11.4431 18.8485L11.2927 18.793L11.1377 18.7273L10.9809 18.6525L10.8234 18.5647L10.6646 18.4647L10.5075 18.3503L10.3529 18.2224L10.2021 18.0805L10.0579 17.9238L9.91989 17.7501L9.79102 17.5602L9.67391 17.3538L9.56804 17.1319L9.47437 16.8938L9.39414 16.6372L9.33046 16.3647L9.2842 16.0762L9.25271 15.7688L9.24121 15.4438L9.24669 15.1025ZM14.3177 12.9L15.1824 13.243L14.3852 13.3616L14.3338 13.3039L14.2614 13.24L14.1731 13.1762L14.0663 13.111L13.9446 13.0487L13.8089 12.9916L13.6624 12.9388L13.5029 12.8923L13.3366 12.8527L13.1618 12.8227L12.9813 12.7989L12.7983 12.7859L12.6101 12.7821L12.4224 12.7898L12.2359 12.8082L12.0519 12.8357L11.8699 12.8767L11.6932 12.9282L11.5209 12.9903L11.3569 13.0659L11.1999 13.1535L11.0528 13.252L10.9141 13.3656L10.7846 13.4911L10.6638 13.6329L10.5546 13.7894L10.457 13.9615L10.3718 14.1552L10.2988 14.3674L10.2407 14.6024L10.2013 14.8606L10.1773 15.1425L9.24669 15.1025L9.27438 14.7511L9.3286 14.4199L9.40476 14.1084L9.50364 13.8159L9.625 13.5456L9.76652 13.2931L9.92679 13.0636L10.1022 12.8561L10.294 12.6686L10.4983 12.504L10.7144 12.3581L10.9373 12.2338L11.1671 12.1292L11.4013 12.0414L11.6402 11.9718L11.8803 11.9198L12.1227 11.8813L12.364 11.8592L12.603 11.8515L12.8384 11.8554L13.0723 11.8721L13.3006 11.8996L13.5228 11.9405L13.7399 11.991L13.9469 12.0521L14.1482 12.1233L14.3388 12.2057L14.5188 12.2972L14.6876 12.399L14.8452 12.5139L14.987 12.6397L15.1151 12.7813L14.3177 12.9ZM14.3852 13.3616L15.1151 12.7813L15.1294 12.8005L15.143 12.8202L15.1551 12.8402L15.166 12.8608L15.1761 12.8817L15.1849 12.903L15.1927 12.9244L15.1992 12.9462L15.2048 12.9681L15.2092 12.9903L15.2128 13.0125L15.2148 13.0348L15.2162 13.0573L15.2163 13.0797L15.2153 13.1021L15.2131 13.1244L15.2101 13.1465L15.206 13.1685L15.2007 13.1903L15.1946 13.2119L15.1875 13.2331L15.179 13.254L15.1698 13.2746L15.1595 13.2949L15.1481 13.3146L15.1357 13.3338L15.1222 13.3526L15.1079 13.3705L15.0925 13.388L15.0759 13.4048L15.0586 13.421L15.0401 13.4364L15.021 13.4508L15.0016 13.4643L14.9815 13.4764L14.9609 13.4874L14.9399 13.4974L14.9188 13.5062L14.8971 13.514L14.8753 13.5206L14.8536 13.5261L14.8312 13.5306L14.8092 13.5341L14.7866 13.5362L14.7643 13.5375L14.742 13.5377L14.7195 13.5366L14.6973 13.5347L14.6751 13.5316L14.653 13.5274L14.6312 13.5222L14.6096 13.516L14.5884 13.5089L14.5675 13.5004L14.5469 13.4911L14.5267 13.4809L14.5071 13.4695L14.4879 13.457L14.469 13.4437L14.451 13.4292L14.4335 13.4138L14.4167 13.3974L14.4007 13.3801L14.3852 13.3616ZM17.6317 12.8088L18.292 13.4657L17.6006 13.4309L17.4782 13.2906L17.3589 13.1694L17.2434 13.0662L17.1296 12.9804L17.018 12.9071L16.913 12.8495L16.8086 12.8046L16.7075 12.77L16.61 12.7446L16.5128 12.7276L16.4196 12.72L16.3235 12.7193L16.2322 12.7259L16.1403 12.7394L16.0519 12.757L15.9618 12.7813L15.8762 12.8119L15.7929 12.8456L15.7108 12.8818L15.6338 12.9232L15.5584 12.9653L15.4887 13.0111L15.4231 13.0556L15.364 13.1002L15.3096 13.1439L15.2622 13.1857L15.2234 13.2232L15.1908 13.2569L15.1675 13.2827L15.1561 13.296L15.1586 13.2922L15.1824 13.243L14.3176 12.9L14.3667 12.8031L14.4116 12.7376L14.4595 12.6771L14.5118 12.6184L14.5702 12.559L14.6381 12.4962L14.7113 12.4324L14.791 12.3668L14.8797 12.3003L14.9742 12.2338L15.0767 12.17L15.1849 12.1059L15.3023 12.0461L15.4245 11.988L15.5552 11.9361L15.6918 11.8911L15.833 11.852L15.9834 11.8197L16.1371 11.7989L16.2977 11.7886L16.4598 11.7895L16.6297 11.8045L16.7998 11.8324L16.9741 11.876L17.148 11.9362L17.3214 12.0139L17.4962 12.108L17.666 12.2176L17.8346 12.3473L18.0013 12.4942L18.1644 12.6594L18.3231 12.8435L17.6317 12.8088ZM17.6006 13.4309L18.3231 12.8435L18.3378 12.8625L18.3511 12.882L18.3636 12.9019L18.3749 12.9222L18.3851 12.943L18.3941 12.9641L18.402 12.9856L18.4089 13.0072L18.4147 13.0291L18.4195 13.0511L18.4229 13.0733L18.4255 13.0955L18.427 13.1179L18.4275 13.1403L18.4268 13.1627L18.425 13.1849L18.422 13.2071L18.4183 13.2291L18.4133 13.2508L18.4072 13.2725L18.4003 13.2938L18.3922 13.3149L18.3833 13.3355L18.373 13.3557L18.3619 13.3756L18.3497 13.3949L18.3366 13.4137L18.3223 13.432L18.3073 13.4496L18.291 13.4666L18.2737 13.4828L18.2555 13.4984L18.2366 13.5132L18.217 13.5265L18.1971 13.5389L18.1768 13.5503L18.1561 13.5604L18.135 13.5695L18.1136 13.5775L18.092 13.5844L18.0701 13.5901L18.0479 13.5949L18.0259 13.5984L18.0035 13.6009L17.9813 13.6024L17.9588 13.6029L17.9365 13.6021L17.9142 13.6002L17.8922 13.5975L17.8699 13.5936L17.8482 13.5887L17.8267 13.5826L17.8053 13.5757L17.7843 13.5677L17.7635 13.5586L17.7434 13.5485L17.7234 13.5373L17.7042 13.5251L17.6855 13.512L17.6672 13.4977L17.6495 13.4826L17.6326 13.4664L17.6162 13.4491L17.6006 13.4309ZM19.7571 11.8676L19.761 12.7982L19.6913 12.8012L19.621 12.8066L19.5506 12.8161L19.4796 12.8275L19.4123 12.8425L19.3432 12.8588L19.2759 12.8795L19.2084 12.9014L19.1434 12.9254L19.0785 12.9515L19.0161 12.9794L18.9561 13.0085L18.8967 13.0389L18.8379 13.07L18.7819 13.1018L18.729 13.1337L18.679 13.1658L18.63 13.1993L18.5841 13.2304L18.5398 13.2607L18.5008 13.2914L18.4633 13.3189L18.4294 13.3465L18.3991 13.3702L18.371 13.3935L18.3484 13.4158L18.3279 13.4315L18.3136 13.446L18.3015 13.4569L18.2941 13.464L18.289 13.4689L18.292 13.4657L17.6317 12.8088L17.6395 12.801L17.6482 12.7926L17.663 12.7781L17.6822 12.7599L17.7076 12.7383L17.7353 12.7116L17.7687 12.6855L17.8044 12.655L17.8453 12.6203L17.8902 12.5855L17.9386 12.547L17.9925 12.5088L18.0477 12.4676L18.1082 12.4258L18.1716 12.3848L18.2401 12.3418L18.3113 12.2989L18.3854 12.2562L18.4625 12.2141L18.5437 12.1727L18.6293 12.1326L18.7174 12.0938L18.8078 12.0571L18.9021 12.022L18.9984 11.9893L19.0986 11.9611L19.2007 11.9338L19.3082 11.9116L19.4157 11.8929L19.5263 11.8797L19.6402 11.8705L19.7571 11.8676ZM23.3431 15.4671H22.4123L22.4058 15.2324L22.3892 15.0135L22.3631 14.8101L22.3268 14.6206L22.284 14.4455L22.2339 14.285L22.1766 14.1349L22.1128 13.9965L22.0435 13.8697L21.9689 13.7538L21.8897 13.6468L21.8066 13.5483L21.7196 13.4576L21.6284 13.3748L21.5348 13.2989L21.4355 13.2301L21.3337 13.1675L21.2295 13.1094L21.1233 13.0586L21.0144 13.0113L20.9049 12.9726L20.7934 12.9365L20.6827 12.9044L20.5712 12.8797L20.4614 12.8565L20.3523 12.8396L20.2459 12.8255L20.1413 12.8134L20.0391 12.8067L19.9434 12.8012L19.851 12.7985L19.761 12.7982L19.7571 11.8676L19.8621 11.8679L19.9763 11.8707L20.0974 11.8761L20.2216 11.8865L20.3518 11.8986L20.4873 11.9165L20.6254 11.9405L20.7681 11.9675L20.9124 12.0032L21.0597 12.0425L21.2078 12.0895L21.3574 12.1464L21.5067 12.2084L21.6562 12.2812L21.8043 12.3612L21.9501 12.4529L22.0929 12.5546L22.2341 12.6667L22.3692 12.7897L22.4998 12.9243L22.623 13.0703L22.7389 13.2284L22.8463 13.3991L22.9448 13.5807L23.034 13.7736L23.1131 13.9784L23.1818 14.1975L23.239 14.4271L23.2829 14.668L23.3161 14.9224L23.3363 15.1885L23.3431 15.4671ZM20.6387 18.5626H19.7081L20.1989 18.0972L20.1957 18.0975L20.2093 18.0983L20.237 18.0984L20.2772 18.0975L20.3259 18.0951L20.3872 18.0902L20.455 18.0842L20.5312 18.0746L20.614 18.0604L20.7037 18.0434L20.7973 18.0226L20.8962 17.9953L20.9968 17.9611L21.0987 17.9232L21.2027 17.8769L21.3057 17.8254L21.4091 17.7643L21.5092 17.6968L21.609 17.6222L21.7062 17.5378L21.7991 17.4431L21.8872 17.3374L21.9728 17.2202L22.0535 17.0926L22.1277 16.9483L22.1968 16.7904L22.2576 16.6165L22.3092 16.4259L22.3528 16.2162L22.3851 15.9884L22.4052 15.7383L22.4123 15.4671H23.3431L23.336 15.7857L23.3118 16.087L23.2725 16.3731L23.2179 16.6413L23.1479 16.8939L23.0651 17.1298L22.9706 17.3497L22.8635 17.5523L22.7462 17.7419L22.6205 17.914L22.4853 18.0707L22.3446 18.2129L22.2002 18.3411L22.0527 18.4558L21.9016 18.5562L21.751 18.6427L21.6004 18.7199L21.4527 18.7843L21.3071 18.8404L21.1659 18.8856L21.0309 18.9238L20.9008 18.9556L20.7781 18.9801L20.6628 18.9977L20.5571 19.0111L20.4601 19.0208L20.3768 19.0257L20.3027 19.0282L20.2442 19.0291L20.1983 19.0289L20.1665 19.0282L20.148 19.0279L20.6387 18.5626ZM20.1989 18.0972L20.148 19.0279L20.1239 19.026L20.1004 19.0229L20.0775 19.0186L20.0547 19.0133L20.0324 19.0069L20.0106 18.9994L19.9896 18.9909L19.9688 18.9815L19.9487 18.9709L19.9292 18.9595L19.9104 18.9472L19.8921 18.9341L19.8747 18.9202L19.8579 18.9054L19.8419 18.8898L19.8265 18.8736L19.8119 18.8566L19.7983 18.8388L19.7855 18.8205L19.7734 18.8016L19.7623 18.782L19.7522 18.762L19.743 18.7413L19.7349 18.7202L19.7277 18.6985L19.7216 18.6766L19.7166 18.6541L19.7124 18.6313L19.7097 18.6081L19.7079 18.5848L19.7074 18.561L19.7081 18.537L19.71 18.5131L19.7131 18.4896L19.7175 18.4665L19.7228 18.4438L19.7292 18.4215L19.7366 18.3997L19.7452 18.3786L19.7545 18.358L19.7652 18.3379L19.7766 18.3183L19.7889 18.2995L19.802 18.2812L19.8159 18.2638L19.8306 18.2469L19.8461 18.2309L19.8624 18.2155L19.8795 18.2011L19.8971 18.1874L19.9154 18.1745L19.9345 18.1626L19.9539 18.1514L19.974 18.1412L19.9947 18.1322L20.0158 18.1239L20.0376 18.1167L20.0593 18.1107L20.082 18.1056L20.1047 18.1016L20.128 18.0986L20.1512 18.0971L20.1751 18.0965L20.1989 18.0972ZM20.18 22.0871V21.1565L19.7148 21.6218L19.7147 21.5306L19.7143 21.4386L19.7141 21.3458L19.714 21.2523L19.7139 21.1579L19.7134 21.0631L19.7132 20.9675L19.7131 20.8717L19.713 20.7752L19.7125 20.6783L19.7124 20.5813L19.7123 20.4838L19.7121 20.3861L19.712 20.2881L19.7116 20.1902L19.7114 20.0921V19.9941L19.7111 19.8962L19.7108 19.7983L19.7106 19.7006V19.6031L19.7104 19.506L19.71 19.4091L19.7098 19.3126L19.7097 19.2167L19.7095 19.1213L19.7091 19.0264L19.709 18.9321L19.7088 18.8385L19.7086 18.7457L19.7082 18.6537L19.7081 18.5626H20.6387L20.639 18.6537L20.6392 18.7457V18.8385L20.6396 18.9321L20.6398 19.0264L20.6401 19.1213V19.2167L20.6404 19.3126L20.6407 19.4091L20.641 19.506V19.6031L20.6411 19.7006L20.6415 19.7983L20.6417 19.8962L20.6419 19.9941L20.642 20.0921L20.6421 20.1902L20.6426 20.2881L20.6427 20.3861L20.6429 20.4838L20.643 20.5813L20.6433 20.6783L20.6436 20.7752V20.8717L20.6438 20.9675L20.6442 21.0631L20.6444 21.1579V21.2523L20.6447 21.3458L20.645 21.4386L20.6453 21.5306V21.6218L20.18 22.0871ZM19.7148 21.6218H20.6453L20.6447 21.6457L20.6429 21.6694L20.6401 21.6926L20.6358 21.7155L20.6306 21.738L20.6244 21.7602L20.6172 21.7817L20.6087 21.8029L20.5994 21.8235L20.5893 21.8436L20.5781 21.863L20.566 21.8819L20.5529 21.9003L20.539 21.9179L20.5245 21.9347L20.5092 21.9508L20.4929 21.9662L20.4762 21.9808L20.4586 21.9947L20.4403 22.0076L20.4212 22.0197L20.4019 22.0309L20.3818 22.0412L20.3611 22.0504L20.3401 22.0588L20.3184 22.0662L20.2964 22.0724L20.2739 22.0776L20.2509 22.0818L20.2276 22.0847L20.204 22.0865L20.18 22.0871L20.1562 22.0865L20.1326 22.0847L20.1092 22.0818L20.0864 22.0776L20.0638 22.0724L20.0417 22.0662L20.0201 22.0588L19.999 22.0504L19.9783 22.0412L19.9582 22.0309L19.939 22.0197L19.9199 22.0076L19.9015 21.9947L19.8841 21.9808L19.8672 21.9662L19.851 21.9508L19.8356 21.9347L19.8211 21.9179L19.8073 21.9003L19.7943 21.8819L19.7821 21.863L19.7709 21.8436L19.7606 21.8235L19.7514 21.8029L19.743 21.7817L19.7358 21.7602L19.7296 21.738L19.7244 21.7155L19.7202 21.6926L19.7173 21.6694L19.7154 21.6457L19.7148 21.6218Z" fill="white"/>
<path d="M21.476 15.4154L20.5603 15.5904L20.5564 15.5668L20.5536 15.5432L20.5523 15.5197L20.5518 15.4965L20.5527 15.4732L20.5548 15.4503L20.5579 15.4277L20.5621 15.4053L20.5674 15.3833L20.5739 15.3616L20.5813 15.3403L20.5896 15.3195L20.5989 15.2991L20.6091 15.2792L20.6205 15.2598L20.6326 15.2409L20.6456 15.2227L20.6594 15.2051L20.674 15.1883L20.6895 15.1721L20.706 15.1566L20.7229 15.142L20.7408 15.128L20.7593 15.115L20.7785 15.1028L20.7984 15.0916L20.819 15.0813L20.8403 15.0719L20.862 15.0636L20.8843 15.0562L20.9073 15.05L20.9307 15.0449L20.9545 15.041L20.9779 15.0383L21.0016 15.0369L21.0248 15.0366L21.0479 15.0374L21.0708 15.0395L21.0934 15.0426L21.1158 15.0468L21.1378 15.0522L21.1595 15.0585L21.181 15.0659L21.2016 15.0742L21.2222 15.0836L21.2421 15.0938L21.2614 15.1051L21.2803 15.1172L21.2984 15.1302L21.316 15.144L21.3329 15.1588L21.3489 15.1743L21.3645 15.1906L21.379 15.2076L21.3931 15.2255L21.4062 15.2441L21.4183 15.2632L21.4297 15.2831L21.4399 15.3037L21.4492 15.3248L21.4576 15.3466L21.4648 15.3689L21.4712 15.3919L21.476 15.4154ZM20.7158 17.4807L20.2488 16.6744L20.2874 16.6497L20.3187 16.6269L20.3502 16.6003L20.3767 16.5712L20.4023 16.5407L20.4267 16.5097L20.4485 16.4728L20.4698 16.4362L20.4871 16.3962L20.5046 16.3551L20.5202 16.3115L20.5341 16.2657L20.5454 16.218L20.5553 16.1704L20.5628 16.1218L20.5696 16.072L20.574 16.0256L20.5784 15.9753L20.5811 15.9288L20.5822 15.8844L20.5818 15.8373L20.5804 15.7968L20.5781 15.7577L20.5751 15.7224L20.5735 15.689L20.5699 15.6602L20.5662 15.6359L20.5647 15.6165L20.5614 15.6008L20.5607 15.5906L20.5609 15.5883L20.5603 15.5904L21.476 15.4154L21.4768 15.4242L21.4803 15.4409L21.4846 15.4622L21.4877 15.4888L21.4931 15.5228L21.4968 15.5616L21.5003 15.6052L21.5057 15.6532L21.5089 15.7066L21.511 15.764L21.5124 15.8263L21.5126 15.8882L21.5117 15.958L21.509 16.0301L21.5046 16.1024L21.4963 16.1816L21.4858 16.2605L21.4714 16.342L21.454 16.4259L21.432 16.5103L21.4069 16.5962L21.3765 16.6836L21.341 16.7719L21.298 16.8595L21.2511 16.9472L21.1966 17.0314L21.1357 17.1172L21.0666 17.1986L20.9888 17.2755L20.9062 17.3493L20.8129 17.4197L20.7158 17.4807ZM19.3247 17.4963H18.3906L18.865 17.0309H18.8636L18.8676 17.0293L18.8762 17.0309L18.8911 17.0308L18.9066 17.0304L18.9284 17.0297L18.9523 17.0285L18.9801 17.0268L19.0114 17.0245L19.0462 17.0215L19.0842 17.0197L19.1256 17.0151L19.1695 17.0096L19.2148 17.005L19.2625 16.9975L19.3143 16.9903L19.3665 16.9803L19.4208 16.9707L19.4752 16.9597L19.5331 16.9471L19.5905 16.9329L19.6491 16.9188L19.7092 16.9011L19.7701 16.8833L19.8298 16.8618L19.89 16.8417L19.9526 16.8178L20.0118 16.7917L20.0729 16.765L20.1319 16.7361L20.1924 16.7065L20.2488 16.6744L20.7158 17.4807L20.6301 17.5276L20.5479 17.5718L20.4633 17.6118L20.3804 17.6494L20.2955 17.6827L20.2149 17.7138L20.1327 17.7449L20.0509 17.7701L19.9718 17.795L19.8938 17.8165L19.8168 17.8379L19.7409 17.8557L19.6686 17.8719L19.5959 17.8866L19.5271 17.9L19.4602 17.9099L19.3974 17.9206L19.3352 17.9282L19.2755 17.9365L19.2203 17.942L19.1681 17.9466L19.119 17.9522L19.0734 17.955L19.0309 17.9574L18.9924 17.9591L18.9576 17.9603L18.9286 17.961L18.9019 17.9614L18.8835 17.9616L18.8676 17.9635L18.8565 17.9616H18.8503L19.3247 17.4963ZM18.3906 17.4963V17.0219L18.865 17.0309L18.3906 17.4963ZM18.3906 19.4561V17.4963H19.3247V19.4561H18.3906ZM18.3906 19.4561H19.3247L19.324 19.4801L19.3221 19.5037L19.3194 19.5271L19.3152 19.5502L19.3098 19.5727L19.3036 19.5949L19.2961 19.6165L19.2879 19.6377L19.2785 19.6584L19.2681 19.6787L19.2569 19.6981L19.2448 19.7172L19.2317 19.7355L19.218 19.7531L19.2032 19.77L19.1878 19.7862L19.1714 19.8016L19.1547 19.8164L19.1371 19.8302L19.1187 19.8433L19.0997 19.8554L19.0803 19.8667L19.0599 19.8769L19.0393 19.8863L19.018 19.8947L18.9965 19.902L18.9741 19.9084L18.9517 19.9135L18.9288 19.9178L18.9052 19.9206L18.8817 19.9225L18.8575 19.9231L18.8336 19.9225L18.8099 19.9206L18.7865 19.9178L18.7634 19.9135L18.741 19.9084L18.7187 19.902L18.697 19.8947L18.676 19.8863L18.6551 19.8769L18.6348 19.8667L18.6156 19.8554L18.5965 19.8433L18.5782 19.8302L18.5606 19.8164L18.5436 19.8016L18.5275 19.7862L18.5121 19.77L18.4972 19.7531L18.4833 19.7355L18.4702 19.7172L18.4581 19.6981L18.4469 19.6787L18.4368 19.6584L18.4274 19.6377L18.4188 19.6165L18.4117 19.5949L18.4053 19.5727L18.4001 19.5502L18.3959 19.5271L18.3931 19.5037L18.3911 19.4801L18.3906 19.4561Z" fill="white"/>
<path fill-rule="evenodd" clip-rule="evenodd" d="M8.4941 8.49368C12.9157 4.07177 20.0847 4.07177 24.5061 8.49368C28.9277 12.9154 28.9277 20.0847 24.5061 24.5064C20.0847 28.9283 12.9156 28.9283 8.4941 24.5064C4.07228 20.0847 4.07228 12.9154 8.4941 8.49368ZM10.1587 10.1584C13.6609 6.65585 19.3392 6.65585 22.8415 10.1584C26.3437 13.6607 26.3437 19.3392 22.8415 22.8417C19.3392 26.3442 13.6609 26.3442 10.1587 22.8417C6.65645 19.3392 6.65645 13.6607 10.1587 10.1584Z" fill="white"/>
<path fill-rule="evenodd" clip-rule="evenodd" d="M24.857 24.672H24.857C25.375 24.1542 26.2218 24.1542 26.7396 24.672L28.9196 26.852C29.4374 27.3698 29.4375 28.2168 28.9196 28.7346V28.7347C28.4018 29.2524 27.5547 29.2524 27.0369 28.7347L24.857 26.5546C24.3393 26.037 24.3393 25.1898 24.857 24.672Z" fill="white"/>
<path d="M40.4201 9.48389V14.7471C41.3067 13.7138 42.3633 13.1938 43.5933 13.1938C44.2266 13.1938 44.7933 13.3138 45.3032 13.5471C45.81 13.7805 46.1932 14.0805 46.4499 14.4438C46.7066 14.8105 46.8832 15.2137 46.9765 15.6571C47.0732 16.0971 47.1199 16.7871 47.1199 17.717V23.8002H44.3766V18.3204C44.3766 17.2338 44.3233 16.5438 44.22 16.2504C44.1133 15.9571 43.93 15.7271 43.6666 15.5537C43.4033 15.3804 43.0733 15.2938 42.6767 15.2938C42.22 15.2938 41.8133 15.4037 41.4567 15.627C41.0967 15.8471 40.8334 16.1804 40.67 16.6271C40.5034 17.0737 40.4201 17.7337 40.4201 18.6037V23.8002H37.6768V9.48389H40.4201ZM49.0998 18.467C49.0998 17.557 49.3265 16.6737 49.7732 15.8204C50.2231 14.9704 50.8598 14.3171 51.6831 13.8704C52.5064 13.4205 53.4265 13.1938 54.443 13.1938C56.0097 13.1938 57.2963 13.7038 58.2996 14.7238C59.3029 15.7437 59.803 17.0304 59.803 18.587C59.803 20.1537 59.2963 21.4536 58.2863 22.4869C57.273 23.5202 55.9997 24.0336 54.4631 24.0336C53.5098 24.0336 52.6064 23.8202 51.7432 23.3903C50.8798 22.9602 50.2231 22.3303 49.7732 21.5003C49.3265 20.6703 49.0998 19.6603 49.0998 18.467ZM51.9132 18.6137C51.9132 19.6437 52.1565 20.4303 52.6464 20.977C53.1331 21.5236 53.7364 21.7969 54.4531 21.7969C55.1697 21.7969 55.7697 21.5236 56.253 20.977C56.7396 20.4303 56.983 19.637 56.983 18.5937C56.983 17.5804 56.7396 16.7971 56.253 16.2504C55.7697 15.7037 55.1697 15.4304 54.4531 15.4304C53.7364 15.4304 53.1331 15.7037 52.6464 16.2504C52.1565 16.7971 51.9132 17.587 51.9132 18.6137ZM66.5394 13.4305V15.6171H64.6661V19.797C64.6661 20.6436 64.6829 21.137 64.7195 21.2769C64.7562 21.4169 64.8361 21.5303 64.9628 21.6236C65.0895 21.7136 65.2461 21.7603 65.4261 21.7603C65.6828 21.7603 66.0494 21.6703 66.5328 21.497L66.7661 23.6236C66.1261 23.8969 65.4061 24.0336 64.5962 24.0336C64.1028 24.0336 63.6562 23.9503 63.2595 23.7869C62.8628 23.6202 62.5729 23.4035 62.3862 23.1402C62.1995 22.8769 62.0729 22.5203 61.9995 22.0702C61.9428 21.7536 61.9129 21.107 61.9129 20.137V15.6171H60.6529V13.4305H61.9129V11.3672L64.6661 9.76719V13.4305H66.5394ZM74.2826 20.5003L77.0192 20.957C76.6659 21.9603 76.1125 22.7236 75.3526 23.2469C74.5959 23.7736 73.6459 24.0336 72.506 24.0336C70.7026 24.0336 69.3693 23.4469 68.5027 22.2669C67.8194 21.3236 67.476 20.1303 67.476 18.6937C67.476 16.9737 67.9261 15.627 68.8261 14.6537C69.7227 13.6804 70.8593 13.1938 72.2327 13.1938C73.7759 13.1938 74.9926 13.7038 75.8858 14.7238C76.7758 15.7437 77.2025 17.3037 77.1658 19.407H70.2893C70.3093 20.2203 70.5294 20.8536 70.9527 21.3036C71.376 21.7569 71.906 21.9836 72.5359 21.9836C72.9659 21.9836 73.3259 21.867 73.6193 21.6336C73.9126 21.3969 74.1359 21.0203 74.2826 20.5003ZM74.4392 17.727C74.4192 16.9304 74.2159 16.327 73.8259 15.9137C73.4359 15.5004 72.9593 15.2938 72.3993 15.2938C71.7993 15.2938 71.306 15.5137 70.916 15.9504C70.526 16.3837 70.3326 16.9771 70.3394 17.727H74.4392ZM79.2357 23.8002V9.48389H81.979V23.8002H79.2357Z" fill="#E77817"/>
<path d="M84.5657 12.0238V9.48389H87.309V12.0238H84.5657ZM87.309 13.4305V23.477C87.309 24.8003 87.2223 25.7335 87.0523 26.2769C86.879 26.8202 86.5457 27.2435 86.0557 27.5502C85.5624 27.8569 84.9357 28.0101 84.1757 28.0101C83.9024 28.0101 83.6058 27.9835 83.2924 27.9368C82.9757 27.8868 82.6357 27.8135 82.2725 27.7168L82.7491 25.3735C82.8791 25.3969 83.0024 25.4202 83.1157 25.4368C83.2291 25.4536 83.3357 25.4602 83.4324 25.4602C83.7124 25.4602 83.9424 25.4002 84.1224 25.2802C84.3024 25.1602 84.4191 25.0135 84.479 24.8435C84.5357 24.6769 84.5657 24.1669 84.5657 23.3202V13.4305H87.309ZM89.3789 18.467C89.3789 17.557 89.6056 16.6737 90.0522 15.8204C90.5022 14.9704 91.1388 14.3171 91.9621 13.8704C92.7854 13.4205 93.7055 13.1938 94.7221 13.1938C96.2887 13.1938 97.5754 13.7038 98.5787 14.7238C99.582 15.7437 100.082 17.0304 100.082 18.587C100.082 20.1537 99.5754 21.4536 98.5653 22.4869C97.552 23.5202 96.2787 24.0336 94.7421 24.0336C93.7888 24.0336 92.8855 23.8202 92.0222 23.3903C91.1588 22.9602 90.5022 22.3303 90.0522 21.5003C89.6056 20.6703 89.3789 19.6603 89.3789 18.467ZM92.1922 18.6137C92.1922 19.6437 92.4355 20.4303 92.9255 20.977C93.4121 21.5236 94.0154 21.7969 94.7322 21.7969C95.4488 21.7969 96.0487 21.5236 96.532 20.977C97.0187 20.4303 97.262 19.637 97.262 18.5937C97.262 17.5804 97.0187 16.7971 96.532 16.2504C96.0487 15.7037 95.4488 15.4304 94.7322 15.4304C94.0154 15.4304 93.4121 15.7037 92.9255 16.2504C92.4355 16.7971 92.1922 17.587 92.1922 18.6137ZM101.949 23.8002V9.48389H104.692V14.6405C105.539 13.6772 106.539 13.1938 107.698 13.1938C108.962 13.1938 110.005 13.6538 110.835 14.5671C111.662 15.4804 112.075 16.7937 112.075 18.507C112.075 20.277 111.652 21.6436 110.808 22.6002C109.965 23.5569 108.942 24.0336 107.738 24.0336C107.145 24.0336 106.562 23.8869 105.985 23.5903C105.408 23.2936 104.912 22.8569 104.495 22.2769V23.8002H101.949ZM104.672 18.3903C104.672 19.4637 104.842 20.257 105.179 20.7736C105.655 21.5036 106.285 21.867 107.075 21.867C107.678 21.867 108.195 21.6069 108.622 21.0903C109.048 20.5737 109.262 19.757 109.262 18.6437C109.262 17.4604 109.045 16.6037 108.615 16.0804C108.189 15.5571 107.639 15.2938 106.965 15.2938C106.308 15.2938 105.762 15.5504 105.325 16.0604C104.888 16.5737 104.672 17.3471 104.672 18.3903ZM113.998 23.8002V9.48389H116.742V14.6405C117.588 13.6772 118.588 13.1938 119.748 13.1938C121.012 13.1938 122.055 13.6538 122.885 14.5671C123.711 15.4804 124.125 16.7937 124.125 18.507C124.125 20.277 123.701 21.6436 122.858 22.6002C122.015 23.5569 120.991 24.0336 119.788 24.0336C119.195 24.0336 118.612 23.8869 118.035 23.5903C117.458 23.2936 116.962 22.8569 116.545 22.2769V23.8002H113.998ZM116.722 18.3903C116.722 19.4637 116.892 20.257 117.228 20.7736C117.705 21.5036 118.335 21.867 119.125 21.867C119.728 21.867 120.245 21.6069 120.672 21.0903C121.098 20.5737 121.311 19.757 121.311 18.6437C121.311 17.4604 121.095 16.6037 120.665 16.0804C120.238 15.5571 119.688 15.2938 119.015 15.2938C118.358 15.2938 117.812 15.5504 117.375 16.0604C116.938 16.5737 116.722 17.3471 116.722 18.3903ZM132.168 20.5003L134.904 20.957C134.551 21.9603 133.998 22.7236 133.238 23.2469C132.481 23.7736 131.531 24.0336 130.391 24.0336C128.588 24.0336 127.255 23.4469 126.388 22.2669C125.705 21.3236 125.361 20.1303 125.361 18.6937C125.361 16.9737 125.811 15.627 126.711 14.6537C127.608 13.6804 128.745 13.1938 130.118 13.1938C131.661 13.1938 132.878 13.7038 133.771 14.7238C134.661 15.7437 135.088 17.3037 135.051 19.407H128.175C128.195 20.2203 128.415 20.8536 128.838 21.3036C129.261 21.7569 129.791 21.9836 130.421 21.9836C130.851 21.9836 131.211 21.867 131.505 21.6336C131.798 21.3969 132.021 21.0203 132.168 20.5003ZM132.325 17.727C132.305 16.9304 132.101 16.327 131.711 15.9137C131.321 15.5004 130.845 15.2938 130.285 15.2938C129.685 15.2938 129.191 15.5137 128.801 15.9504C128.411 16.3837 128.218 16.9771 128.225 17.727H132.325ZM139.748 23.8002H137.004V13.4305H139.551V14.9038C139.988 14.2071 140.381 13.7471 140.728 13.5271C141.078 13.3072 141.471 13.1938 141.914 13.1938C142.541 13.1938 143.141 13.3671 143.721 13.7138L142.871 16.1037C142.411 15.807 141.981 15.6571 141.584 15.6571C141.198 15.6571 140.874 15.7604 140.608 15.9738C140.338 16.1838 140.131 16.5671 139.978 17.1204C139.824 17.6737 139.748 18.8336 139.748 20.597V23.8002ZM143.634 23.8002V21.0569H146.377V23.8002H143.634ZM158.067 16.497L155.36 16.9837C155.271 16.4437 155.064 16.0371 154.741 15.7637C154.417 15.4904 154.001 15.3537 153.487 15.3537C152.801 15.3537 152.257 15.5904 151.851 16.0604C151.444 16.5338 151.241 17.3237 151.241 18.4303C151.241 19.6603 151.447 20.5303 151.861 21.037C152.274 21.5436 152.827 21.7969 153.524 21.7969C154.047 21.7969 154.471 21.6503 154.804 21.3536C155.137 21.0569 155.37 20.5469 155.507 19.8269L158.204 20.2836C157.924 21.5202 157.384 22.4569 156.59 23.0869C155.797 23.7203 154.734 24.0336 153.397 24.0336C151.881 24.0336 150.671 23.5569 149.771 22.6002C148.867 21.6436 148.417 20.317 148.417 18.6237C148.417 16.9137 148.871 15.5804 149.774 14.6271C150.681 13.6704 151.904 13.1938 153.447 13.1938C154.711 13.1938 155.714 13.4671 156.46 14.0104C157.204 14.5538 157.741 15.3837 158.067 16.497ZM159.344 18.467C159.344 17.557 159.57 16.6737 160.017 15.8204C160.467 14.9704 161.104 14.3171 161.927 13.8704C162.75 13.4205 163.67 13.1938 164.687 13.1938C166.254 13.1938 167.54 13.7038 168.544 14.7238C169.547 15.7437 170.047 17.0304 170.047 18.587C170.047 20.1537 169.54 21.4536 168.53 22.4869C167.517 23.5202 166.244 24.0336 164.707 24.0336C163.754 24.0336 162.85 23.8202 161.987 23.3903C161.124 22.9602 160.467 22.3303 160.017 21.5003C159.57 20.6703 159.344 19.6603 159.344 18.467ZM162.157 18.6137C162.157 19.6437 162.4 20.4303 162.89 20.977C163.377 21.5236 163.98 21.7969 164.697 21.7969C165.414 21.7969 166.014 21.5236 166.497 20.977C166.983 20.4303 167.227 19.637 167.227 18.5937C167.227 17.5804 166.983 16.7971 166.497 16.2504C166.014 15.7037 165.414 15.4304 164.697 15.4304C163.98 15.4304 163.377 15.7037 162.89 16.2504C162.4 16.7971 162.157 17.587 162.157 18.6137ZM171.823 13.4305H174.353V14.8437C175.257 13.7438 176.337 13.1938 177.587 13.1938C178.25 13.1938 178.827 13.3304 179.313 13.6038C179.803 13.8771 180.203 14.2905 180.517 14.8437C180.97 14.2905 181.463 13.8771 181.99 13.6038C182.516 13.3304 183.08 13.1938 183.68 13.1938C184.44 13.1938 185.086 13.3505 185.613 13.6604C186.14 13.9671 186.533 14.4238 186.793 15.0205C186.983 15.4638 187.076 16.1804 187.076 17.1704V23.8002H184.333V17.8737C184.333 16.8437 184.24 16.1804 184.05 15.8804C183.796 15.4904 183.406 15.2938 182.88 15.2938C182.493 15.2938 182.133 15.4104 181.793 15.647C181.456 15.8804 181.213 16.2237 181.063 16.677C180.913 17.1304 180.837 17.8437 180.837 18.8204V23.8002H178.093V18.117C178.093 17.1071 178.043 16.4571 177.947 16.1638C177.85 15.8704 177.697 15.6538 177.493 15.5104C177.287 15.3671 177.01 15.2938 176.657 15.2938C176.233 15.2938 175.853 15.4071 175.517 15.637C175.177 15.8637 174.933 16.1938 174.787 16.6237C174.64 17.0538 174.567 17.7637 174.567 18.7603V23.8002H171.823V13.4305Z" fill="#00A4DB"/>
</svg>
