<svg width="183" height="61" viewBox="0 0 183 61" fill="none" xmlns="http://www.w3.org/2000/svg">
<path d="M13.8332 47.5853V46.8139H18.1858V47.5853H16.4164V54.7493H15.6079V47.5853H13.833H13.8332ZM20.3688 46.8139H24.9165V47.5963H21.1624V50.0782H24.8852V50.8551H21.1624V53.9667H24.8852V54.7491H20.3688V46.8139ZM34.7166 48.2866L34.0903 48.7673C33.7461 48.3181 33.3319 47.9775 32.8475 47.7455C32.3634 47.5135 31.8331 47.3976 31.2532 47.3976C30.6198 47.3976 30.0344 47.5485 29.4948 47.8523C28.9553 48.1561 28.5375 48.5648 28.241 49.0767C27.9445 49.5904 27.7955 50.1666 27.7955 50.8055C27.7955 51.774 28.1269 52.5804 28.7916 53.2286C29.4543 53.8748 30.292 54.1989 31.3028 54.1989C32.413 54.1989 33.3428 53.7644 34.0903 52.8935L34.7166 53.3685C34.3207 53.8711 33.8272 54.2615 33.2363 54.5358C32.6452 54.812 31.9844 54.9482 31.2534 54.9482C29.865 54.9482 28.7715 54.4862 27.9687 53.5619C27.2967 52.7831 26.9598 51.8402 26.9598 50.7357C26.9598 49.5741 27.3667 48.5981 28.1822 47.8047C28.9962 47.0111 30.0161 46.6154 31.2422 46.6154C31.9844 46.6154 32.6525 46.7626 33.2491 47.0554C33.8455 47.3482 34.3353 47.7587 34.7166 48.287V48.2866ZM37.3379 46.8139H38.135V50.1426H42.171V46.8139H42.9682V54.7491H42.171V50.9196H38.135V54.7491H37.3379V46.8139ZM45.9391 54.7491V46.8139H46.1124L51.3873 52.8878V46.8139H52.1697V54.7491H51.9912L46.7604 48.7508V54.7491H45.9391ZM58.926 46.615C60.1265 46.615 61.1318 47.0164 61.9417 47.8173C62.7499 48.6201 63.1552 49.6068 63.1552 50.7797C63.1552 51.9415 62.752 52.9265 61.9437 53.7347C61.1373 54.5448 60.1523 54.948 58.9905 54.948C57.8158 54.948 56.8236 54.5466 56.0133 53.7404C55.205 52.9358 54.8 51.96 54.8 50.8165C54.8 50.0544 54.9842 49.3472 55.3525 48.6973C55.7207 48.0454 56.2233 47.5373 56.8604 47.1672C57.4974 46.799 58.1859 46.615 58.926 46.615ZM58.9647 47.3919C58.3772 47.3919 57.8232 47.5448 57.2965 47.8504C56.7717 48.1561 56.363 48.5684 56.0666 49.0859C55.7719 49.6032 55.6247 50.1813 55.6247 50.8165C55.6247 51.7591 55.9507 52.5546 56.6042 53.2044C57.2559 53.8524 58.044 54.1765 58.9645 54.1765C59.5796 54.1765 60.1483 54.0275 60.6713 53.7292C61.1942 53.4309 61.6029 53.0222 61.8957 52.5047C62.1883 51.9875 62.3357 51.4112 62.3357 50.7797C62.3357 50.1501 62.1885 49.5812 61.8957 49.0711C61.6029 48.5629 61.1906 48.1561 60.6584 47.8502C60.1263 47.5446 59.5611 47.3917 58.9647 47.3917V47.3919ZM65.7857 46.8139H66.5848V53.9832H69.632V54.7491H65.7857V46.8139ZM75.7088 46.615C76.9093 46.615 77.9145 47.0164 78.7246 47.8173C79.5329 48.6201 79.9381 49.6068 79.9381 50.7797C79.9381 51.9415 79.5349 52.9265 78.7264 53.7347C77.92 54.5448 76.9351 54.948 75.7732 54.948C74.5986 54.948 73.6063 54.5466 72.796 53.7404C71.988 52.9358 71.5827 51.96 71.5827 50.8165C71.5827 50.0544 71.767 49.3472 72.1352 48.6973C72.5034 48.0454 73.0061 47.5373 73.6431 47.1672C74.2802 46.799 74.9686 46.615 75.7088 46.615ZM75.7476 47.3919C75.1602 47.3919 74.6061 47.5448 74.0795 47.8504C73.5547 48.1561 73.146 48.5684 72.8495 49.0859C72.5549 49.6032 72.4077 50.1813 72.4077 50.8165C72.4077 51.7591 72.7336 52.5546 73.3871 53.2044C74.0388 53.8524 74.8269 54.1765 75.7474 54.1765C76.3623 54.1765 76.9312 54.0275 77.4542 53.7292C77.9772 53.4309 78.3859 53.0222 78.6785 52.5047C78.9713 51.9875 79.1185 51.4112 79.1185 50.7797C79.1185 50.1501 78.9713 49.5812 78.6785 49.0711C78.3859 48.5629 77.9733 48.1561 77.4412 47.8502C76.909 47.5446 76.3438 47.3917 75.7474 47.3917L75.7476 47.3919ZM90.2241 48.1469L89.609 48.7286C89.1654 48.2941 88.6812 47.9645 88.1546 47.74C87.628 47.5154 87.1143 47.4031 86.6154 47.4031C85.9932 47.4031 85.4002 47.556 84.8368 47.8614C84.2754 48.1672 83.8391 48.5814 83.5296 49.1042C83.2203 49.6272 83.0656 50.1812 83.0656 50.763C83.0656 51.3596 83.2258 51.9267 83.5461 52.4643C83.8665 53.0019 84.3083 53.4252 84.8718 53.7329C85.4371 54.0403 86.0556 54.1932 86.7278 54.1932C87.5452 54.1932 88.2357 53.963 88.7992 53.5029C89.3644 53.0426 89.6977 52.446 89.8026 51.7132H87.2729V50.9472H90.6938C90.6863 52.1733 90.3217 53.1454 89.6001 53.8673C88.8803 54.5891 87.9155 54.948 86.7059 54.948C85.2404 54.948 84.0786 54.449 83.2225 53.4494C82.5635 52.6798 82.2358 51.7906 82.2358 50.7797C82.2358 50.0285 82.4234 49.3289 82.801 48.6807C83.1784 48.0345 83.6975 47.5282 84.3549 47.1618C85.0139 46.7972 85.7579 46.615 86.5881 46.615C87.2603 46.615 87.8935 46.7364 88.4864 46.9796C89.0812 47.2225 89.6593 47.6111 90.2245 48.1469H90.2241ZM93.1288 46.8139H93.9224V54.7491H93.1288V46.8139ZM96.7831 46.8139H101.331V47.5963H97.5767V50.0782H101.299V50.8551H97.5767V53.9667H101.299V54.7491H96.7833V46.8139H96.7831ZM102.921 53.2709L103.595 52.8677C104.07 53.7404 104.618 54.1767 105.241 54.1767C105.506 54.1767 105.756 54.1162 105.99 53.9907C106.224 53.8673 106.402 53.7016 106.524 53.4917C106.647 53.2837 106.708 53.0629 106.708 52.8291C106.708 52.5621 106.618 52.3024 106.437 52.0466C106.189 51.6949 105.736 51.2697 105.078 50.7744C104.418 50.2736 104.005 49.9128 103.843 49.69C103.563 49.3161 103.423 48.9112 103.423 48.4765C103.423 48.1304 103.504 47.8157 103.67 47.5322C103.835 47.2486 104.069 47.0241 104.369 46.86C104.67 46.6961 104.995 46.6152 105.347 46.6152C105.723 46.6152 106.073 46.7073 106.396 46.8931C106.722 47.0774 107.067 47.4198 107.429 47.9151L106.783 48.4066C106.485 48.0109 106.229 47.7494 106.019 47.6241C105.809 47.4991 105.579 47.4344 105.332 47.4344C105.012 47.4344 104.75 47.532 104.546 47.7272C104.344 47.9206 104.243 48.1599 104.243 48.4434C104.243 48.6166 104.278 48.7842 104.349 48.9462C104.423 49.1081 104.554 49.2829 104.743 49.4745C104.848 49.5739 105.191 49.839 105.769 50.266C106.456 50.7742 106.927 51.2254 107.183 51.6211C107.437 52.0169 107.566 52.4128 107.566 52.8124C107.566 53.3886 107.347 53.8878 106.91 54.313C106.472 54.7365 105.942 54.9482 105.316 54.9482C104.833 54.9482 104.397 54.8213 104.005 54.5633C103.613 54.3057 103.252 53.8746 102.92 53.2709H102.921ZM115.352 46.8139H116.934C117.84 46.8139 118.451 46.8543 118.768 46.9336C119.22 47.044 119.591 47.2742 119.88 47.6205C120.167 47.9684 120.311 48.4047 120.311 48.9295C120.311 49.458 120.171 49.8943 119.889 50.2368C119.609 50.5812 119.222 50.8112 118.729 50.9309C118.37 51.0176 117.698 51.0599 116.713 51.0599H116.146V54.7495H115.352V46.8143L115.352 46.8139ZM116.146 47.5853V50.2827L117.49 50.2992C118.033 50.2992 118.429 50.2496 118.681 50.1501C118.933 50.0525 119.13 49.8923 119.274 49.6715C119.419 49.4505 119.491 49.202 119.491 48.9295C119.491 48.6626 119.419 48.4196 119.274 48.1986C119.13 47.9777 118.941 47.8193 118.705 47.7272C118.469 47.6333 118.085 47.5855 117.549 47.5855H116.146L116.146 47.5853ZM122.331 46.8139H123.195L125.822 52.9466L128.498 46.8139H129.361L125.909 54.7491H125.736L122.331 46.8139ZM130.946 47.5853V46.8139H135.298V47.5853H133.529V54.7493H132.72V47.5853H130.946H130.946ZM138.183 53.5617C138.367 53.5617 138.523 53.6279 138.652 53.7569C138.781 53.8858 138.847 54.0442 138.847 54.2319C138.847 54.414 138.781 54.5724 138.652 54.7032C138.523 54.8339 138.367 54.9002 138.183 54.9002C138.001 54.9002 137.844 54.8339 137.713 54.7032C137.584 54.5724 137.52 54.414 137.52 54.2319C137.52 54.0442 137.584 53.8858 137.713 53.7569C137.844 53.6279 138 53.5617 138.183 53.5617ZM146.65 46.8139H147.449V53.9832H150.496V54.7491H146.65V46.8139H146.65ZM152.005 47.5853V46.8139H156.358V47.5853H154.589V54.7493H153.78V47.5853H152.005ZM158.536 54.7493V46.8141H160.182C161.369 46.8141 162.229 46.9098 162.765 47.1012C163.534 47.37 164.136 47.8376 164.569 48.5023C165.004 49.1689 165.219 49.9606 165.219 50.8811C165.219 51.6764 165.048 52.376 164.705 52.9799C164.361 53.5838 163.915 54.0293 163.367 54.3185C162.818 54.6056 162.05 54.7493 161.062 54.7493H158.536ZM159.298 54H160.215C161.31 54 162.07 53.9319 162.496 53.7937C163.092 53.6005 163.562 53.2506 163.902 52.7461C164.245 52.2398 164.416 51.6231 164.416 50.8921C164.416 50.1261 164.23 49.4726 163.86 48.9295C163.49 48.3864 162.974 48.0145 162.311 47.812C161.816 47.6609 160.997 47.5855 159.857 47.5855H159.297V54H159.298ZM168.503 53.5619C168.687 53.5619 168.844 53.6282 168.972 53.7571C169.101 53.886 169.168 54.0444 169.168 54.2321C169.168 54.4142 169.101 54.5726 168.972 54.7034C168.844 54.8341 168.687 54.9004 168.503 54.9004C168.321 54.9004 168.164 54.8341 168.034 54.7034C167.905 54.5726 167.84 54.4142 167.84 54.2321C167.84 54.0444 167.905 53.886 168.034 53.7571C168.164 53.6282 168.321 53.5619 168.503 53.5619Z" fill="#4E5A62"/>
<path fill-rule="evenodd" clip-rule="evenodd" d="M61.6257 14.575C62.325 14.575 62.8921 15.142 62.8921 15.8413C62.8921 16.5408 62.325 17.1079 61.6257 17.1079C60.9265 17.1079 60.3594 16.5408 60.3594 15.8413C60.3594 15.142 60.9265 14.575 61.6257 14.575Z" fill="#D2E28B"/>
<path fill-rule="evenodd" clip-rule="evenodd" d="M72.1615 19.3751C76.3274 22.883 76.8609 29.1062 73.353 33.2721C69.8451 37.438 63.6219 37.9717 59.456 34.4636C55.2901 30.9557 54.7566 24.7325 58.2645 20.5666C61.7724 16.4007 67.9956 15.8672 72.1615 19.3751Z" fill="#FEFEFE"/>
<path d="M70.0125 22.6838C71.1684 23.6571 72.8945 23.5091 73.8678 22.3532C74.8411 21.1974 74.6931 19.4713 73.5373 18.498C72.3814 17.5246 70.6553 17.6726 69.682 18.8285C68.7086 19.9844 68.8566 21.7105 70.0125 22.6838Z" fill="#00B6EB"/>
<path d="M64.8628 21.712C65.7107 22.426 66.9769 22.3174 67.6909 21.4695C68.4048 20.6216 68.2963 19.3554 67.4484 18.6414C66.6005 17.9274 65.3343 18.036 64.6203 18.8839C63.9063 19.7318 64.0149 20.998 64.8628 21.712Z" fill="#91D8F7"/>
<path d="M63.5333 22.4336C64.2207 23.0124 65.2471 22.9244 65.8259 22.237C66.4047 21.5497 66.3167 20.5233 65.6293 19.9445C64.942 19.3657 63.9156 19.4537 63.3368 20.141C62.758 20.8284 62.846 21.8548 63.5333 22.4336Z" fill="#EC268F"/>
<path d="M66.5014 20.5197C67.2413 21.1428 68.3463 21.048 68.9694 20.3081C69.5924 19.5681 69.4977 18.4632 68.7578 17.8401C68.0178 17.217 66.9129 17.3118 66.2898 18.0517C65.6667 18.7916 65.7614 19.8966 66.5014 20.5197Z" fill="#F24F00"/>
<path d="M67.8453 22.5608C68.8169 23.3789 70.2678 23.2545 71.086 22.2829C71.9041 21.3113 71.7797 19.8604 70.8081 19.0422C69.8365 18.224 68.3856 18.3484 67.5674 19.3201C66.7493 20.2917 66.8737 21.7426 67.8453 22.5608Z" fill="#B161A5"/>
<path d="M69.2737 36.2919C70.8975 37.6593 73.3224 37.4513 74.6898 35.8275C76.0572 34.2036 75.8493 31.7788 74.2254 30.4114C72.6015 29.044 70.1767 29.2519 68.8093 30.8758C67.4419 32.4996 67.6498 34.9245 69.2737 36.2919Z" fill="#B2DCD5"/>
<path fill-rule="evenodd" clip-rule="evenodd" d="M77.9296 27.2176C78.8798 29.1784 78.0606 31.538 76.1 32.4882C74.1393 33.4384 71.7796 32.6194 70.8294 30.6586C69.8792 28.6979 70.6985 26.3382 72.659 25.388C74.6198 24.4379 76.9794 25.2569 77.9298 27.2176H77.9296Z" fill="#EC268F"/>
<path d="M70.0271 34.0818C70.8347 35.7482 72.8404 36.4445 74.5069 35.6368C76.1734 34.8292 76.8696 32.8235 76.062 31.1571C75.2543 29.4906 73.2487 28.7944 71.5822 29.602C69.9157 30.4096 69.2195 32.4153 70.0271 34.0818Z" fill="#7A75B5"/>
<path d="M71.5019 24.9727C72.8997 26.1498 74.9871 25.9708 76.1641 24.573C77.3411 23.1751 77.1622 21.0878 75.7644 19.9108C74.3665 18.7337 72.2792 18.9127 71.1022 20.3105C69.9251 21.7083 70.1041 23.7957 71.5019 24.9727Z" fill="#FCD640"/>
<path d="M61.7606 34.2379C63.641 35.8213 66.4489 35.5806 68.0323 33.7002C69.6157 31.8198 69.3749 29.0119 67.4946 27.4285C65.6142 25.8451 62.8063 26.0859 61.2229 27.9662C59.6395 29.8466 59.8802 32.6546 61.7606 34.2379Z" fill="#EC268F"/>
<path d="M75.0344 26.2525C75.8762 26.9614 77.1333 26.8536 77.8422 26.0118C78.5511 25.1699 78.4433 23.9128 77.6014 23.2039C76.7596 22.4951 75.5025 22.6029 74.7936 23.4447C74.0847 24.2865 74.1925 25.5436 75.0344 26.2525Z" fill="#0098DA"/>
<path d="M67.5535 36.5391C68.7228 37.5237 70.469 37.374 71.4536 36.2047C72.4383 35.0354 72.2885 33.2892 71.1192 32.3046C69.9499 31.3199 68.2037 31.4697 67.2191 32.639C66.2345 33.8083 66.3842 35.5545 67.5535 36.5391Z" fill="#57A695"/>
<path d="M62.7526 38.9619C64.1688 40.1544 66.2835 39.9731 67.476 38.5569C68.6685 37.1408 68.4872 35.026 67.071 33.8335C65.6549 32.641 63.5401 32.8223 62.3476 34.2385C61.1551 35.6547 61.3365 37.7694 62.7526 38.9619Z" fill="#5CC6D0"/>
<path d="M56.9151 36.6481C58.5793 38.0494 61.0644 37.8363 62.4657 36.1721C63.8671 34.508 63.654 32.0229 61.9898 30.6216C60.3256 29.2202 57.8406 29.4333 56.4392 31.0975C55.0379 32.7617 55.251 35.2467 56.9151 36.6481Z" fill="#FFF688"/>
<path d="M60.2506 27.184C61.5312 28.2624 63.4435 28.0984 64.5219 26.8178C65.6002 25.5372 65.4363 23.6249 64.1557 22.5465C62.8751 21.4682 60.9627 21.6321 59.8844 22.9127C58.806 24.1933 58.97 26.1057 60.2506 27.184Z" fill="#BAE85C"/>
<path d="M56.4153 30.7995C58.0115 32.1436 60.3952 31.9393 61.7393 30.343C63.0835 28.7468 62.8791 26.3631 61.2828 25.019C59.6866 23.6748 57.3029 23.8792 55.9588 25.4755C54.6147 27.0717 54.8191 29.4554 56.4153 30.7995Z" fill="#00AFEF"/>
<path d="M62.1925 23.4519C62.8799 24.0307 63.9063 23.9427 64.4851 23.2554C65.0639 22.568 64.9759 21.5416 64.2885 20.9628C63.6012 20.384 62.5747 20.472 61.996 21.1594C61.4172 21.8467 61.5052 22.8731 62.1925 23.4519Z" fill="#FC8CA1"/>
<path d="M55.6713 25.5042C57.1436 26.744 59.3423 26.5555 60.5822 25.0831C61.822 23.6107 61.6335 21.412 60.1611 20.1722C58.6887 18.9323 56.49 19.1209 55.2502 20.5932C54.0103 22.0656 54.1989 24.2643 55.6713 25.5042Z" fill="#64B960"/>
<path fill-rule="evenodd" clip-rule="evenodd" d="M65.8084 21.4717C68.8157 21.4717 71.2547 23.9105 71.2547 26.9178C71.2547 29.9253 68.8159 32.364 65.8084 32.364C62.8011 32.364 60.3623 29.9253 60.3623 26.9178C60.3623 23.9105 62.8011 21.4717 65.8084 21.4717Z" fill="#FEFEFE"/>
<path fill-rule="evenodd" clip-rule="evenodd" d="M60.1924 6.04761C60.8599 6.04761 61.4014 6.58908 61.4014 7.25663C61.4014 7.92417 60.8599 8.46564 60.1924 8.46564C59.5249 8.46564 58.9834 7.92417 58.9834 7.25663C58.9834 6.58908 59.5249 6.04761 60.1924 6.04761Z" fill="#91D8F7"/>
<path fill-rule="evenodd" clip-rule="evenodd" d="M65.6182 9.85425C66.5351 9.85425 67.2784 10.5978 67.2784 11.5145C67.2784 12.4311 66.5351 13.1747 65.6182 13.1747C64.7014 13.1747 63.958 12.4313 63.958 11.5145C63.958 10.5976 64.7016 9.85425 65.6182 9.85425Z" fill="#FFCC29"/>
<path fill-rule="evenodd" clip-rule="evenodd" d="M59.2087 10.167C59.7677 10.167 60.2209 10.6204 60.2209 11.1792C60.2209 11.7382 59.7675 12.1914 59.2087 12.1914C58.6497 12.1914 58.1963 11.7382 58.1963 11.1792C58.1963 10.6202 58.6497 10.167 59.2087 10.167Z" fill="#ED2F59"/>
<path fill-rule="evenodd" clip-rule="evenodd" d="M58.8542 12.0393C59.3453 12.0393 59.7436 12.4376 59.7436 12.9287C59.7436 13.4199 59.3453 13.8181 58.8542 13.8181C58.3632 13.8181 57.9648 13.4197 57.9648 12.9287C57.9648 12.4376 58.3632 12.0393 58.8542 12.0393Z" fill="#FFCC29"/>
<path fill-rule="evenodd" clip-rule="evenodd" d="M61.7945 11.4983C62.9825 11.4983 63.9461 12.4619 63.9461 13.6502C63.9461 14.8382 62.9825 15.8018 61.7945 15.8018C60.6062 15.8018 59.6426 14.8382 59.6426 13.6502C59.6426 12.4619 60.6062 11.4983 61.7945 11.4983Z" fill="#91D8F7"/>
<path fill-rule="evenodd" clip-rule="evenodd" d="M62.7719 7.67969C63.0946 7.67969 63.3563 7.94138 63.3563 8.26386C63.3563 8.58655 63.0946 8.84824 62.7719 8.84824C62.4492 8.84824 62.1875 8.58655 62.1875 8.26386C62.1875 7.94117 62.4492 7.67969 62.7719 7.67969Z" fill="#605F54"/>
<path fill-rule="evenodd" clip-rule="evenodd" d="M57.057 6.52295C57.3797 6.52295 57.6414 6.78464 57.6414 7.10733C57.6414 7.43002 57.3797 7.69171 57.057 7.69171C56.7343 7.69171 56.4727 7.43002 56.4727 7.10733C56.4727 6.78464 56.7343 6.52295 57.057 6.52295Z" fill="#605F54"/>
<path fill-rule="evenodd" clip-rule="evenodd" d="M66.0788 15.902C66.8185 16.525 66.9135 17.6301 66.2905 18.37C65.6677 19.1098 64.5623 19.2047 63.8226 18.5817C63.0827 17.9589 62.9879 16.8536 63.6109 16.1139C64.234 15.3739 65.3391 15.2792 66.0788 15.9022V15.902Z" fill="#FDD52E"/>
<path d="M30.3733 11.9301H35.1953C37.8057 11.9301 39.6847 12.1741 40.8374 12.6562C41.9903 13.1383 42.9047 13.9142 43.5698 14.9951C44.2347 16.0703 44.5673 17.3617 44.5673 18.8637C44.5673 20.5319 44.1294 21.9176 43.2593 23.0205C42.389 24.129 41.203 24.8938 39.7122 25.3263C38.8364 25.5756 37.2402 25.7032 34.9234 25.7032V35.8181H30.373V11.9303L30.3733 11.9301ZM34.9236 21.2692H36.3647C37.5009 21.2692 38.2933 21.186 38.7368 21.0252C39.1802 20.8643 39.5294 20.5929 39.7843 20.2216C40.0393 19.8503 40.1668 19.3959 40.1668 18.8637C40.1668 17.9436 39.8065 17.273 39.0971 16.8519C38.5761 16.536 37.6117 16.3808 36.204 16.3808H34.9239V21.2694L34.9236 21.2692ZM47.4882 18.1488H51.2847V20.3767C51.7003 19.501 52.2436 18.8359 52.9254 18.3814C53.6071 17.9215 54.3552 17.6942 55.17 17.6942C55.7407 17.6942 56.3393 17.8493 56.9713 18.1486L55.5911 21.9672C55.0701 21.7067 54.6433 21.5792 54.3052 21.5792C53.6234 21.5792 53.0472 22.0006 52.576 22.843C52.1049 23.6909 51.8721 25.3425 51.8721 27.8145L51.8888 28.6735V35.8177H47.488V18.1486L47.4882 18.1488ZM79.512 10.8772C80.2879 10.8772 80.9585 11.1598 81.5183 11.7196C82.0726 12.2849 82.3497 12.9667 82.3497 13.7647C82.3497 14.5573 82.0781 15.2336 81.524 15.7877C80.9697 16.3475 80.3103 16.6246 79.5454 16.6246C78.7528 16.6246 78.0767 16.342 77.5224 15.771C76.9626 15.2058 76.6855 14.513 76.6855 13.7037C76.6855 12.9223 76.9626 12.2572 77.5114 11.7029C78.0657 11.1541 78.7306 10.8772 79.5122 10.8772H79.512ZM77.2841 18.1488H81.7347V35.8179H77.2841V18.1488ZM85.7418 18.1488H90.159V19.9556C91.1677 19.1077 92.0766 18.5201 92.8969 18.1931C93.7116 17.8607 94.5485 17.6944 95.4019 17.6944C97.1589 17.6944 98.6443 18.3096 99.8692 19.5345C100.9 20.5709 101.41 22.1063 101.41 24.1457V35.8181H97.0259V28.0753C97.0259 25.9637 96.9318 24.5615 96.7433 23.8688C96.5548 23.176 96.2224 22.6494 95.751 22.2836C95.2799 21.9233 94.7035 21.7405 94.0107 21.7405C93.1073 21.7405 92.3369 22.0398 91.6939 22.6439C91.051 23.2425 90.602 24.0739 90.3527 25.1325C90.2253 25.6868 90.1588 26.8838 90.1588 28.724V35.8183H85.7415V18.1492L85.7418 18.1488ZM106.238 11.6421H110.655V18.1488H113.282V21.9674H110.655V28.979C110.654 30.1772 110.599 31.1453 111.153 31.6725C111.933 32.4151 112.804 32.2902 113.474 32.2805L113.493 35.8356C112.441 35.9651 109.122 36.1674 107.666 34.7418C106.822 33.9157 106.237 32.5853 106.237 30.1567V21.9672H103.965V18.1486H106.237V11.6419L106.238 11.6421ZM133.373 28.2693H119.129C119.334 29.5219 119.889 30.5196 120.781 31.2622C121.673 32.0048 122.809 32.376 124.195 32.376C125.852 32.376 127.277 31.7941 128.468 30.6357L132.204 32.3927C131.273 33.7117 130.159 34.6873 128.856 35.3246C127.559 35.9565 126.018 36.2723 124.228 36.2723C121.457 36.2723 119.201 35.3966 117.461 33.6507C115.715 31.8994 114.845 29.7101 114.845 27.0831C114.845 24.384 115.715 22.1504 117.45 20.3655C119.19 18.5864 121.368 17.6942 123.984 17.6942C126.767 17.6942 129.028 18.5866 130.774 20.3655C132.514 22.1502 133.39 24.5001 133.39 27.421L133.373 28.2689L133.373 28.2693ZM128.923 24.7777C128.629 23.7911 128.052 22.993 127.194 22.3722C126.334 21.757 125.331 21.4467 124.195 21.4467C122.965 21.4467 121.878 21.7958 120.947 22.4886C120.365 22.9208 119.822 23.6858 119.323 24.7775H128.923V24.7777ZM136.959 18.149H141.376V19.9558C142.385 19.1079 143.294 18.5203 144.114 18.1933C144.929 17.8609 145.766 17.6946 146.619 17.6946C148.376 17.6946 149.862 18.3098 151.087 19.5347C152.118 20.5711 152.627 22.1065 152.627 24.1459V35.8183H148.243V28.0755C148.243 25.9639 148.149 24.5617 147.961 23.869C147.772 23.1762 147.44 22.6496 146.969 22.2838C146.498 21.9235 145.921 21.7407 145.228 21.7407C144.325 21.7407 143.555 22.04 142.912 22.6441C142.269 23.2427 141.82 24.0741 141.57 25.1327C141.443 25.687 141.376 26.884 141.376 28.7242V35.8185H136.959V18.1494V18.149Z" fill="#4E5A62"/>
</svg>
