<svg width="20" height="26" viewBox="0 0 20 26" fill="none" xmlns="http://www.w3.org/2000/svg">
<path d="M2.52786 16.0669L3.50039 10.3649C3.50039 10.3649 0.490161 8.74931 1.69425 5.47064C2.89834 2.19198 6.00119 3.23736 6.00119 3.23736" stroke="#4B4768" stroke-width="1.5" stroke-linecap="round" stroke-linejoin="round"/>
<path d="M5.49181 4.61529C5.49181 4.61529 6.04755 1.14657 9.70613 1.00401C13.3647 0.861467 14.0594 4.56778 14.0594 4.56778" stroke="#4B4768" stroke-width="1.5" stroke-linecap="round" stroke-linejoin="round"/>
<path d="M13.7814 3.5224C13.7814 3.5224 17.579 2.80963 18.0884 5.94576C18.5978 9.08186 16.4675 10.3173 16.4675 10.3173L17.3937 16.2569" stroke="#4B4768" stroke-width="1.5" stroke-linecap="round" stroke-linejoin="round"/>
<path fill-rule="evenodd" clip-rule="evenodd" d="M3.08356 20.6285C3.08356 20.6285 1.87931 20.2246 1.48579 19.3218C1.09226 18.419 0.906918 17.4923 1.04586 17.0647C1.18479 16.637 1.87947 15.9718 2.80569 16.3519C2.80569 16.3519 6.23272 15.164 9.9376 15.2591C13.6425 15.3541 17.4863 16.2569 17.4863 16.2569C17.4863 16.2569 18.2508 15.9957 18.8292 16.7085C19.4076 17.4212 18.3778 19.714 17.8105 20.0583C17.2433 20.4025 16.8727 20.3909 16.8727 20.3909C16.8727 20.3909 15.0782 25 10.3081 25C5.53802 25 3.08353 20.6285 3.08353 20.6285L3.08356 20.6285Z" stroke="#4B4768" stroke-width="1.5" stroke-linecap="round" stroke-linejoin="round"/>
<path fill-rule="evenodd" clip-rule="evenodd" d="M7.04723 17.5688C7.60926 17.5688 8.06512 18.0365 8.06512 18.6132C8.06512 19.1899 7.60926 19.6575 7.04723 19.6575C6.48519 19.6575 6.02939 19.1899 6.02939 18.6132C6.02939 18.0365 6.48519 17.5688 7.04723 17.5688Z" fill="#4B4768"/>
<path fill-rule="evenodd" clip-rule="evenodd" d="M12.8512 17.5238C13.4133 17.5238 13.8691 17.9915 13.8691 18.5681C13.8691 19.1448 13.4133 19.6125 12.8512 19.6125C12.2892 19.6125 11.8334 19.1448 11.8334 18.5681C11.8334 17.9915 12.2892 17.5238 12.8512 17.5238Z" fill="#4B4768"/>
<path fill-rule="evenodd" clip-rule="evenodd" d="M5.65933 21.6276C5.65933 21.6276 7.20926 21.1292 7.67192 20.7257C8.13459 20.3222 8.85171 20.3696 8.85171 20.3696C8.85171 20.3696 9.29124 21.1292 9.9621 21.1292C10.633 21.1292 10.98 20.2984 10.98 20.2984C10.98 20.2984 11.6971 20.3222 12.4836 20.8206C13.2702 21.319 14.3343 21.5564 14.3343 21.5564C14.3343 21.5564 13.3164 22.7669 12.4142 22.8856C11.512 23.0043 10.1703 22.8381 9.98524 22.5058C9.98524 22.5058 8.85171 23.0517 8.25024 23.028C7.64879 23.0043 6.3996 22.7194 5.65932 21.6276L5.65933 21.6276Z" fill="#4B4768"/>
<path d="M12.5311 9.50952L13.411 13.691" stroke="#4B4768" stroke-width="1.5" stroke-linecap="round" stroke-linejoin="round"/>
<path d="M9.61355 9.31945L9.65987 13.3584" stroke="#4B4768" stroke-width="1.5" stroke-linecap="round" stroke-linejoin="round"/>
<path d="M6.74214 9.74709L6.18636 13.5484" stroke="#4B4768" stroke-width="1.5" stroke-linecap="round" stroke-linejoin="round"/>
</svg>
