<svg width="20" height="20" viewBox="0 0 20 20" fill="none" xmlns="http://www.w3.org/2000/svg">
<path d="M19.7451 0.242683C19.6327 0.13075 19.4906 0.0532513 19.3356 0.0192998C19.1806 -0.0146517 19.0191 -0.00364489 18.8702 0.0510261L0.537766 6.71735C0.379664 6.77732 0.243548 6.88397 0.147495 7.02313C0.0514428 7.16229 0 7.32738 0 7.49648C0 7.66557 0.0514428 7.83066 0.147495 7.96982C0.243548 8.10899 0.379664 8.21563 0.537766 8.2756L7.69573 11.1338L12.9788 5.83406L14.1537 7.009L8.84567 12.3171L11.7122 19.475C11.7739 19.6301 11.8808 19.763 12.019 19.8566C12.1572 19.9502 12.3203 20.0002 12.4872 20C12.6555 19.9965 12.8189 19.9421 12.9558 19.844C13.0927 19.7458 13.1965 19.6084 13.2538 19.45L19.9201 1.11764C19.9769 0.970209 19.9906 0.809679 19.9596 0.654765C19.9286 0.49985 19.8542 0.356935 19.7451 0.242683Z" fill="#4B4768"/>
</svg>
