<svg width="19" height="20" viewBox="0 0 19 20" fill="none" xmlns="http://www.w3.org/2000/svg">
<path d="M18.154 6.13393C18.0216 6.00057 17.8641 5.89482 17.6905 5.82278C17.5169 5.75075 17.3308 5.71387 17.1429 5.71429H14.2857V5C14.2857 3.67392 13.7589 2.40215 12.8212 1.46447C11.8836 0.526784 10.6118 0 9.28571 0C7.95963 0 6.68786 0.526784 5.75018 1.46447C4.8125 2.40215 4.28571 3.67392 4.28571 5V5.71429H1.42857C1.04969 5.71429 0.686328 5.8648 0.418419 6.13271C0.15051 6.40061 0 6.76398 0 7.14286V16.7857C0 18.5268 1.47321 20 3.21429 20H15.3571C16.1993 20.0003 17.0082 19.671 17.6107 19.0826C17.9139 18.7933 18.1554 18.4456 18.3205 18.0604C18.4856 17.6752 18.571 17.2606 18.5714 16.8415V7.14286C18.572 6.95544 18.5354 6.76977 18.4638 6.59659C18.3921 6.42341 18.2868 6.26615 18.154 6.13393V6.13393ZM12.7004 10.8036L8.70045 15.8036C8.63476 15.8856 8.55176 15.9522 8.45739 15.9985C8.36301 16.0448 8.25957 16.0697 8.15446 16.0714H8.14286C8.03969 16.0714 7.93774 16.0491 7.84402 16.0059C7.75031 15.9628 7.66706 15.8998 7.6 15.8214L5.88571 13.8179C5.82474 13.7466 5.77841 13.664 5.74936 13.5748C5.72031 13.4856 5.70912 13.3915 5.71641 13.298C5.72371 13.2045 5.74936 13.1133 5.79188 13.0297C5.83441 12.9461 5.893 12.8717 5.96429 12.8107C6.03558 12.7497 6.11818 12.7034 6.20737 12.6744C6.29657 12.6453 6.39061 12.6341 6.48413 12.6414C6.57765 12.6487 6.66882 12.6744 6.75243 12.7169C6.83604 12.7594 6.91046 12.818 6.97143 12.8893L8.125 14.2371L11.5853 9.91071C11.7037 9.76271 11.876 9.66781 12.0644 9.64688C12.2528 9.62595 12.4417 9.68071 12.5897 9.79911C12.7377 9.91751 12.8326 10.0899 12.8536 10.2782C12.8745 10.4666 12.8197 10.6556 12.7013 10.8036H12.7004ZM12.8571 5.71429H5.71429V5C5.71429 4.0528 6.09056 3.14439 6.76033 2.47462C7.43011 1.80485 8.33851 1.42857 9.28571 1.42857C10.2329 1.42857 11.1413 1.80485 11.8111 2.47462C12.4809 3.14439 12.8571 4.0528 12.8571 5V5.71429Z" fill="#0099FF"/>
</svg>
