<svg width="20" height="16" viewBox="0 0 20 16" fill="none" xmlns="http://www.w3.org/2000/svg">
<path d="M2.25 0C1.65326 0 1.08097 0.237053 0.65901 0.65901C0.237053 1.08097 0 1.65326 0 2.25V4.75C0 5.34674 0.237053 5.91903 0.65901 6.34099C1.08097 6.76295 1.65326 7 2.25 7H4.75C5.34674 7 5.91903 6.76295 6.34099 6.34099C6.76295 5.91903 7 5.34674 7 4.75V2.25C7 1.65326 6.76295 1.08097 6.34099 0.65901C5.91903 0.237053 5.34674 0 4.75 0H2.25ZM9.25 1C9.05109 1 8.86032 1.07902 8.71967 1.21967C8.57902 1.36032 8.5 1.55109 8.5 1.75C8.5 1.94891 8.57902 2.13968 8.71967 2.28033C8.86032 2.42098 9.05109 2.5 9.25 2.5H19.25C19.4489 2.5 19.6397 2.42098 19.7803 2.28033C19.921 2.13968 20 1.94891 20 1.75C20 1.55109 19.921 1.36032 19.7803 1.21967C19.6397 1.07902 19.4489 1 19.25 1H9.25ZM9.25 4C9.05109 4 8.86032 4.07902 8.71967 4.21967C8.57902 4.36032 8.5 4.55109 8.5 4.75C8.5 4.94891 8.57902 5.13968 8.71967 5.28033C8.86032 5.42098 9.05109 5.5 9.25 5.5H16.25C16.4489 5.5 16.6397 5.42098 16.7803 5.28033C16.921 5.13968 17 4.94891 17 4.75C17 4.55109 16.921 4.36032 16.7803 4.21967C16.6397 4.07902 16.4489 4 16.25 4H9.25ZM2.25 9C1.65326 9 1.08097 9.23705 0.65901 9.65901C0.237053 10.081 0 10.6533 0 11.25V13.75C0 14.0455 0.058198 14.3381 0.171271 14.611C0.284344 14.884 0.450078 15.1321 0.65901 15.341C0.867942 15.5499 1.11598 15.7157 1.38896 15.8287C1.66194 15.9418 1.95453 16 2.25 16H4.75C5.04547 16 5.33806 15.9418 5.61104 15.8287C5.88402 15.7157 6.13206 15.5499 6.34099 15.341C6.54992 15.1321 6.71566 14.884 6.82873 14.611C6.9418 14.3381 7 14.0455 7 13.75V11.25C7 10.6533 6.76295 10.081 6.34099 9.65901C5.91903 9.23705 5.34674 9 4.75 9H2.25ZM9.25 10C9.05109 10 8.86032 10.079 8.71967 10.2197C8.57902 10.3603 8.5 10.5511 8.5 10.75C8.5 10.9489 8.57902 11.1397 8.71967 11.2803C8.86032 11.421 9.05109 11.5 9.25 11.5H19.25C19.4489 11.5 19.6397 11.421 19.7803 11.2803C19.921 11.1397 20 10.9489 20 10.75C20 10.5511 19.921 10.3603 19.7803 10.2197C19.6397 10.079 19.4489 10 19.25 10H9.25ZM9.25 13C9.05109 13 8.86032 13.079 8.71967 13.2197C8.57902 13.3603 8.5 13.5511 8.5 13.75C8.5 13.9489 8.57902 14.1397 8.71967 14.2803C8.86032 14.421 9.05109 14.5 9.25 14.5H16.25C16.4489 14.5 16.6397 14.421 16.7803 14.2803C16.921 14.1397 17 13.9489 17 13.75C17 13.5511 16.921 13.3603 16.7803 13.2197C16.6397 13.079 16.4489 13 16.25 13H9.25Z" fill="#4B4768"/>
</svg>
