<svg width="20" height="19" viewBox="0 0 20 19" fill="none" xmlns="http://www.w3.org/2000/svg">
<path d="M2.66683 18.2499H3.5835V6.33325H2.66683C2.1806 6.33325 1.71428 6.52641 1.37047 6.87022C1.02665 7.21404 0.833496 7.68035 0.833496 8.16658V16.4166C0.833496 16.9028 1.02665 17.3691 1.37047 17.7129C1.71428 18.0568 2.1806 18.2499 2.66683 18.2499ZM17.3335 6.33325H10.9168L11.9453 3.24592C12.0371 2.97038 12.0621 2.67699 12.0183 2.38989C11.9744 2.1028 11.863 1.83023 11.6932 1.59463C11.5234 1.35903 11.3001 1.16714 11.0416 1.03477C10.7831 0.902396 10.4968 0.833327 10.2064 0.833252H10.0002L5.41683 5.81809V18.2499H15.5002L19.0862 10.3703L19.1668 9.99992V8.16658C19.1668 7.68035 18.9737 7.21404 18.6299 6.87022C18.286 6.52641 17.8197 6.33325 17.3335 6.33325V6.33325Z" fill="#4B4768"/>
</svg>
