<svg width="24" height="20" viewBox="0 0 24 20" fill="none" xmlns="http://www.w3.org/2000/svg">
<path d="M22.6781 15.0532L14.6056 1.66567C14.2792 1.15503 13.8295 0.734783 13.2979 0.443683C12.7663 0.152584 12.17 0 11.564 0C10.9579 0 10.3616 0.152584 9.83004 0.443683C9.29847 0.734783 8.84874 1.15503 8.52232 1.66567L0.449833 15.0532C0.164669 15.5285 0.0096761 16.0706 0.000438545 16.6248C-0.00879901 17.1791 0.128044 17.726 0.397209 18.2106C0.708405 18.7561 1.15884 19.2091 1.70249 19.5235C2.24614 19.8378 2.8635 20.0022 3.49149 19.9998H19.6365C20.2603 20.0065 20.8749 19.8484 21.4182 19.5417C21.9615 19.2349 22.4142 18.7903 22.7307 18.2527C23.0078 17.7631 23.149 17.2083 23.1398 16.6458C23.1305 16.0833 22.9711 15.5334 22.6781 15.0532ZM11.564 15.7899C11.3558 15.7899 11.1523 15.7282 10.9793 15.6125C10.8062 15.4969 10.6713 15.3325 10.5916 15.1402C10.512 14.9479 10.4911 14.7363 10.5317 14.5321C10.5723 14.3279 10.6726 14.1404 10.8198 13.9932C10.967 13.846 11.1545 13.7458 11.3586 13.7052C11.5628 13.6646 11.7744 13.6854 11.9667 13.7651C12.1591 13.8447 12.3234 13.9796 12.4391 14.1527C12.5547 14.3258 12.6165 14.5293 12.6165 14.7374C12.6165 15.0166 12.5056 15.2843 12.3082 15.4816C12.1108 15.679 11.8431 15.7899 11.564 15.7899ZM12.6165 11.58C12.6165 11.8591 12.5056 12.1268 12.3082 12.3242C12.1108 12.5216 11.8431 12.6325 11.564 12.6325C11.2848 12.6325 11.0171 12.5216 10.8198 12.3242C10.6224 12.1268 10.5115 11.8591 10.5115 11.58V7.37009C10.5115 7.09096 10.6224 6.82326 10.8198 6.62588C11.0171 6.4285 11.2848 6.31762 11.564 6.31762C11.8431 6.31762 12.1108 6.4285 12.3082 6.62588C12.5056 6.82326 12.6165 7.09096 12.6165 7.37009V11.58Z" fill="#4B4768"/>
</svg>
