<svg width="25" height="18" viewBox="0 0 25 18" fill="none" xmlns="http://www.w3.org/2000/svg">
<path fill-rule="evenodd" clip-rule="evenodd" d="M15.3478 18V16.7096C15.3478 13.1518 12.479 10.2568 8.95272 10.2568H6.39506C2.86882 10.2568 0 13.1518 0 16.7096V18H15.3478H15.3478Z" fill="#4B4768"/>
<path fill-rule="evenodd" clip-rule="evenodd" d="M14.4766 2.37329V4.01066H24.1041V2.37329C17.418 2.37329 20.392 2.37329 14.4766 2.37329Z" fill="#4B4768"/>
<path fill-rule="evenodd" clip-rule="evenodd" d="M14.6094 5.54297V7.18034H24.2369V5.54297C17.5508 5.54297 20.5248 5.54297 14.6094 5.54297Z" fill="#4B4768"/>
<path fill-rule="evenodd" clip-rule="evenodd" d="M14.7422 8.71265V10.35H21.7142V8.71265C16.8723 8.71265 19.0261 8.71265 14.7422 8.71265Z" fill="#4B4768"/>
<path fill-rule="evenodd" clip-rule="evenodd" d="M3.19727 4.51664C3.19727 7.09115 5.12222 9.03368 7.67348 9.03368C10.2254 9.03368 12.15 7.09115 12.15 4.51664C12.15 1.94215 10.2254 0 7.67348 0C5.12222 0 3.19727 1.94215 3.19727 4.51664Z" fill="#4B4768"/>
</svg>
