<?xml version="1.0" encoding="UTF-8"?>
<!DOCTYPE svg PUBLIC "-//W3C//DTD SVG 1.1//EN" "http://www.w3.org/Graphics/SVG/1.1/DTD/svg11.dtd">
<!-- Creator: CorelDRAW 2021 (64-Bit) -->
<svg xmlns="http://www.w3.org/2000/svg" xml:space="preserve" width="8.4666mm" height="8.4666mm" version="1.1" style="shape-rendering:geometricPrecision; text-rendering:geometricPrecision; image-rendering:optimizeQuality; fill-rule:evenodd; clip-rule:evenodd"
viewBox="0 0 846.66 846.66"
 xmlns:xlink="http://www.w3.org/1999/xlink"
 xmlns:xodm="http://www.corel.com/coreldraw/odm/2003">
 <defs>
  <style type="text/css">
   <![CDATA[
    .fil0 {fill:#C4C4C4;fill-rule:nonzero}
    .fil1 {fill:white;fill-rule:nonzero}
   ]]>
  </style>
 </defs>
 <g id="Layer_x0020_1">
  <metadata id="CorelCorpID_0Corel-Layer"/>
  <g id="_2687965091680">
   <circle class="fil0" cx="423.33" cy="423.33" r="338.67"/>
   <path class="fil1" d="M413.05 470.47c-61.28,0.18 -122.57,22.91 -170.87,68.25l-1.07 1.1c-2.19,2.07 -3.98,3.78 -5.36,5.17 -7.69,7.74 -7.78,20.4 -0.22,28.28 7.56,7.87 19.95,7.96 27.65,0.23l4.48 -4.44 1.02 -0.89c41.52,-38.99 94.35,-58.21 146.97,-57.74 53.02,0.46 105.91,20.92 146.91,61.25 1.52,1.48 3.01,3 4.48,4.53 7.57,7.87 19.95,7.97 27.65,0.23 7.69,-7.73 7.77,-20.41 0.22,-28.28 -1.72,-1.8 -3.47,-3.57 -5.25,-5.31 -48.43,-47.64 -110.98,-71.84 -173.69,-72.38 -0.97,-0.01 -1.95,0 -2.92,0l0 0zm-163.54 -199.23c-7.35,0.03 -14.39,4.16 -17.77,11.23 -4.7,9.84 -0.54,21.64 9.3,26.34l56.31 29.77c-1.12,16.95 3.08,34.43 12.62,47.52 7.63,10.47 19.04,18.22 32.4,18.22 33.44,0 46.97,-39.79 44.95,-66.54 -44.43,-19.6 -86,-42.57 -129.24,-64.6 -2.67,-1.29 -5.61,-1.95 -8.57,-1.94l0 0zm331.42 0c-2.96,-0.01 -5.9,0.65 -8.57,1.94 -43.25,22.03 -84.81,45 -129.24,64.6 -2.02,26.75 11.52,66.54 44.95,66.54 13.36,0 24.77,-7.75 32.4,-18.22 9.54,-13.09 13.75,-30.57 12.62,-47.52l56.31 -29.77c9.84,-4.7 14,-16.5 9.3,-26.34 -3.38,-7.07 -10.42,-11.2 -17.77,-11.23l0 0z"/>
  </g>
 </g>
</svg>
