<svg width="42" height="42" viewBox="0 0 42 42" fill="none" xmlns="http://www.w3.org/2000/svg">
<circle cx="21" cy="21" r="21" fill="#C4C4C4"/>
<path d="M14.6521 13.5092C15.585 12.9863 16.7746 12.8637 17.9117 13.1526C18.4655 13.2926 18.9385 13.6525 19.2225 14.1481L20.2035 15.8614C20.5531 16.4722 20.6541 17.1945 20.4854 17.8779C20.3167 18.5614 19.8914 19.1534 19.2979 19.5307L18.4349 20.08C18.0777 20.3064 17.9467 20.6532 18.0286 20.9278C18.3213 21.9103 18.9691 22.9999 19.6813 23.746C19.8932 23.9692 20.2821 24.0217 20.6622 23.7996L21.1396 23.5207C21.4528 23.3378 21.7993 23.2193 22.1587 23.1719C22.5182 23.1246 22.8834 23.1494 23.2332 23.2449C23.583 23.3404 23.9103 23.5047 24.196 23.7283C24.4817 23.9518 24.7201 24.2301 24.8973 24.5469L25.7766 26.1168C26.0639 26.631 26.1109 27.2447 25.9077 27.7972C25.5024 28.8945 24.7214 29.7785 23.7612 30.2227C22.7858 30.6723 21.6443 30.6537 20.6109 29.9634C18.9746 28.8716 17.0029 27.0336 15.2169 23.9681C13.408 20.8611 12.9525 18.2168 13.0038 16.2454C13.0366 14.984 13.7029 14.0409 14.6521 13.5092V13.5092Z" fill="white"/>
<path d="M24.6928 13.0934C24.5662 13.0229 24.4169 13.0056 24.2776 13.0454C24.1383 13.0852 24.0204 13.1788 23.95 13.3056C23.8796 13.4324 23.8624 13.582 23.9022 13.7215C23.9419 13.861 24.0354 13.979 24.162 14.0495L24.5814 14.2837C25.8918 15.0127 27.0065 16.0487 27.8302 17.3031C28.6538 18.5574 29.162 19.9929 29.3113 21.4867L29.3462 21.8314C29.3504 21.9051 29.3694 21.9773 29.4021 22.0435C29.4348 22.1097 29.4806 22.1686 29.5367 22.2166C29.5927 22.2646 29.6579 22.3007 29.7283 22.3228C29.7987 22.3449 29.8728 22.3524 29.9462 22.345C30.0196 22.3376 30.0908 22.3154 30.1553 22.2798C30.2199 22.2441 30.2766 22.1957 30.322 22.1374C30.3674 22.0792 30.4006 22.0124 30.4195 21.941C30.4384 21.8696 30.4427 21.7951 30.432 21.722L30.3982 21.3784C30.2315 19.7085 29.6635 18.1038 28.7428 16.7016C27.8221 15.2994 26.5761 14.1413 25.1112 13.3264L24.6928 13.0934V13.0934Z" fill="white"/>
<path d="M23.4127 16.0255C23.4873 15.9012 23.6081 15.8116 23.7487 15.7766C23.8892 15.7415 24.0379 15.7637 24.162 15.8384L24.2975 15.9194C25.179 16.4489 25.9352 17.1639 26.5138 18.0149C27.0925 18.8658 27.4797 19.8325 27.6488 20.848L27.6968 21.1401C27.711 21.2119 27.7106 21.2859 27.6957 21.3575C27.6808 21.4292 27.6517 21.4972 27.6101 21.5574C27.5685 21.6176 27.5152 21.6688 27.4535 21.708C27.3917 21.7472 27.3227 21.7736 27.2506 21.7856C27.1785 21.7977 27.1047 21.795 27.0336 21.778C26.9625 21.7609 26.8956 21.7297 26.8368 21.6862C26.7779 21.6427 26.7284 21.5879 26.6911 21.5249C26.6539 21.4619 26.6296 21.3921 26.6198 21.3195L26.5706 21.0274C26.4277 20.1682 26.1002 19.3503 25.6108 18.6303C25.1214 17.9102 24.4817 17.3052 23.736 16.857L23.6005 16.776C23.539 16.7391 23.4853 16.6904 23.4426 16.6327C23.3998 16.575 23.3688 16.5094 23.3514 16.4397C23.3339 16.37 23.3304 16.2976 23.3409 16.2265C23.3514 16.1554 23.3758 16.0871 23.4127 16.0255V16.0255Z" fill="white"/>
</svg>
