<svg width="42" height="42" viewBox="0 0 42 42" fill="none" xmlns="http://www.w3.org/2000/svg">
<circle cx="21" cy="21" r="21" fill="#C4C4C4"/>
<path d="M13.8947 30H14.8421V17.6842H13.8947C13.3922 17.6842 12.9103 17.8838 12.555 18.2392C12.1996 18.5945 12 19.0764 12 19.5789V28.1053C12 28.6078 12.1996 29.0897 12.555 29.445C12.9103 29.8004 13.3922 30 13.8947 30ZM29.0526 17.6842H22.4211L23.484 14.4935C23.5788 14.2087 23.6047 13.9055 23.5594 13.6088C23.5141 13.3121 23.3989 13.0304 23.2235 12.7869C23.048 12.5434 22.8171 12.3451 22.55 12.2083C22.2828 12.0715 21.987 12.0001 21.6868 12H21.4737L16.7368 17.1518V30H27.1579L30.864 21.8564L30.9474 21.4737V19.5789C30.9474 19.0764 30.7477 18.5945 30.3924 18.2392C30.0371 17.8838 29.5552 17.6842 29.0526 17.6842V17.6842Z" fill="white"/>
</svg>
