<svg width="42" height="42" viewBox="0 0 42 42" fill="none" xmlns="http://www.w3.org/2000/svg">
<circle cx="21" cy="21" r="21" fill="#C4C4C4"/>
<path d="M10.2218 10C9.76622 10.0013 9.32961 10.2581 9.12001 10.6965C8.82839 11.3064 9.0865 12.0378 9.69646 12.3295L13.1882 14.1752C13.1184 15.2266 13.3792 16.3103 13.9709 17.1221C14.4436 17.7714 15.1515 18.252 15.9798 18.252C18.053 18.252 18.892 15.7845 18.7671 14.1256C16.012 12.9105 13.4347 11.4864 10.753 10.12C10.5873 10.0405 10.4057 9.9995 10.2219 10H10.2218ZM30.7723 10C30.5885 9.9995 30.4069 10.0405 30.2412 10.12C27.5595 11.4864 24.9822 12.9105 22.2271 14.1256C22.1022 15.7846 22.9411 18.252 25.0144 18.252C25.8427 18.252 26.5506 17.7714 27.0233 17.1221C27.615 16.3103 27.8758 15.2266 27.8061 14.1752L31.2978 12.3295C31.9077 12.0378 32.1658 11.3064 31.8742 10.6965C31.6646 10.2581 31.228 10.0013 30.7724 10H30.7723ZM20.3627 22.3539C16.5627 22.3649 12.7625 23.7741 9.7676 26.5859L9.70076 26.6542C9.56545 26.7825 9.45429 26.8886 9.36868 26.9747C8.8915 27.4543 8.8863 28.2395 9.35502 28.7278C9.82367 29.216 10.592 29.2216 11.0692 28.7421L11.3474 28.4669L11.4106 28.4115C13.9852 25.9943 17.2608 24.8021 20.5237 24.8314C23.8112 24.8598 27.0912 26.1287 29.6331 28.6293C29.7273 28.7215 29.82 28.8152 29.9113 28.9103C30.3804 29.3986 31.1483 29.4047 31.6255 28.9247C32.1027 28.4452 32.1078 27.6592 31.6392 27.171C31.5324 27.0595 31.4238 26.9498 31.3136 26.8418C28.3106 23.8877 24.4322 22.3874 20.5438 22.3539C20.4835 22.3534 20.423 22.3537 20.3627 22.3539L20.3627 22.3539Z" fill="white"/>
</svg>
