<svg width="42" height="42" viewBox="0 0 42 42" fill="none" xmlns="http://www.w3.org/2000/svg">
<path d="M0.00842809 42L2.84763 31.5672C0.976817 28.3602 -0.00607032 24.7128 2.82077e-05 21C2.82077e-05 9.40169 9.40172 0 21 0C32.5983 0 42 9.40169 42 21C42 32.5983 32.5983 42 21 42C17.2888 42.006 13.643 41.0238 10.437 39.1545L0.00842809 42ZM13.4211 11.1468C13.1499 11.1636 12.8849 11.2351 12.642 11.3568C12.4142 11.4858 12.2063 11.6471 12.0246 11.8356C11.7726 12.0729 11.6298 12.2787 11.4765 12.4782C10.7004 13.4883 10.2829 14.7282 10.29 16.002C10.2942 17.031 10.563 18.0327 10.983 18.9693C11.8419 20.8635 13.2552 22.869 15.1221 24.7275C15.5715 25.1748 16.0104 25.6242 16.4829 26.0421C18.8 28.0822 21.5612 29.5534 24.5469 30.3387L25.7418 30.5214C26.1303 30.5424 26.5188 30.513 26.9094 30.4941C27.521 30.4625 28.1182 30.2969 28.6587 30.009C28.9337 29.8673 29.2021 29.7132 29.463 29.547C29.463 29.547 29.5533 29.4882 29.7255 29.358C30.009 29.148 30.1833 28.9989 30.4185 28.7532C30.5928 28.5726 30.744 28.3605 30.8595 28.119C31.0233 27.7767 31.1871 27.1236 31.2543 26.5797C31.3047 26.1639 31.29 25.9371 31.2837 25.7964C31.2753 25.5717 31.0884 25.3386 30.8847 25.2399L29.6625 24.6918C29.6625 24.6918 27.8355 23.8959 26.7204 23.3877C26.6028 23.3364 26.4768 23.3072 26.3487 23.3016C26.205 23.2868 26.0598 23.303 25.9229 23.349C25.786 23.395 25.6605 23.4698 25.5549 23.5683V23.5641C25.5444 23.5641 25.4037 23.6838 23.8854 25.5234C23.7983 25.6405 23.6782 25.729 23.5406 25.7776C23.403 25.8262 23.254 25.8328 23.1126 25.7964C22.9758 25.7598 22.8417 25.7135 22.7115 25.6578C22.4511 25.5486 22.3608 25.5066 22.1823 25.4289L22.1718 25.4247C20.9704 24.9002 19.8581 24.1917 18.8748 23.3247C18.6102 23.0937 18.3645 22.8417 18.1125 22.5981C17.2863 21.8069 16.5663 20.9118 15.9705 19.9353L15.8466 19.7358C15.7576 19.6017 15.6857 19.4571 15.6324 19.3053C15.5526 18.9966 15.7605 18.7488 15.7605 18.7488C15.7605 18.7488 16.2708 18.1902 16.5081 17.8878C16.7057 17.6365 16.89 17.375 17.0604 17.1045C17.3082 16.7055 17.3859 16.296 17.2557 15.9789C16.6677 14.5425 16.0587 13.1124 15.4329 11.6928C15.309 11.4114 14.9415 11.2098 14.6076 11.1699C14.4942 11.1573 14.3808 11.1447 14.2674 11.1363C13.9854 11.1223 13.7028 11.1251 13.4211 11.1447V11.1468Z" fill="#C4C4C4"/>
</svg>
