<svg width="18" height="17" viewBox="0 0 18 17" fill="none" xmlns="http://www.w3.org/2000/svg">
<path d="M2.33317 16.5001H3.1665V5.66675H2.33317C1.89114 5.66675 1.46722 5.84234 1.15466 6.1549C0.842099 6.46746 0.666504 6.89139 0.666504 7.33341V14.8334C0.666504 15.2754 0.842099 15.6994 1.15466 16.0119C1.46722 16.3245 1.89114 16.5001 2.33317 16.5001ZM15.6665 5.66675H9.83317L10.7682 2.86008C10.8516 2.60959 10.8743 2.34287 10.8345 2.08188C10.7946 1.82089 10.6934 1.57309 10.539 1.35891C10.3846 1.14473 10.1816 0.970283 9.94657 0.849945C9.71158 0.729606 9.45135 0.666816 9.18734 0.666748H8.99984L4.83317 5.19841V16.5001H13.9998L17.2598 9.33675L17.3332 9.00008V7.33341C17.3332 6.89139 17.1576 6.46746 16.845 6.1549C16.5325 5.84234 16.1085 5.66675 15.6665 5.66675Z" fill="#B7C8EA"/>
</svg>
