<svg width="69" height="26" viewBox="0 0 69 26" fill="none" xmlns="http://www.w3.org/2000/svg">
<g filter="url(#filter0_b_2_4)">
<rect width="69" height="26" rx="3" fill="#FF7676"/>
</g>
<path d="M34.6714 10.1797V15.4971C34.6678 16.2347 34.4351 16.8381 33.9731 17.3071C33.5148 17.7762 32.8918 18.0394 32.104 18.0967L31.8301 18.1074C30.9743 18.1074 30.2922 17.8765 29.7837 17.4146C29.2752 16.9526 29.0174 16.3171 29.0103 15.5078V10.1797H30.0308V15.4756C30.0308 16.0413 30.1865 16.4818 30.498 16.7969C30.8096 17.1084 31.2536 17.2642 31.8301 17.2642C32.4137 17.2642 32.8595 17.1084 33.1675 16.7969C33.479 16.4854 33.6348 16.0467 33.6348 15.481V10.1797H34.6714Z" fill="white"/>
<path d="M37.083 12.1885L37.1152 12.9189C37.5592 12.3604 38.1393 12.0811 38.8555 12.0811C40.0837 12.0811 40.7031 12.7739 40.7139 14.1597V18H39.7202V14.1543C39.7166 13.7354 39.62 13.4256 39.4302 13.2251C39.244 13.0246 38.9521 12.9243 38.5547 12.9243C38.2324 12.9243 37.9495 13.0103 37.7061 13.1821C37.4626 13.354 37.2728 13.5796 37.1367 13.8589V18H36.1431V12.1885H37.083Z" fill="white"/>
<path d="M43.292 18H42.2983V9.75H43.292V18Z" fill="white"/>
<path d="M44.624 15.0405C44.624 14.4712 44.735 13.9591 44.957 13.5044C45.1826 13.0496 45.4941 12.6987 45.8916 12.4517C46.2926 12.2046 46.7492 12.0811 47.2612 12.0811C48.0526 12.0811 48.6917 12.355 49.1787 12.9028C49.6693 13.4507 49.9146 14.1794 49.9146 15.0889V15.1587C49.9146 15.7244 49.8053 16.2329 49.5869 16.6841C49.3721 17.1317 49.0623 17.4808 48.6577 17.7314C48.2567 17.9821 47.7948 18.1074 47.272 18.1074C46.4842 18.1074 45.8451 17.8335 45.3545 17.2856C44.8675 16.7378 44.624 16.0127 44.624 15.1104V15.0405ZM45.623 15.1587C45.623 15.8032 45.7716 16.3206 46.0688 16.7109C46.3696 17.1012 46.7707 17.2964 47.272 17.2964C47.7769 17.2964 48.1779 17.0994 48.4751 16.7056C48.7723 16.3081 48.9209 15.7531 48.9209 15.0405C48.9209 14.4032 48.7687 13.8875 48.4644 13.4937C48.1636 13.0962 47.7625 12.8975 47.2612 12.8975C46.7707 12.8975 46.375 13.0926 46.0742 13.4829C45.7734 13.8732 45.623 14.4318 45.623 15.1587Z" fill="white"/>
<path d="M53.4917 17.2964C53.8462 17.2964 54.1559 17.189 54.4209 16.9741C54.6859 16.7593 54.8327 16.4907 54.8613 16.1685H55.8013C55.7834 16.5015 55.6688 16.8184 55.4575 17.1191C55.2463 17.4199 54.9634 17.6598 54.6089 17.8389C54.258 18.0179 53.8856 18.1074 53.4917 18.1074C52.7004 18.1074 52.0701 17.8442 51.6011 17.3179C51.1356 16.7879 50.9028 16.0646 50.9028 15.1479V14.9814C50.9028 14.4157 51.0067 13.9126 51.2144 13.4722C51.422 13.0317 51.7192 12.6898 52.106 12.4463C52.4963 12.2028 52.9564 12.0811 53.4863 12.0811C54.138 12.0811 54.6787 12.2762 55.1084 12.6665C55.5417 13.0568 55.7726 13.5635 55.8013 14.1865H54.8613C54.8327 13.8105 54.6895 13.5026 54.4316 13.2627C54.1774 13.0192 53.8623 12.8975 53.4863 12.8975C52.9814 12.8975 52.5894 13.0801 52.3101 13.4453C52.0343 13.807 51.8965 14.3315 51.8965 15.019V15.207C51.8965 15.8766 52.0343 16.3923 52.3101 16.7539C52.5858 17.1156 52.9797 17.2964 53.4917 17.2964Z" fill="white"/>
<path d="M58.5405 15.3091L57.9175 15.959V18H56.9238V9.75H57.9175V14.7397L58.4492 14.1006L60.2593 12.1885H61.4678L59.2065 14.6162L61.731 18H60.5654L58.5405 15.3091Z" fill="white"/>
<path d="M11.2399 6.08514C11.6775 5.95321 12.147 5.97513 12.5704 6.14725C12.9938 6.31937 13.3455 6.63131 13.5669 7.03114L13.6419 7.18014L14.3029 8.65114C14.5038 9.09763 14.569 9.59332 14.4904 10.0766C14.4118 10.5598 14.1929 11.0093 13.8609 11.3691L13.7289 11.5011L12.6849 12.4741C12.4969 12.6521 12.6379 13.3411 13.3189 14.5191C13.9299 15.5791 14.4289 16.0741 14.6729 16.1011H14.7159L14.7689 16.0911L16.8189 15.4641C17.0944 15.3796 17.3884 15.3763 17.6658 15.4545C17.9431 15.5327 18.1921 15.6892 18.3829 15.9051L18.4749 16.0201L19.8309 17.9001C20.097 18.2685 20.2297 18.7165 20.2071 19.1704C20.1846 19.6243 20.0081 20.0569 19.7069 20.3971L19.5849 20.5231L19.0419 21.0371C18.5552 21.4981 17.9463 21.8095 17.2878 21.9345C16.6292 22.0595 15.9486 21.9927 15.3269 21.7421C13.3919 20.9621 11.6339 19.1801 10.0369 16.4141C8.43687 13.6411 7.77187 11.2241 8.06887 9.15414C8.15883 8.5283 8.41665 7.93851 8.81493 7.44744C9.21321 6.95637 9.73707 6.58236 10.3309 6.36514L10.5239 6.30114L11.2399 6.08514Z" fill="white"/>
<path d="M23 8C23 7.5588 22.6636 7.2 22.25 7.2H21.875V6C21.875 4.8972 21.0339 4 20 4C18.9661 4 18.125 4.8972 18.125 6V7.2H17.75C17.3364 7.2 17 7.5588 17 8V11.2C17 11.6412 17.3364 12 17.75 12H22.25C22.6636 12 23 11.6412 23 11.2V8ZM18.875 6C18.875 5.3384 19.3798 4.8 20 4.8C20.6202 4.8 21.125 5.3384 21.125 6V7.2H18.875V6Z" fill="white"/>
<defs>
<filter id="filter0_b_2_4" x="-4" y="-4" width="77" height="34" filterUnits="userSpaceOnUse" color-interpolation-filters="sRGB">
<feFlood flood-opacity="0" result="BackgroundImageFix"/>
<feGaussianBlur in="BackgroundImage" stdDeviation="2"/>
<feComposite in2="SourceAlpha" operator="in" result="effect1_backgroundBlur_2_4"/>
<feBlend mode="normal" in="SourceGraphic" in2="effect1_backgroundBlur_2_4" result="shape"/>
</filter>
</defs>
</svg>
