<svg width="15" height="18" viewBox="0 0 15 18" fill="none" xmlns="http://www.w3.org/2000/svg">
<path d="M3.23987 2.08514C3.67745 1.95321 4.14702 1.97513 4.57041 2.14725C4.9938 2.31937 5.34547 2.63131 5.56687 3.03114L5.64187 3.18014L6.30287 4.65114C6.50378 5.09763 6.56899 5.59332 6.49041 6.07658C6.41182 6.55983 6.1929 7.00932 5.86087 7.36914L5.72887 7.50114L4.68487 8.47414C4.49687 8.65214 4.63787 9.34114 5.31887 10.5191C5.92987 11.5791 6.42887 12.0741 6.67287 12.1011H6.71587L6.76887 12.0911L8.81887 11.4641C9.09438 11.3796 9.3884 11.3763 9.66576 11.4545C9.94312 11.5327 10.1921 11.6892 10.3829 11.9051L10.4749 12.0201L11.8309 13.9001C12.097 14.2685 12.2297 14.7165 12.2071 15.1704C12.1846 15.6243 12.0081 16.0569 11.7069 16.3971L11.5849 16.5231L11.0419 17.0371C10.5552 17.4981 9.94634 17.8095 9.28777 17.9345C8.6292 18.0595 7.9486 17.9927 7.32687 17.7421C5.39187 16.9621 3.63387 15.1801 2.03687 12.4141C0.43687 9.64114 -0.22813 7.22414 0.0688697 5.15414C0.158831 4.5283 0.416647 3.93851 0.814926 3.44744C1.21321 2.95637 1.73707 2.58236 2.33087 2.36514L2.52387 2.30114L3.23987 2.08514V2.08514Z" fill="white"/>
<path d="M15 4C15 3.5588 14.6636 3.2 14.25 3.2H13.875V2C13.875 0.8972 13.0339 0 12 0C10.9661 0 10.125 0.8972 10.125 2V3.2H9.75C9.33637 3.2 9 3.5588 9 4V7.2C9 7.6412 9.33637 8 9.75 8H14.25C14.6636 8 15 7.6412 15 7.2V4ZM10.875 2C10.875 1.3384 11.3797 0.8 12 0.8C12.6203 0.8 13.125 1.3384 13.125 2V3.2H10.875V2Z" fill="white"/>
</svg>
