<svg width="16" height="16" viewBox="0 0 16 16" fill="none" xmlns="http://www.w3.org/2000/svg">
<path d="M15.9844 14.9541C15.9844 15.079 15.9141 15.1935 15.7737 15.2976C15.6332 15.4016 15.4172 15.4875 15.1259 15.5551C14.8345 15.6228 14.5353 15.6852 14.2283 15.7424C13.9213 15.7997 13.5285 15.8439 13.0498 15.8751C12.5711 15.9063 12.1548 15.9298 11.801 15.9454C11.4472 15.961 10.9919 15.974 10.4351 15.9844C9.87837 15.9948 9.45691 16 9.17073 16H6.81366L5.54927 15.9844L4.18341 15.9454L2.93463 15.8751L1.7561 15.7424L0.858537 15.5551L0.210732 15.2976L0 14.9541C0.020813 14.0384 0.593171 13.2293 1.71707 12.5268C2.84098 11.8244 4.26667 11.3587 5.99415 11.1298V10.6146C5.45301 10.3753 4.98472 10.0371 4.58927 9.6C4.19382 9.16293 3.88163 8.65041 3.65268 8.06244C3.42374 7.47447 3.25724 6.84488 3.15317 6.17366C3.04911 5.50244 2.99707 4.77659 2.99707 3.9961C2.99707 3.33008 3.12715 2.73691 3.38732 2.21659C3.64748 1.69626 4.0065 1.2774 4.46439 0.96C4.92228 0.642602 5.4478 0.403252 6.04098 0.241951C6.63415 0.0806504 7.28455 0 7.9922 0C8.69984 0 9.35024 0.0806504 9.94341 0.241951C10.5366 0.403252 11.0621 0.642602 11.52 0.96C11.9779 1.2774 12.3369 1.69626 12.5971 2.21659C12.8572 2.73691 12.9873 3.33008 12.9873 3.9961C12.9873 7.63837 11.9883 9.85496 9.99024 10.6459V11.1298C11.7177 11.3587 13.1434 11.8244 14.2673 12.5268C15.3912 13.2293 15.9636 14.0384 15.9844 14.9541Z" fill="#AABBDD"/>
</svg>
