<svg width="18" height="18" viewBox="0 0 18 18" fill="none" xmlns="http://www.w3.org/2000/svg">
<path d="M0.669848 17.3334L1.79651 13.1934C1.05413 11.9208 0.664095 10.4734 0.666515 9.00008C0.666515 4.39758 4.39735 0.666748 8.99985 0.666748C13.6023 0.666748 17.3332 4.39758 17.3332 9.00008C17.3332 13.6026 13.6023 17.3334 8.99985 17.3334C7.52716 17.3358 6.08039 16.9461 4.80818 16.2042L0.669848 17.3334ZM5.99235 5.09008C5.88473 5.09676 5.77958 5.12511 5.68318 5.17341C5.59278 5.22461 5.51026 5.2886 5.43818 5.36341C5.33818 5.45758 5.28151 5.53925 5.22068 5.61841C4.91269 6.01924 4.74702 6.51126 4.74985 7.01675C4.75151 7.42508 4.85818 7.82258 5.02485 8.19425C5.36568 8.94591 5.92651 9.74175 6.66735 10.4792C6.84568 10.6567 7.01985 10.8351 7.20735 11.0009C8.12684 11.8105 9.22256 12.3943 10.4073 12.7059L10.8815 12.7784C11.0357 12.7867 11.1898 12.7751 11.3448 12.7676C11.5875 12.7551 11.8245 12.6893 12.039 12.5751C12.1481 12.5189 12.2546 12.4577 12.3582 12.3917C12.3582 12.3917 12.394 12.3684 12.4623 12.3167C12.5748 12.2334 12.644 12.1742 12.7373 12.0767C12.8065 12.0051 12.8665 11.9209 12.9123 11.8251C12.9773 11.6892 13.0423 11.4301 13.069 11.2142C13.089 11.0492 13.0832 10.9592 13.0807 10.9034C13.0773 10.8142 13.0032 10.7217 12.9223 10.6826L12.4373 10.4651C12.4373 10.4651 11.7123 10.1492 11.2698 9.94758C11.2232 9.92724 11.1732 9.91566 11.1223 9.91341C11.0653 9.90756 11.0077 9.91397 10.9534 9.93223C10.8991 9.95048 10.8493 9.98015 10.8073 10.0192V10.0176C10.8032 10.0176 10.7473 10.0651 10.1448 10.7951C10.1103 10.8415 10.0626 10.8767 10.008 10.896C9.9534 10.9153 9.89427 10.9178 9.83818 10.9034C9.78388 10.8889 9.73069 10.8705 9.67901 10.8484C9.57568 10.8051 9.53985 10.7884 9.46901 10.7576L9.46485 10.7559C8.9881 10.5478 8.5467 10.2666 8.15651 9.92258C8.05151 9.83091 7.95401 9.73091 7.85401 9.63425C7.52616 9.32028 7.24044 8.96509 7.00401 8.57758L6.95485 8.49841C6.91953 8.44522 6.89098 8.38783 6.86985 8.32758C6.83818 8.20508 6.92068 8.10675 6.92068 8.10675C6.92068 8.10675 7.12318 7.88508 7.21735 7.76508C7.29575 7.66535 7.36891 7.5616 7.43651 7.45425C7.53485 7.29592 7.56568 7.13341 7.51401 7.00758C7.28068 6.43758 7.03901 5.87008 6.79068 5.30675C6.74151 5.19508 6.59568 5.11508 6.46318 5.09925C6.41818 5.09425 6.37318 5.08925 6.32818 5.08591C6.21627 5.08035 6.10413 5.08147 5.99235 5.08925V5.09008Z" fill="#AABBDD"/>
</svg>
